<?xml version="1.0" encoding="utf-8"?>
<!-- Generator: Adobe Illustrator 18.0.0, SVG Export Plug-In . SVG Version: 6.00 Build 0)  -->
<!DOCTYPE svg PUBLIC "-//W3C//DTD SVG 1.1//EN" "http://www.w3.org/Graphics/SVG/1.1/DTD/svg11.dtd">
<svg version="1.1" id="Capa_1" xmlns:sketch="http://www.bohemiancoding.com/sketch/ns"
	 xmlns="http://www.w3.org/2000/svg" xmlns:xlink="http://www.w3.org/1999/xlink" x="0px" y="0px" viewBox="0 0 32 32"
	 enable-background="new 0 0 32 32" xml:space="preserve">
<title>icon 23 one finger double tap</title>
<desc>Created with Sketch.</desc>
<g>
	<path d="M10,13v-1.2c-1.2-1-2-2.5-2-4.2c0-3,2.5-5.5,5.5-5.5c3,0,5.5,2.5,5.5,5.5c0,1.3-0.5,2.6-1.3,3.5c0.4,0,0.7,0.1,1.1,0.2
		c0.8-1.1,1.2-2.4,1.2-3.8C20,3.9,17.1,1,13.5,1S7,3.9,7,7.5C7,9.8,8.2,11.8,10,13z"/>
	<path d="M18,7.5C18,5,16,3,13.5,3S9,5,9,7.5c0,1.1,0.4,2.1,1,2.8V7.5C10,5.6,11.6,4,13.5,4C15.4,4,17,5.6,17,7.5v2.8
		C17.6,9.6,18,8.6,18,7.5z"/>
	<path d="M25.5,15c-0.6,0-1.1,0.2-1.5,0.5v0c0-1.4-1.1-2.5-2.5-2.5c-0.6,0-1.2,0.2-1.7,0.6c-0.4-1-1.3-1.6-2.3-1.6
		c-0.6,0-1.1,0.2-1.5,0.5v-5C16,6.1,14.9,5,13.5,5C12.1,5,11,6.1,11,7.5v8.9c-2-1.8-4.2-3.2-5.6-1.8c-2,2,2.2,5.9,5.4,11.8
		c2.3,4.1,5.5,5.6,8.7,5.6c4.7,0,8.5-3.8,8.5-8.5v-6C28,16.1,26.9,15,25.5,15z M27,19.7v3.8c0,3.9-3.4,7.5-7.5,7.5
		c-3.8,0-6-2.1-7.8-5C7.8,19.4,5,16.4,6.1,15.3c1.1-1.1,3.8,1.3,5.9,3.5V7.5C12,6.7,12.7,6,13.5,6C14.3,6,15,6.7,15,7.5V18h1v-3.5
		c0-0.8,0.7-1.5,1.5-1.5c0.8,0,1.5,0.7,1.5,1.5V17h1v-1.5c0-0.8,0.7-1.5,1.5-1.5c0.8,0,1.5,0.7,1.5,1.5V18h1v-0.5
		c0-0.8,0.7-1.5,1.5-1.5c0.8,0,1.5,0.7,1.5,1.5V19.7z"/>
</g>
</svg>
