<?xml version="1.0" encoding="utf-8"?>
<!-- Generator: Adobe Illustrator 16.0.0, SVG Export Plug-In . SVG Version: 6.00 Build 0)  -->
<!DOCTYPE svg PUBLIC "-//W3C//DTD SVG 1.1//EN" "http://www.w3.org/Graphics/SVG/1.1/DTD/svg11.dtd">
<svg version="1.1" xmlns="http://www.w3.org/2000/svg" xmlns:xlink="http://www.w3.org/1999/xlink" x="0px" y="0px" width="50px"
	 height="50px" viewBox="0 0 50 50" enable-background="new 0 0 50 50" xml:space="preserve">
<g id="_x31_">
</g>
<g id="_x32_">
</g>
<g id="Layer_3">
</g>
<g id="Layer_4">
</g>
<g id="Layer_5">
</g>
<g id="Layer_6">
</g>
<g id="Layer_7">
</g>
<g id="Layer_8">
</g>
<g id="Layer_9">
</g>
<g id="Layer_10">
</g>
<g id="Layer_11">
</g>
<g id="Layer_12">
</g>
<g id="Layer_13">
</g>
<g id="Layer_14">
</g>
<g id="Layer_15">
</g>
<g id="Layer_16">
</g>
<g id="Layer_17">
</g>
<g id="Layer_19">
</g>
<g id="Layer_20">
</g>
<g id="Layer_21">
</g>
<g id="Layer_22">
</g>
<g id="Layer_23">
</g>
<g id="Layer_24">
</g>
<g id="Layer_25">
</g>
<g id="Layer_26">
</g>
<g id="Layer_27">
</g>
<g id="Layer_28">
</g>
<g id="Layer_29">
</g>
<g id="Layer_30">
</g>
<g id="Layer_31">
</g>
<g id="Layer_32">
</g>
<g id="Layer_33">
</g>
<g id="Layer_34">
</g>
<g id="Layer_35">
</g>
<g id="Layer_36">
</g>
<g id="Layer_37">
</g>
<g id="Layer_38">
</g>
<g id="Layer_39">
</g>
<g id="Layer_40">
</g>
<g id="Layer_41">
</g>
<g id="Layer_42">
</g>
<g id="Layer_43">
</g>
<g id="Layer_44">
</g>
<g id="Layer_45">
</g>
<g id="Layer_46">
</g>
<g id="Layer_47">
</g>
<g id="Layer_48">
</g>
<g id="Layer_49">
</g>
<g id="Layer_50">
</g>
<g id="Layer_51">
</g>
<g id="Layer_52">
</g>
<g id="Layer_53">
</g>
<g id="Layer_57">
</g>
<g id="Layer_54">
</g>
<g id="Layer_55">
</g>
<g id="Layer_56">
</g>
<g id="Layer_59">
</g>
<g id="Layer_60">
</g>
<g id="Layer_61">
</g>
<g id="Layer_62">
</g>
<g id="Layer_63">
</g>
<g id="Layer_64">
</g>
<g id="Layer_65">
</g>
<g id="Layer_66">
</g>
<g id="Layer_67">
	<g>
		<path d="M48.584,38.334V8.115H1.416v30.219h19.252v1.945H10.604v1.605h28.179v-1.605h-9.846v-1.945H48.584z M4.866,33.884V11.565
			h40.267v22.318H4.866z"/>
		<path d="M18.683,14.84h7.919v3.48h1.61v-5.091h-11.14v16.71h7.281v-2.771h-5.67V14.84z M22.877,28.026
			c0.296,0,0.536,0.241,0.536,0.536c0,0.297-0.239,0.538-0.536,0.538c-0.297,0-0.538-0.241-0.538-0.538
			C22.34,28.268,22.58,28.026,22.877,28.026z"/>
		<path d="M25.135,32.28h7.792V19.174h-7.792V32.28z M29.13,31.714c-0.249,0-0.449-0.201-0.449-0.449s0.2-0.449,0.449-0.449
			c0.247,0,0.448,0.201,0.448,0.449S29.377,31.714,29.13,31.714z M29.204,19.717c0.103,0,0.188,0.084,0.188,0.188
			s-0.085,0.188-0.188,0.188c-0.104,0-0.188-0.085-0.188-0.188S29.1,19.717,29.204,19.717z M28.083,20.345h2.241v0.181h-2.241
			V20.345z M26.384,21.17l5.292-0.002v9.003c-2.023,0.011-4.287,0.02-5.292,0.011V21.17z"/>
	</g>
</g>
<g id="Layer_68">
</g>
<g id="Layer_69">
</g>
<g id="Layer_70">
</g>
<g id="Layer_71">
</g>
<g id="Layer_72">
</g>
<g id="Layer_73">
</g>
<g id="Layer_74">
</g>
<g id="Layer_75">
</g>
<g id="Layer_76">
</g>
<g id="Layer_77">
</g>
<g id="Layer_78">
</g>
<g id="Layer_79">
</g>
<g id="Layer_80">
</g>
<g id="Layer_81">
</g>
<g id="Layer_82">
</g>
<g id="Layer_83">
</g>
<g id="Layer_84">
</g>
<g id="Layer_85">
</g>
<g id="Layer_86">
</g>
<g id="Layer_87">
</g>
<g id="Layer_88">
</g>
<g id="Layer_89">
</g>
<g id="Layer_90">
</g>
<g id="Layer_91">
</g>
<g id="Layer_92">
</g>
<g id="Layer_93">
</g>
<g id="Layer_94">
</g>
<g id="Layer_95">
</g>
<g id="Layer_96">
</g>
<g id="Layer_97">
</g>
<g id="Layer_98">
</g>
<g id="Layer_99">
</g>
<g id="Layer_100">
</g>
<g id="Layer_101">
</g>
<g id="text">
</g>
</svg>
