<?xml version="1.0" encoding="utf-8"?>
<!-- Generator: Adobe Illustrator 18.0.0, SVG Export Plug-In . SVG Version: 6.00 Build 0)  -->
<!DOCTYPE svg PUBLIC "-//W3C//DTD SVG 1.1//EN" "http://www.w3.org/Graphics/SVG/1.1/DTD/svg11.dtd">
<svg version="1.1" id="Layer_2_1_" xmlns="http://www.w3.org/2000/svg" xmlns:xlink="http://www.w3.org/1999/xlink" x="0px" y="0px"
	 viewBox="550.3 230.7 550 200" enable-background="new 550.3 230.7 550 200" xml:space="preserve">
<g id="Layer_1">
	<g id="Layer_2">
		<g>
			<path d="M617.2,289.9h39.2v15.5h-10.6v65.4h-17.9v-65.4h-10.6V289.9z"/>
			<path d="M660.2,349.1v-38.6c0-6.7,1.8-12,5.5-15.7c3.7-3.7,9.1-5.6,16.4-5.8c7.5,0.1,13.1,2,16.8,5.8c3.7,3.7,5.5,8.9,5.5,15.7
				v38.6c0,3.3-0.4,6.2-1.2,8.9c-0.9,2.7-2.1,5.1-3.8,7.2s-4,3.7-6.9,4.9c-2.9,1.1-6.2,1.7-10,1.6c-3.9,0.1-7.3-0.4-10.3-1.6
				c-2.9-1.1-5.1-2.8-6.9-4.9s-2.9-4.5-3.8-7.2C660.7,355.3,660.2,352.3,660.2,349.1z M682.3,355.8c0.6,0,1.2-0.1,1.7-0.4
				c0.5-0.2,0.9-0.6,1.2-1.2c0.2-0.5,0.5-1,0.7-1.5c0.1-0.5,0.2-1.1,0.4-2c0.1-0.9,0.1-1.3,0.1-1.8c0-0.4,0-1,0-1.7
				c0-0.1,0-0.2,0-0.4v-32.6c0-0.2,0-0.6,0-1.2s0-1.1,0-1.3s0-0.7,0-1.3s-0.1-1.1-0.1-1.3c-0.1-0.4-0.2-0.7-0.2-1.2
				c-0.1-0.5-0.2-0.9-0.5-1.1c-0.2-0.2-0.5-0.5-0.7-0.9c-0.2-0.2-0.6-0.5-1-0.6c-0.4-0.1-0.9-0.1-1.3-0.1c-0.7,0-1.3,0.1-1.8,0.4
				c-0.5,0.2-1,0.6-1.2,1.1c-0.2,0.5-0.6,1-0.7,1.5c-0.2,0.4-0.4,1.1-0.4,1.8c-0.1,0.9-0.1,1.5-0.1,1.8s0,1,0,1.8c0,0.1,0,0.2,0,0.4
				c0,0.1,0,0.2,0,0.2v32.6c0,0.7,0,1.3,0,1.8c0,0.5,0,1.1,0.1,2c0.1,0.9,0.2,1.6,0.4,2.1c0.2,0.5,0.5,1.1,0.7,1.6
				c0.2,0.6,0.7,1,1.2,1.3C681,355.7,681.6,355.8,682.3,355.8z"/>
			<path d="M737.3,370.9h-16.9v-26.6l-14.3-54.3h17.7l5,27.4l5-27.4h17.6l-14.2,54.3V370.9z"/>
			<path d="M779.4,370.9v-80.9H803c3.1,0,5.9,0.4,8.2,1.2c2.3,0.9,4.4,2.1,6.2,3.9s3.2,4.4,4,7.6c1,3.2,1.3,7.1,1.3,11.8
				c0,3.9-0.2,7.3-0.9,10.2s-1.5,5.4-2.8,7.6c-1.3,2.2-3.3,3.8-5.8,4.9c-2.4,1.1-5.5,1.6-9.2,1.6H797v32.2H779.4z M797,304.6v19.6h1
				c1,0,1.7,0,2.2-0.1c0.5,0,1.1-0.1,1.7-0.4c0.6-0.2,1.1-0.5,1.5-0.9c0.4-0.4,0.6-1,1-1.7c0.4-0.7,0.6-1.7,0.7-2.8
				c0.1-1.1,0.1-2.6,0.1-4.2c0-3.5-0.5-6-1.3-7.5c-1-1.3-2.6-2.1-4.9-2.1H797z"/>
			<path d="M828.2,370.9v-80.9h17.3v80.9H828.2z"/>
			<path d="M890.3,370.9l-3.1-6.9c-3.2,5.1-8.1,7.8-14.7,7.8c-12.9,0-19.3-8.3-19.3-25.1v-35c0-3.8,0.5-7.2,1.5-10
				c1-2.8,2.2-5,3.7-6.6s3.3-2.8,5.4-3.7c2.1-0.9,4-1.5,5.9-1.7c1.7-0.2,3.7-0.4,5.6-0.4c2.4,0,4.8,0.1,6.9,0.5
				c2.1,0.4,3.8,0.9,5.3,1.6c1.5,0.7,2.8,1.6,3.9,2.6c1.1,1,2.1,2.1,2.8,3.4c0.7,1.3,1.3,2.7,1.8,4c0.5,1.3,0.9,2.9,1.1,4.8
				c0.2,1.8,0.4,3.7,0.5,5.3c0.1,1.6,0.1,3.5,0.1,5.8h-17v-6.4c0-1.3-0.1-2.3-0.4-3.2c-0.2-0.9-0.6-1.5-1.1-1.8
				c-0.5-0.4-1-0.6-1.3-0.7c-0.4-0.1-0.9-0.1-1.3-0.1c-1,0-1.8,0.1-2.4,0.4c-0.6,0.2-1.1,0.6-1.5,1c-0.4,0.4-0.6,1.1-0.7,2.2
				c-0.1,1.1-0.2,2.1-0.2,3.1s0,2.4,0,4.5v31.3c0,1.2,0,2.2,0.1,2.9c0.1,0.9,0.2,1.7,0.6,2.7c0.2,1,0.9,1.7,1.5,2.2
				c0.7,0.5,1.6,0.7,2.7,0.7c1.8,0,2.9-0.7,3.5-2.1c0.6-1.3,0.9-3.7,0.9-6.9v-9.3h-4.8v-14h21.7v47H890.3z"/>
			<path d="M972.8,336v15.3c0,7.1-2,12.2-6,15.5s-9.5,4.9-16.8,4.9c-6.4,0-11.5-1.8-15.5-5.5s-6-8.8-6-15.5v-37.6
				c0-8.1,1.7-14.1,5.3-18c3.5-4,9.1-6,16.6-6c3.1,0,5.9,0.4,8.6,1.1c2.6,0.7,4.9,1.8,7,3.4c2,1.5,3.5,3.4,4.8,5.9
				c1.1,2.4,1.7,5.3,1.7,8.3v14.3h-17.6v-9.4c0-4.9-1.5-7.2-4.3-7.2c-1.7,0-2.8,0.5-3.3,1.6c-0.5,1.1-0.9,2.6-0.9,4.4v38.3
				c0,1.7,0.4,3.1,1.1,4.3c0.7,1.2,1.7,1.8,3.1,1.8c1.1,0,2.2-0.5,2.9-1.3c0.9-0.9,1.2-2.4,1.2-4.8v-14h18.1V336z"/>
			<path d="M979,349.1v-38.6c0-6.7,1.8-12,5.5-15.7c3.7-3.7,9.1-5.6,16.4-5.8c7.5,0.1,13.1,2,16.8,5.8c3.7,3.7,5.5,8.9,5.5,15.7
				v38.6c0,3.3-0.4,6.2-1.2,8.9s-2.1,5.1-3.8,7.2c-1.7,2.1-4,3.7-6.9,4.9c-2.9,1.1-6.2,1.7-10,1.6c-3.9,0.1-7.3-0.4-10.3-1.6
				c-2.9-1.1-5.1-2.8-6.9-4.9c-1.7-2.1-2.9-4.5-3.8-7.2C979.4,355.3,979,352.3,979,349.1z M1001.1,355.8c0.6,0,1.2-0.1,1.7-0.4
				c0.5-0.2,0.9-0.6,1.2-1.2c0.2-0.5,0.5-1,0.7-1.5c0.1-0.5,0.2-1.1,0.4-2s0.1-1.3,0.1-1.8c0-0.4,0-1,0-1.7c0-0.1,0-0.2,0-0.4v-32.6
				c0-0.2,0-0.6,0-1.2s0-1.1,0-1.3s0-0.7,0-1.3s-0.1-1.1-0.1-1.3c-0.1-0.4-0.2-0.7-0.2-1.2c-0.1-0.5-0.2-0.9-0.5-1.1
				c-0.2-0.2-0.5-0.5-0.7-0.9c-0.2-0.2-0.6-0.5-1-0.6s-0.9-0.1-1.3-0.1c-0.7,0-1.3,0.1-1.8,0.4c-0.5,0.2-1,0.6-1.2,1.1
				s-0.6,1-0.7,1.5c-0.2,0.4-0.4,1.1-0.4,1.8c-0.1,0.9-0.1,1.5-0.1,1.8s0,1,0,1.8c0,0.1,0,0.2,0,0.4c0,0.1,0,0.2,0,0.2v32.6
				c0,0.7,0,1.3,0,1.8c0,0.5,0,1.1,0.1,2c0.1,0.9,0.2,1.6,0.4,2.1c0.2,0.5,0.5,1.1,0.7,1.6c0.2,0.6,0.7,1,1.2,1.3
				C999.7,355.7,1000.3,355.8,1001.1,355.8z"/>
			<path d="M1029.5,370.9v-15.2h18.2v15.2H1029.5z"/>
		</g>
		<g>
			<line fill="none" x1="834.1" y1="-10019.7" x2="834.1" y2="10033.1"/>
		</g>
		<line fill="none" x1="608.9" y1="-10019.7" x2="608.9" y2="10033.1"/>
	</g>
</g>
</svg>
