<?xml version="1.0" encoding="utf-8"?>
<!-- Generator: Adobe Illustrator 18.0.0, SVG Export Plug-In . SVG Version: 6.00 Build 0)  -->
<!DOCTYPE svg PUBLIC "-//W3C//DTD SVG 1.1//EN" "http://www.w3.org/Graphics/SVG/1.1/DTD/svg11.dtd">
<svg version="1.1" id="Layer_1" xmlns="http://www.w3.org/2000/svg" xmlns:xlink="http://www.w3.org/1999/xlink" x="0px" y="0px"
	 viewBox="0.3 0.7 1400 660" enable-background="new 0.3 0.7 1400 660" xml:space="preserve">
<g id="Layer_1_1_">
	<g id="Pig_Major">
		<g>
			<g>
				<g>
					<path d="M188.5,493.4c-26.3-10.2-49.7-24.7-69.8-44.7c-7.2-7.1-15.1-13.6-22.2-20.8c-5.9-5.8-12.4-11.4-16.5-18.4
						c-16.9-27.8-26.1-58.3-26.6-90.8c-0.2-17,1.8-34.1,3.3-51.2c1.3-15.3,4.9-30,10.2-44.4c4.5-12.5,11.9-23,19-33.9
						c2.7-4.2,5.6-8.1,8.7-12.1c0.7-1.3,1.6-2.7,2.7-4c1-1.7,2.3-3.3,3.7-4.8c0-0.1,0.1-0.1,0.1-0.2c2.7-3.8,5.9-7,9.1-10.2
						c1.5-1.7,3.1-3.5,4.7-5.3c1-2.7,2.7-5,4.8-7c-0.1,0-0.2,0.1-0.4,0.1c-1.6,2-3.3,3.7-5.4,4.9l0,0c-0.1,0.2-0.2,0.4-0.5,0.6
						c-0.4,0.4-0.7,0.7-1.1,1.2c-0.6,0.6-1.2,1.2-2,1.8c-0.2,0.1-0.5,0.4-0.6,0.5c-0.1,0-0.1,0.1-0.2,0.1c-1.8,2.1-3.5,3.9-5.3,5.9
						c-0.4,1.3-1.1,2.4-2.2,3.3l-0.1,0.1c-1.2,1.7-2.8,3.2-4.5,4.7c-0.4,0.7-0.9,1.3-1.3,2c-0.5,0.9-1,1.6-1.6,2.2
						c-0.7,0.9-1.5,1.7-2.2,2.6c-4.8,7.1-9.1,14.7-14.2,21.5c-12,16.2-18,34.5-21.3,53.9c-2.4,14.4-3.4,29-5.1,43.6
						c-2.1,18.1-1.3,36.4,2.4,54c2.8,13.1,7.3,25.8,11.9,38.4c5.1,14.3,12.5,27.5,23.4,38.2c11,10.8,22.4,21.2,34.1,31.2
						c9.2,8,18.2,16.6,28.9,22.2c21.3,11.1,43.5,20.2,65.4,30.1c0.7,0.4,2-0.1,4.5-0.4C209.9,503,199.4,497.6,188.5,493.4z"/>
					<path d="M218.3,509.7c-0.4,0-0.6,0-0.9-0.1c-5.9-2.7-12-5.4-17.9-8c-15.8-7-32.1-14.1-47.6-22.2c-8.8-4.7-16.6-11.5-24.2-18.1
						c-1.6-1.3-3.2-2.8-4.8-4.2c-11.8-10-23.3-20.6-34.1-31.2c-10.2-9.9-17.9-22.4-23.5-38.4v-0.1c-4.4-12.5-9.1-25.3-11.9-38.4
						c-3.8-17.6-4.5-35.9-2.4-54.2c0.6-4.8,1.1-9.8,1.6-14.4c1-9.5,2-19.5,3.7-29.1c3.9-22.5,10.8-39.8,21.4-54.1
						c3.1-4.2,5.9-8.6,8.6-13c1.8-2.8,3.7-5.8,5.5-8.6c0.7-0.9,1.5-1.6,2.2-2.6c0.6-0.6,1.1-1.3,1.6-2.1c0.5-0.7,1-1.3,1.3-2.1
						l0.1-0.1c2-1.6,3.3-3.1,4.4-4.5c0.1-0.1,0.1-0.1,0.1-0.2l0.1-0.1c1-0.7,1.6-1.7,2-2.9v-0.1l1.8-2.1c1.1-1.2,2.3-2.6,3.4-3.9
						l0.2-0.2c0.2-0.1,0.4-0.4,0.6-0.5c0.7-0.5,1.3-1.1,1.8-1.7c0.4-0.4,0.7-0.7,1.1-1.1c0.1-0.1,0.2-0.2,0.4-0.4l0.2-0.4
						c1.8-1.1,3.5-2.7,5.3-4.8l0.1-0.1l3.1-1l-2,1.8c-2.2,2.1-3.7,4.4-4.5,6.9l-0.1,0.2c-1.6,1.8-3.1,3.5-4.7,5.3
						c-3.8,3.5-6.6,6.7-9.1,10l-0.2,0.4c-1.5,1.5-2.7,3.1-3.7,4.7c-1.1,1.3-2,2.7-2.6,4c-3.5,4.7-6.4,8.4-8.7,12.1l-2.1,3.2
						c-6.2,9.5-12.7,19.5-16.8,30.6c-5.5,15.3-8.8,29.7-10,44.3c-0.4,3.8-0.7,7.7-1.1,11.5c-1.2,13-2.4,26.3-2.3,39.5
						c0.5,31.8,9.4,62.2,26.6,90.5c3.3,5.5,8.3,10.3,13.1,14.9c1.1,1.1,2.2,2.2,3.3,3.3c3.5,3.5,7.3,7,11,10.4
						c3.7,3.3,7.5,6.9,11.1,10.4c19.5,19.3,42.2,33.9,69.5,44.6c7.5,2.9,14.7,6.2,22.4,9.9c3.7,1.7,7.5,3.5,11.4,5.3l2.1,1l-2.2,0.2
						c-1,0.1-1.7,0.2-2.3,0.4C219.2,509.6,218.7,509.7,218.3,509.7z M97.8,169.3c-0.4,0.6-0.9,1.3-1.2,2c-0.5,0.9-1,1.7-1.7,2.3
						c-0.7,1-1.5,1.8-2.1,2.6c-1.8,2.7-3.7,5.6-5.5,8.4c-2.7,4.3-5.5,8.8-8.7,13c-10.6,14.2-17.4,31.2-21.2,53.6
						c-1.7,9.5-2.7,19.5-3.5,29c-0.5,4.8-1,9.7-1.6,14.6c-2.2,18.2-1.3,36.4,2.4,53.9c2.8,13,7.3,25.8,11.8,38.2v0.1
						c5.6,15.8,13.2,28.2,23.3,37.9c10.9,10.6,22.4,21.2,34.1,31.2c1.6,1.3,3.2,2.7,4.8,4.2c7.5,6.6,15.3,13.5,24,18
						c15.4,8.1,31.7,15.3,47.5,22.2c5.9,2.6,11.9,5.3,17.9,8c0.2,0.1,0.9,0,1.8-0.1c0.1,0,0.2,0,0.4,0c-3.3-1.5-6.4-2.9-9.4-4.4
						c-7.7-3.5-14.9-7-22.3-9.9c-27.4-10.6-50.3-25.3-70-44.8c-3.5-3.5-7.3-7-11-10.4c-3.7-3.3-7.5-6.9-11.1-10.4
						c-1.1-1.1-2.2-2.2-3.3-3.3c-4.8-4.7-9.8-9.5-13.2-15.2c-17.6-28.4-26.6-59-27.1-90.9c-0.2-13.2,1.1-26.7,2.3-39.7
						c0.4-3.8,0.7-7.7,1.1-11.5c1.2-14.7,4.5-29.3,10.2-44.7c4-11.3,10.6-21.2,16.9-30.8l2.1-3.2c2.4-3.7,5.1-7.5,8.7-12.1
						c0.7-1.3,1.6-2.7,2.7-4c1-1.7,2.2-3.3,3.7-4.8c0.1-0.1,0.1-0.1,0.1-0.2c2.4-3.4,5.4-6.6,9.2-10.2c1.5-1.7,2.9-3.4,4.5-5.1
						c0.2-0.6,0.5-1.2,0.7-1.7c-0.2,0.2-0.5,0.4-0.7,0.5v0.1c-0.1,0.1-0.2,0.4-0.4,0.5c-0.4,0.4-0.7,0.9-1.1,1.2
						c-0.6,0.6-1.3,1.2-2,1.8c-0.2,0.1-0.5,0.4-0.7,0.5l-0.1,0.1c-1.2,1.3-2.3,2.6-3.4,3.8l-1.7,1.8c-0.4,1.5-1.2,2.6-2.3,3.4
						l-0.1,0.1C101.2,166.3,99.8,167.8,97.8,169.3z"/>
				</g>
				<g>
					<path d="M218.3,509.7c-0.4,0-0.6,0-0.9-0.1c-5.9-2.7-12-5.4-17.9-8c-15.8-7-32.1-14.1-47.6-22.2c-8.8-4.7-16.6-11.5-24.2-18.1
						c-1.6-1.3-3.2-2.8-4.8-4.2c-11.8-10-23.3-20.6-34.1-31.2c-10.2-9.9-17.9-22.4-23.5-38.4v-0.1c-4.4-12.5-9.1-25.3-11.9-38.4
						c-3.8-17.6-4.5-35.9-2.4-54.2c0.6-4.8,1.1-9.8,1.6-14.4c1-9.5,2-19.5,3.7-29.1c3.9-22.5,10.8-39.8,21.4-54.1
						c3.1-4.2,5.9-8.6,8.6-13c1.8-2.8,3.7-5.8,5.5-8.6c0.7-0.9,1.5-1.6,2.2-2.6c0.6-0.6,1.1-1.3,1.6-2.1c0.5-0.7,1-1.3,1.3-2.1
						l0.1-0.1c2-1.6,3.3-3.1,4.4-4.5c0.1-0.1,0.1-0.1,0.1-0.2l0.1-0.1c1-0.7,1.6-1.7,2-2.9v-0.1l1.8-2.1c1.1-1.2,2.3-2.6,3.4-3.9
						l0.2-0.2c0.2-0.1,0.4-0.4,0.6-0.5c0.7-0.5,1.3-1.1,1.8-1.7c0.4-0.4,0.7-0.7,1.1-1.1c0.1-0.1,0.2-0.2,0.4-0.4l0.2-0.4
						c1.8-1.1,3.5-2.7,5.3-4.8l0.1-0.1l3.1-1l-2,1.8c-2.2,2.1-3.7,4.4-4.5,6.9l-0.1,0.2c-1.6,1.8-3.1,3.5-4.7,5.3
						c-3.8,3.5-6.6,6.7-9.1,10l-0.2,0.4c-1.5,1.5-2.7,3.1-3.7,4.7c-1.1,1.3-2,2.7-2.6,4c-3.5,4.7-6.4,8.4-8.7,12.1l-2.1,3.2
						c-6.2,9.5-12.7,19.5-16.8,30.6c-5.5,15.3-8.8,29.7-10,44.3c-0.4,3.8-0.7,7.7-1.1,11.5c-1.2,13-2.4,26.3-2.3,39.5
						c0.5,31.8,9.4,62.2,26.6,90.5c3.3,5.5,8.3,10.3,13.1,14.9c1.1,1.1,2.2,2.2,3.3,3.3c3.5,3.5,7.3,7,11,10.4
						c3.7,3.3,7.5,6.9,11.1,10.4c19.5,19.3,42.2,33.9,69.5,44.6c7.5,2.9,14.7,6.2,22.4,9.9c3.7,1.7,7.5,3.5,11.4,5.3l2.1,1l-2.2,0.2
						c-1,0.1-1.7,0.2-2.3,0.4C219.2,509.6,218.7,509.7,218.3,509.7z M97.8,169.3c-0.4,0.6-0.9,1.3-1.2,2c-0.5,0.9-1,1.7-1.7,2.3
						c-0.7,1-1.5,1.8-2.1,2.6c-1.8,2.7-3.7,5.6-5.5,8.4c-2.7,4.3-5.5,8.8-8.7,13c-10.6,14.2-17.4,31.2-21.2,53.6
						c-1.7,9.5-2.7,19.5-3.5,29c-0.5,4.8-1,9.7-1.6,14.6c-2.2,18.2-1.3,36.4,2.4,53.9c2.8,13,7.3,25.8,11.8,38.2v0.1
						c5.6,15.8,13.2,28.2,23.3,37.9c10.9,10.6,22.4,21.2,34.1,31.2c1.6,1.3,3.2,2.7,4.8,4.2c7.5,6.6,15.3,13.5,24,18
						c15.4,8.1,31.7,15.3,47.5,22.2c5.9,2.6,11.9,5.3,17.9,8c0.2,0.1,0.9,0,1.8-0.1c0.1,0,0.2,0,0.4,0c-3.3-1.5-6.4-2.9-9.4-4.4
						c-7.7-3.5-14.9-7-22.3-9.9c-27.4-10.6-50.3-25.3-70-44.8c-3.5-3.5-7.3-7-11-10.4c-3.7-3.3-7.5-6.9-11.1-10.4
						c-1.1-1.1-2.2-2.2-3.3-3.3c-4.8-4.7-9.8-9.5-13.2-15.2c-17.6-28.4-26.6-59-27.1-90.9c-0.2-13.2,1.1-26.7,2.3-39.7
						c0.4-3.8,0.7-7.7,1.1-11.5c1.2-14.7,4.5-29.3,10.2-44.7c4-11.3,10.6-21.2,16.9-30.8l2.1-3.2c2.4-3.7,5.1-7.5,8.7-12.1
						c0.7-1.3,1.6-2.7,2.7-4c1-1.7,2.2-3.3,3.7-4.8c0.1-0.1,0.1-0.1,0.1-0.2c2.4-3.4,5.4-6.6,9.2-10.2c1.5-1.7,2.9-3.4,4.5-5.1
						c0.2-0.6,0.5-1.2,0.7-1.7c-0.2,0.2-0.5,0.4-0.7,0.5v0.1c-0.1,0.1-0.2,0.4-0.4,0.5c-0.4,0.4-0.7,0.9-1.1,1.2
						c-0.6,0.6-1.3,1.2-2,1.8c-0.2,0.1-0.5,0.4-0.7,0.5l-0.1,0.1c-1.2,1.3-2.3,2.6-3.4,3.8l-1.7,1.8c-0.4,1.5-1.2,2.6-2.3,3.4
						l-0.1,0.1C101.2,166.3,99.8,167.8,97.8,169.3z"/>
					<path d="M218.3,510.3c-0.5,0-0.9-0.1-1.2-0.2c-6-2.7-12-5.4-17.9-8c-15.8-7-32.1-14.1-47.6-22.3c-8.9-4.7-16.8-11.5-24.4-18.2
						l-0.1-0.1c-1.6-1.3-3.1-2.7-4.7-4c-11.8-10-23.3-20.6-34.1-31.3c-10.2-9.9-18-22.6-23.7-38.7v-0.1
						c-4.4-12.5-9.1-25.3-11.9-38.4c-3.8-17.6-4.7-36-2.4-54.5c0.6-4.9,1.1-9.8,1.6-14.4c1-9.7,2-19.5,3.7-29.1
						c3.9-22.5,10.8-39.8,21.5-54.3c3.1-4.2,5.9-8.6,8.6-12.9c1.8-2.8,3.7-5.8,5.5-8.6c0.7-0.9,1.5-1.7,2.2-2.7
						c0.6-0.6,1.1-1.2,1.5-2c0.5-0.7,1-1.5,1.3-2.1l0.2-0.2c2-1.6,3.3-3.1,4.4-4.4c0.1-0.1,0.1-0.2,0.2-0.2l0.1-0.1
						c0.9-0.6,1.5-1.6,1.7-2.6l0.1-0.2l2-2.2c1.1-1.2,2.3-2.6,3.4-3.9l0.4-0.2c0.2-0.1,0.5-0.4,0.6-0.5c0.6-0.5,1.2-1.1,1.8-1.7
						c0.4-0.4,0.7-0.7,1.1-1.1c0.1-0.1,0.1-0.2,0.2-0.4l0.5-0.5c1.8-1.1,3.4-2.6,5-4.7l0.2-0.2l5.9-2l-3.9,3.8
						c-2.2,2.1-3.5,4.2-4.4,6.6l-0.1,0.2c-1.6,1.8-3.2,3.7-4.7,5.4c-3.8,3.5-6.6,6.7-9.1,10l-0.2,0.2c-1.5,1.5-2.7,3.1-3.7,4.7
						c-1.1,1.3-2,2.7-2.6,3.9c-3.7,4.8-6.4,8.6-8.7,12.1l-2.1,3.2c-6.2,9.5-12.7,19.3-16.8,30.5c-5.5,15.2-8.8,29.6-10,44.2
						c-0.4,3.8-0.7,7.7-1.1,11.5c-1.2,13-2.4,26.4-2.3,39.5c0.5,31.7,9.4,62.1,26.4,90.2c3.3,5.5,8.2,10.3,13,14.8
						c1.2,1.1,2.3,2.2,3.3,3.3c3.5,3.5,7.3,7,11,10.3c3.8,3.4,7.6,6.9,11.1,10.4c19.5,19.3,42.1,33.8,69.3,44.4
						c7.5,2.9,14.7,6.4,22.4,9.9c3.7,1.7,7.3,3.4,11.4,5.3l4.2,1.8L222,510c-1,0.1-1.7,0.2-2.3,0.4
						C219.2,510.2,218.7,510.3,218.3,510.3z M213.1,506.9c1.5,0.7,3.1,1.3,4.5,2.1c0.4,0.2,1,0.1,2,0c-0.5,0.1-1,0.1-1.2,0.1l0,0
						c-0.2,0-0.5,0-0.6-0.1C216,508.2,214.6,507.6,213.1,506.9z M218.6,506.9c0.5,0.2,1.1,0.5,1.6,0.7l1.8,0.9l-1.7,0.2
						c0.5-0.1,1.1-0.1,1.8-0.2C220.9,508,219.7,507.5,218.6,506.9z M188,494.5c4,1.8,8.2,3.7,12.2,5.4c2.9,1.2,6,2.7,9.2,4
						C202,500.5,195.1,497.2,188,494.5L188,494.5z M128.4,461.1c7.5,6.5,15.2,13.2,23.9,17.7c14,7.3,28.6,13.8,43,20.2
						c-14.3-6.4-29-12.9-43-20.2C143.6,474.3,135.9,467.6,128.4,461.1z M67.5,388.2c5.5,15.1,13,26.9,22.6,36.4
						c10.9,10.6,22.4,21.2,34,31.2c1.6,1.3,3.2,2.7,4.8,4.2c7.5,6.6,15.3,13.3,23.9,17.9c2.7,1.3,5.4,2.7,8.1,4
						c-15.9-8.8-30.2-19.6-43-32.3c-3.5-3.5-7.3-7-11-10.3c-3.8-3.4-7.6-6.9-11.1-10.5c-1.1-1.1-2.2-2.1-3.3-3.2
						c-4.9-4.8-9.9-9.7-13.5-15.4C74.6,403,70.8,395.6,67.5,388.2z M137.3,465c5,3.9,10.3,7.5,15.8,10.9
						C147.8,472.5,142.5,469,137.3,465z M125.6,458.7c0.7,0.6,1.6,1.3,2.3,2l0.1,0.1C127.2,460,126.5,459.4,125.6,458.7z
						 M110.1,440.6c2.6,2.3,5.3,4.8,7.7,7.2C115.2,445.3,112.6,442.9,110.1,440.6z M75.5,408.1c3.9,6.6,8.4,12.4,13.7,17.4
						c7.3,7.1,14.9,14.2,22.6,21.2c-7.7-7-15.3-14-22.6-21.2C84,420.4,79.5,414.6,75.5,408.1z M97.8,429.2c1.7,1.6,3.4,3.3,5.1,4.9
						C101.2,432.5,99.5,430.9,97.8,429.2z M93,424.5l0.1,0.1c0.6,0.6,1.2,1.1,1.7,1.7c-0.5-0.5-1.1-1.1-1.7-1.6
						C93.2,424.6,93,424.6,93,424.5z M81.9,412.5c3.1,4.2,6.9,7.8,10.5,11.5C88.8,420.4,85,416.7,81.9,412.5z M56.2,273.5
						c-0.1,1.8-0.4,3.7-0.5,5.5v0.2c-1.2,13-2.4,26.4-2.3,39.5c0.4,26.7,6.7,52.5,19,76.9c-12.2-24.2-18.6-50.1-19-76.7
						c-0.2-13.2,1.1-26.6,2.3-39.5C55.8,277.3,56.1,275.4,56.2,273.5z M55.1,272c-0.2,2.8-0.6,5.6-0.9,8.3c-0.5,4.8-1,9.7-1.6,14.6
						c-2.2,18.2-1.3,36.2,2.3,53.6c0,0.1,0.1,0.4,0.1,0.5c-1.8-9.9-2.9-20-3.1-30.1c-0.2-13.2,1.1-26.7,2.3-39.8v-0.2
						C54.7,276.7,54.8,274.3,55.1,272z M59.3,238.5c-1,4-1.8,8.2-2.7,12.7c-1.7,9.5-2.7,19.5-3.5,29c-0.5,4.8-1,9.7-1.6,14.6
						c-0.1,0.9-0.2,1.6-0.2,2.4c0.1-0.9,0.1-1.6,0.2-2.4c0.6-4.9,1.1-9.8,1.6-14.6c1-9.5,2-19.5,3.5-29.1
						C57.4,246.8,58.3,242.5,59.3,238.5z M76.3,201.9c-8,11.8-13.5,25.6-17,42.6c1.7-7.1,3.8-14.3,6.5-21.7
						C68.4,215.3,72.1,208.5,76.3,201.9z M84.5,191.5l-0.7,1.1c-6.2,9.5-12.9,19.5-16.9,30.7c-1.5,4-2.7,8-3.9,11.9
						c1.1-3.9,2.4-7.8,3.9-11.9c4-11.3,10.5-21.1,16.9-30.7L84.5,191.5z M80.9,193.2c-1,1.3-2,2.8-2.9,4.2c-0.1,0.1-0.1,0.2-0.2,0.4
						c0.1-0.1,0.1-0.2,0.2-0.4C79,195.9,79.9,194.5,80.9,193.2z M94.5,177.1c-2.8,3.7-5.1,7-7.2,9.9
						C89.4,184.1,91.7,180.9,94.5,177.1L94.5,177.1L94.5,177.1z M90.2,178.7c-1.2,1.8-2.3,3.7-3.5,5.5c-0.5,0.9-1,1.6-1.5,2.4
						c0.5-0.9,1-1.6,1.5-2.4C87.8,182.5,89,180.6,90.2,178.7z M94.1,175.3c-0.4,0.5-0.7,0.9-1.1,1.2c-0.9,1.2-1.6,2.4-2.4,3.7
						c0.9-1.2,1.8-2.4,2.8-3.8C93.6,176.2,93.9,175.7,94.1,175.3z M93.3,174.5c-0.4,0.5-0.7,0.9-1.1,1.3l0,0
						C92.5,175.4,92.9,174.9,93.3,174.5z M97.2,173.1c-0.1,0.1-0.2,0.4-0.4,0.5C97,173.5,97.1,173.4,97.2,173.1L97.2,173.1z
						 M95.7,171.4c-0.4,0.7-0.9,1.3-1.5,1.8l0,0C94.9,172.6,95.4,172,95.7,171.4z M100.6,168.6c-1.3,1.3-2.4,2.8-3.3,4.3
						C98.2,171.4,99.4,170,100.6,168.6z M98.2,168.2c-0.2,0.2-0.6,0.5-0.9,0.7l-0.1,0.1c-0.4,0.6-0.7,1.2-1.3,2l0,0
						c0.5-0.7,0.9-1.3,1.3-2l0.1-0.1C97.7,168.7,97.9,168.5,98.2,168.2z M110.5,157.6c-0.1,0.1-0.2,0.4-0.5,0.5
						c-3.8,3.5-6.7,6.7-9.2,10.2c0,0,0,0.1-0.1,0.1l0,0l0.1-0.2c2.4-3.4,5.4-6.6,9.2-10.2C110.3,157.9,110.4,157.7,110.5,157.6z
						 M109.4,155l-0.1,0.1c-1.1,1.2-2.3,2.6-3.4,3.8l-0.9,0.9l0.9-0.9C107,157.7,108.1,156.3,109.4,155L109.4,155z M110.7,155.6
						c-0.1,0.1-0.2,0.2-0.4,0.4l-0.1,0.1c-0.7,0.9-1.6,1.8-2.4,2.7c0.5-0.5,1-1,1.6-1.5C109.7,156.7,110.2,156.1,110.7,155.6z
						 M110.1,154.5c-0.1,0.1-0.4,0.2-0.5,0.4C109.7,154.7,109.9,154.6,110.1,154.5z M115.3,151.4c-0.2,0.4-0.4,0.9-0.5,1.3l-0.1,0.2
						c-0.5,0.5-0.9,1-1.3,1.5c0.5-0.5,1-1.1,1.3-1.6v-0.1C114.8,152.3,115.1,151.8,115.3,151.4z M113.1,151.6
						c-0.2,0.2-0.5,0.5-0.7,0.7C112.6,152.1,112.9,151.8,113.1,151.6z M116.5,148.9l-1,2c0.9-1.7,2.2-3.4,3.9-5l-0.4,0.1
						c-1.5,1.8-2.9,3.2-4.5,4.3L116.5,148.9z"/>
				</g>
			</g>
			<g>
				<g>
					<path d="M520.9,98.6c-16.6-10.8-34.4-18.7-54.8-17.5c-7.1,0.4-14.3,0.9-21.3,2.1c-27.8,4.7-52.3,16.5-73,35.7
						c-4.5,4.3-8.1,5-13.3,2.9c-24.4-9.2-48.2-19.6-73.1-26.7c-35.5-10-71.2-11-105.4,6.5c-1.7,0.9-3.5,1.7-5.4,2.4
						c-0.1,0.1-0.2,0.2-0.4,0.4c-1.3,1-3.1,1.7-4.8,2c-0.7,0.5-1.6,0.9-2.4,1.2c-1,0.6-2,1.2-3.1,1.8c0.7,0.5,1.3,1,2,1.5
						c1.8-0.9,3.4-1.7,5-2.4c1.1-0.6,2.3-1.2,3.5-1.7c0.6-0.2,1.3-0.6,2-0.9c10.8-4.3,21.3-10.2,32.4-12.2
						c33.7-6.2,66.5-1.6,98.3,10.8c17,6.6,34,13.3,51.2,19.8c5.5,2.1,9.9,1.6,14.7-3.2c6.9-6.7,14.8-13,23.1-17.7
						c15.5-8.9,32.2-15.2,50.2-18.4c24.6-4.3,47.4-0.5,68.7,12.4c4,2.4,7.5,6,11.3,8.9c-42.4-9.2-110.8,29.5-111.8,64
						c1.2-1.5,2-3.2,2.8-4.8c11.3-22.6,28.4-39.5,51.8-48.7c12.1-4.8,25.6-6.4,38.6-8.7c6.7-1.1,14.6-2,19.2,4.7
						c5.1,7.3,0,14.4-2.6,21.3c-0.1,0.2-0.1,0.4-0.2,0.5c-13.5,19.3-25.9,39.7-40.9,57.8c-11,13.5-13.5,26.6-8.6,42.4
						c5.1,16.5,10.5,33,14.3,49.8c3.3,14.4,4.3,29.4,6.6,43.9c0.6,3.8,1.8,8,4.2,11.1c20.6,28.8,19.2,67.7-2.9,95.2
						c-9.1,11.3-20,20.1-33.4,24.5c-8.9,2.9-18.6,3.8-28,4.8c-7.3,0.7-14.8,0.1-23.1,0.1c1.6,0.9,2.6,1.8,3.4,1.8
						c15.5,1,31.3,2.4,46-3.3c26.6-10.4,45.4-28.2,51.9-57.5c5.5-24.8,3.7-47.6-12.6-68.2c-2-2.4-2.3-6.4-2.9-9.7
						c-3.3-18.8-5.8-37.8-9.8-56.4c-3.3-15.1-8.8-29.6-12.7-44.6c-2.9-11.4-0.4-21.7,8.1-30.4c2.7-2.7,4.8-6,7.1-9.2
						c11.4-16.2,22.9-32.2,33.8-48.6c3.3-5,6-10.6,7.6-16.4C534.9,111.7,529.1,103.8,520.9,98.6z"/>
					<path d="M435.5,468.1L435.5,468.1c-5.9,0-11.9-0.4-17.6-0.7l-2.2-0.1c-0.7,0-1.5-0.5-2.3-1c-0.4-0.2-0.9-0.6-1.5-0.9l-2.1-1.1
						h2.4c2.7,0,5.1,0,7.7,0.1c2.3,0,4.7,0.1,6.9,0.1c3.3,0,6-0.1,8.4-0.4l1.2-0.1c8.9-0.9,18.2-1.8,26.8-4.7
						c12.5-4.2,23.3-12.1,33.2-24.4c21.9-27.3,23.1-66.2,2.9-94.5c-2.6-3.5-3.7-8.2-4.3-11.4c-0.9-5.5-1.6-11.1-2.3-16.6
						c-1.1-9.1-2.3-18.4-4.3-27.3c-3.2-14.1-7.6-28-11.8-41.6c-0.9-2.7-1.7-5.5-2.6-8.2c-5-16.3-2.3-29.6,8.7-43
						c10.4-12.7,19.8-26.7,28.9-40.1c3.9-5.8,8-11.8,12-17.6c0.1-0.1,0.1-0.2,0.2-0.4c0.5-1.5,1.1-2.8,1.7-4.3
						c2.4-5.6,4.8-10.9,0.9-16.5c-2.4-3.5-6-5.1-11.1-5.1c-2.4,0-5,0.4-7.3,0.7c-2.1,0.4-4.2,0.7-6.2,1.1c-10.8,1.7-22,3.5-32.1,7.6
						c-22.5,8.8-39.9,25.1-51.4,48.3l-0.1,0.4c-0.7,1.6-1.6,3.2-2.7,4.5l-1.1,1.3v-1.7c0.4-14.7,12.9-31.1,34-44.8
						c20.4-13.2,44.6-21.2,64.7-21.2c3.9,0,7.7,0.4,11.4,1c-0.6-0.5-1.1-1-1.7-1.5c-2.4-2.1-4.9-4.3-7.7-6
						c-15.7-9.4-32.3-14.1-49.8-14.1c-6.1,0-12.4,0.6-18.8,1.7c-17.4,3.1-34.1,9.2-50.1,18.2c-8,4.5-15.9,10.6-23,17.6
						c-3.2,3.1-6.1,4.5-9.5,4.5c-1.8,0-3.7-0.4-5.9-1.2c-15.4-5.9-31-12-46.1-17.9l-5-2c-23-8.9-45.9-13.5-67.9-13.5
						c-10,0-20.2,1-30,2.8c-7.8,1.5-15.4,4.9-22.8,8.2c-3.1,1.3-6.4,2.8-9.5,4c-0.6,0.2-1.3,0.6-2,0.9c-1.5,0.6-2.6,1.1-3.4,1.6
						l-1.3,0.7c-1.2,0.6-2.4,1.2-3.7,1.8l-0.4,0.1l-0.2-0.2c-0.6-0.5-1.2-1-1.8-1.5l-0.9-0.5l0.9-0.5c0.9-0.5,1.6-1,2.3-1.5l0.5-0.6
						c0.7-0.4,1.5-0.7,2.4-1.2l0.2-0.1c1.6-0.2,3.2-0.9,4.5-1.8c0.1-0.1,0.1-0.1,0.2-0.2l0.4-0.2c2.1-0.9,3.8-1.6,5.4-2.4
						c17.9-9.2,37.3-13.7,57.9-13.7c15.1,0,30.7,2.3,47.9,7.2c17.9,5,35.6,12,52.6,18.7c6.7,2.7,13.7,5.4,20.6,8
						c1.8,0.7,3.4,1,4.8,1c2.7,0,5-1.1,8-3.9c20.6-19.2,45.2-31.2,73.2-35.9c7.2-1.2,14.7-1.6,21.3-2.1c1.3-0.1,2.8-0.1,4.2-0.1
						c16.4,0,32.1,5.5,51,17.7c10,6.5,14,14.9,11.3,24.4c-1.6,5.8-4.3,11.5-7.7,16.6c-8.6,12.7-17.5,25.5-26.2,37.8
						c-2.6,3.5-5.1,7.2-7.6,10.8l-1,1.3c-1.8,2.7-3.8,5.5-6.1,7.8c-8.2,8.4-10.9,18.5-8,29.9c1.6,6.2,3.5,12.5,5.5,18.6
						c2.6,8.4,5.4,17.3,7.2,25.9c2.7,12.2,4.7,24.8,6.6,37.1c1,6.4,2.1,12.9,3.2,19.3c0.1,0.4,0.1,0.9,0.2,1.3
						c0.5,2.9,1,6.1,2.6,8.1c14.9,18.8,19,40.6,12.7,68.7c-6.1,27.5-23.3,46.5-52.3,57.9C454.5,466.7,446.2,468.1,435.5,468.1z
						 M414.5,465.4c0.5,0.4,1,0.6,1.3,0.6l2.2,0.1c5.8,0.4,11.8,0.7,17.5,0.7l0,0c10.4,0,18.7-1.3,25.9-4.2
						c28.6-11.3,45.5-30,51.5-57c6.1-27.7,2.2-49.2-12.5-67.7c-1.8-2.3-2.3-5.6-2.8-8.7c-0.1-0.5-0.1-0.9-0.2-1.2
						c-1.1-6.5-2.2-13-3.2-19.3c-2-12.2-3.9-24.8-6.6-37.1c-2-8.7-4.7-17.5-7.2-25.9c-1.8-6.1-3.8-12.4-5.5-18.7
						c-3.1-11.8-0.4-22.2,8.2-31c2.2-2.3,4.2-5,6-7.7l1-1.3c2.6-3.5,5-7.2,7.6-10.8c8.7-12.4,17.6-25.1,26.2-37.8
						c3.3-5,6-10.6,7.5-16.3c3.1-11.3-4.2-18.7-10.8-23c-18.7-12.1-34.3-17.5-50.4-17.5c-1.3,0-2.8,0-4.2,0.1
						c-6.6,0.4-14.1,0.9-21.2,2.1c-27.8,4.7-52.3,16.6-72.6,35.6c-3.2,2.9-5.8,4.2-8.7,4.2c-1.6,0-3.3-0.4-5.3-1.1
						c-6.9-2.6-13.8-5.3-20.6-8c-17-6.7-34.6-13.6-52.5-18.6c-17-4.8-32.6-7.1-47.6-7.1c-20.7,0-39.5,4.4-57.4,13.6
						c-1.6,0.9-3.4,1.6-5.4,2.4l-0.1,0.1c-0.1,0.1-0.2,0.1-0.2,0.2c-1.5,1.1-3.2,1.8-4.9,2.1c-0.9,0.6-1.6,1-2.3,1.2l-0.5,0.4
						c-0.5,0.4-1.1,0.6-1.6,1c0.4,0.2,0.6,0.5,1,0.7c1.1-0.6,2.2-1.1,3.3-1.6l1.3-0.6c1-0.6,2.2-1.1,3.5-1.7c0.6-0.2,1.3-0.6,2-0.9
						c3.2-1.2,6.4-2.7,9.4-4c7.5-3.3,15.2-6.7,23.1-8.2c9.9-1.8,20.1-2.8,30.2-2.8c22.3,0,45.3,4.5,68.4,13.6l5,2
						c15.1,5.9,30.7,12,46.1,17.9c2.1,0.7,3.8,1.1,5.4,1.1c3.1,0,5.8-1.3,8.7-4.2c7.3-7.1,15.2-13.1,23.3-17.7
						c16-9.2,32.9-15.3,50.4-18.4c6.5-1.1,12.9-1.7,19-1.7c17.7,0,34.5,4.8,50.2,14.1c2.8,1.7,5.4,3.9,7.8,6.1c1.1,1,2.3,2,3.4,2.9
						l2,1.6l-2.4-0.5c-4.2-0.9-8.7-1.3-13.5-1.3c-20,0-43.9,7.8-64.1,20.9c-19.5,12.6-31.7,28-33.3,41.7c0.5-0.9,0.9-1.7,1.3-2.6
						l0.1-0.4c11.8-23.5,29.3-40,52.1-49c10.3-4,21.5-5.9,32.4-7.6c2.1-0.4,4.2-0.7,6.2-1.1c2.4-0.4,5-0.7,7.6-0.7
						c5.5,0,9.5,1.8,12.2,5.6c4.3,6.1,1.7,12-0.7,17.7c-0.6,1.3-1.2,2.8-1.7,4.2c-0.1,0.2-0.2,0.5-0.4,0.7c-4,5.8-8.1,11.8-12,17.5
						c-9.1,13.6-18.5,27.5-29,40.3c-10.8,13.1-13.3,25.9-8.4,41.9c0.9,2.7,1.7,5.4,2.6,8.2c4.3,13.6,8.7,27.7,11.9,41.7
						c2.1,9.1,3.2,18.4,4.3,27.4c0.7,5.5,1.3,11.1,2.3,16.6c0.5,3.1,1.6,7.5,4,10.9c20.6,28.8,19.3,68.3-2.9,96
						c-10,12.5-21.1,20.6-33.8,24.7c-8.6,2.8-18,3.8-27.1,4.7l-1.2,0.1c-2.6,0.2-5.3,0.4-8.6,0.4c-2.2,0-4.5,0-7-0.1
						C418.1,465.4,416.3,465.4,414.5,465.4z"/>
				</g>
				<g>
					<path d="M435.5,468.1L435.5,468.1c-5.9,0-11.9-0.4-17.6-0.7l-2.2-0.1c-0.7,0-1.5-0.5-2.3-1c-0.4-0.2-0.9-0.6-1.5-0.9l-2.1-1.1
						h2.4c2.7,0,5.1,0,7.7,0.1c2.3,0,4.7,0.1,6.9,0.1c3.3,0,6-0.1,8.4-0.4l1.2-0.1c8.9-0.9,18.2-1.8,26.8-4.7
						c12.5-4.2,23.3-12.1,33.2-24.4c21.9-27.3,23.1-66.2,2.9-94.5c-2.6-3.5-3.7-8.2-4.3-11.4c-0.9-5.5-1.6-11.1-2.3-16.6
						c-1.1-9.1-2.3-18.4-4.3-27.3c-3.2-14.1-7.6-28-11.8-41.6c-0.9-2.7-1.7-5.5-2.6-8.2c-5-16.3-2.3-29.6,8.7-43
						c10.4-12.7,19.8-26.7,28.9-40.1c3.9-5.8,8-11.8,12-17.6c0.1-0.1,0.1-0.2,0.2-0.4c0.5-1.5,1.1-2.8,1.7-4.3
						c2.4-5.6,4.8-10.9,0.9-16.5c-2.4-3.5-6-5.1-11.1-5.1c-2.4,0-5,0.4-7.3,0.7c-2.1,0.4-4.2,0.7-6.2,1.1c-10.8,1.7-22,3.5-32.1,7.6
						c-22.5,8.8-39.9,25.1-51.4,48.3l-0.1,0.4c-0.7,1.6-1.6,3.2-2.7,4.5l-1.1,1.3v-1.7c0.4-14.7,12.9-31.1,34-44.8
						c20.4-13.2,44.6-21.2,64.7-21.2c3.9,0,7.7,0.4,11.4,1c-0.6-0.5-1.1-1-1.7-1.5c-2.4-2.1-4.9-4.3-7.7-6
						c-15.7-9.4-32.3-14.1-49.8-14.1c-6.1,0-12.4,0.6-18.8,1.7c-17.4,3.1-34.1,9.2-50.1,18.2c-8,4.5-15.9,10.6-23,17.6
						c-3.2,3.1-6.1,4.5-9.5,4.5c-1.8,0-3.7-0.4-5.9-1.2c-15.4-5.9-31-12-46.1-17.9l-5-2c-23-8.9-45.9-13.5-67.9-13.5
						c-10,0-20.2,1-30,2.8c-7.8,1.5-15.4,4.9-22.8,8.2c-3.1,1.3-6.4,2.8-9.5,4c-0.6,0.2-1.3,0.6-2,0.9c-1.5,0.6-2.6,1.1-3.4,1.6
						l-1.3,0.7c-1.2,0.6-2.4,1.2-3.7,1.8l-0.4,0.1l-0.2-0.2c-0.6-0.5-1.2-1-1.8-1.5l-0.9-0.5l0.9-0.5c0.9-0.5,1.6-1,2.3-1.5l0.5-0.6
						c0.7-0.4,1.5-0.7,2.4-1.2l0.2-0.1c1.6-0.2,3.2-0.9,4.5-1.8c0.1-0.1,0.1-0.1,0.2-0.2l0.4-0.2c2.1-0.9,3.8-1.6,5.4-2.4
						c17.9-9.2,37.3-13.7,57.9-13.7c15.1,0,30.7,2.3,47.9,7.2c17.9,5,35.6,12,52.6,18.7c6.7,2.7,13.7,5.4,20.6,8
						c1.8,0.7,3.4,1,4.8,1c2.7,0,5-1.1,8-3.9c20.6-19.2,45.2-31.2,73.2-35.9c7.2-1.2,14.7-1.6,21.3-2.1c1.3-0.1,2.8-0.1,4.2-0.1
						c16.4,0,32.1,5.5,51,17.7c10,6.5,14,14.9,11.3,24.4c-1.6,5.8-4.3,11.5-7.7,16.6c-8.6,12.7-17.5,25.5-26.2,37.8
						c-2.6,3.5-5.1,7.2-7.6,10.8l-1,1.3c-1.8,2.7-3.8,5.5-6.1,7.8c-8.2,8.4-10.9,18.5-8,29.9c1.6,6.2,3.5,12.5,5.5,18.6
						c2.6,8.4,5.4,17.3,7.2,25.9c2.7,12.2,4.7,24.8,6.6,37.1c1,6.4,2.1,12.9,3.2,19.3c0.1,0.4,0.1,0.9,0.2,1.3
						c0.5,2.9,1,6.1,2.6,8.1c14.9,18.8,19,40.6,12.7,68.7c-6.1,27.5-23.3,46.5-52.3,57.9C454.5,466.7,446.2,468.1,435.5,468.1z
						 M414.5,465.4c0.5,0.4,1,0.6,1.3,0.6l2.2,0.1c5.8,0.4,11.8,0.7,17.5,0.7l0,0c10.4,0,18.7-1.3,25.9-4.2
						c28.6-11.3,45.5-30,51.5-57c6.1-27.7,2.2-49.2-12.5-67.7c-1.8-2.3-2.3-5.6-2.8-8.7c-0.1-0.5-0.1-0.9-0.2-1.2
						c-1.1-6.5-2.2-13-3.2-19.3c-2-12.2-3.9-24.8-6.6-37.1c-2-8.7-4.7-17.5-7.2-25.9c-1.8-6.1-3.8-12.4-5.5-18.7
						c-3.1-11.8-0.4-22.2,8.2-31c2.2-2.3,4.2-5,6-7.7l1-1.3c2.6-3.5,5-7.2,7.6-10.8c8.7-12.4,17.6-25.1,26.2-37.8
						c3.3-5,6-10.6,7.5-16.3c3.1-11.3-4.2-18.7-10.8-23c-18.7-12.1-34.3-17.5-50.4-17.5c-1.3,0-2.8,0-4.2,0.1
						c-6.6,0.4-14.1,0.9-21.2,2.1c-27.8,4.7-52.3,16.6-72.6,35.6c-3.2,2.9-5.8,4.2-8.7,4.2c-1.6,0-3.3-0.4-5.3-1.1
						c-6.9-2.6-13.8-5.3-20.6-8c-17-6.7-34.6-13.6-52.5-18.6c-17-4.8-32.6-7.1-47.6-7.1c-20.7,0-39.5,4.4-57.4,13.6
						c-1.6,0.9-3.4,1.6-5.4,2.4l-0.1,0.1c-0.1,0.1-0.2,0.1-0.2,0.2c-1.5,1.1-3.2,1.8-4.9,2.1c-0.9,0.6-1.6,1-2.3,1.2l-0.5,0.4
						c-0.5,0.4-1.1,0.6-1.6,1c0.4,0.2,0.6,0.5,1,0.7c1.1-0.6,2.2-1.1,3.3-1.6l1.3-0.6c1-0.6,2.2-1.1,3.5-1.7c0.6-0.2,1.3-0.6,2-0.9
						c3.2-1.2,6.4-2.7,9.4-4c7.5-3.3,15.2-6.7,23.1-8.2c9.9-1.8,20.1-2.8,30.2-2.8c22.3,0,45.3,4.5,68.4,13.6l5,2
						c15.1,5.9,30.7,12,46.1,17.9c2.1,0.7,3.8,1.1,5.4,1.1c3.1,0,5.8-1.3,8.7-4.2c7.3-7.1,15.2-13.1,23.3-17.7
						c16-9.2,32.9-15.3,50.4-18.4c6.5-1.1,12.9-1.7,19-1.7c17.7,0,34.5,4.8,50.2,14.1c2.8,1.7,5.4,3.9,7.8,6.1c1.1,1,2.3,2,3.4,2.9
						l2,1.6l-2.4-0.5c-4.2-0.9-8.7-1.3-13.5-1.3c-20,0-43.9,7.8-64.1,20.9c-19.5,12.6-31.7,28-33.3,41.7c0.5-0.9,0.9-1.7,1.3-2.6
						l0.1-0.4c11.8-23.5,29.3-40,52.1-49c10.3-4,21.5-5.9,32.4-7.6c2.1-0.4,4.2-0.7,6.2-1.1c2.4-0.4,5-0.7,7.6-0.7
						c5.5,0,9.5,1.8,12.2,5.6c4.3,6.1,1.7,12-0.7,17.7c-0.6,1.3-1.2,2.8-1.7,4.2c-0.1,0.2-0.2,0.5-0.4,0.7c-4,5.8-8.1,11.8-12,17.5
						c-9.1,13.6-18.5,27.5-29,40.3c-10.8,13.1-13.3,25.9-8.4,41.9c0.9,2.7,1.7,5.4,2.6,8.2c4.3,13.6,8.7,27.7,11.9,41.7
						c2.1,9.1,3.2,18.4,4.3,27.4c0.7,5.5,1.3,11.1,2.3,16.6c0.5,3.1,1.6,7.5,4,10.9c20.6,28.8,19.3,68.3-2.9,96
						c-10,12.5-21.1,20.6-33.8,24.7c-8.6,2.8-18,3.8-27.1,4.7l-1.2,0.1c-2.6,0.2-5.3,0.4-8.6,0.4c-2.2,0-4.5,0-7-0.1
						C418.1,465.4,416.3,465.4,414.5,465.4z"/>
					<path d="M435.5,468.7L435.5,468.7c-5.9,0-11.9-0.4-17.6-0.9l-2.2-0.1c-1-0.1-1.7-0.6-2.6-1.1c-0.4-0.2-0.9-0.6-1.3-0.9
						l-4.2-2.3h4.8c2.7,0,5.4,0.1,7.7,0.1s4.7,0.1,6.9,0.1c3.3,0,6-0.1,8.4-0.4l1.2-0.1c8.9-0.9,18.2-1.8,26.7-4.7
						c12.4-4,23.1-12,32.9-24.1c21.8-27.1,22.9-65.6,2.8-93.8c-2.6-3.7-3.8-8.3-4.3-11.6c-0.9-5.5-1.6-11.3-2.3-16.6
						c-1.1-8.9-2.3-18.2-4.3-27.2c-3.2-14-7.6-28-11.8-41.6c-0.9-2.7-1.7-5.5-2.6-8.2c-5.1-16.5-2.4-30,8.8-43.6
						c10.4-12.7,19.8-26.6,28.9-40.1l0.1-0.1c3.9-5.8,7.8-11.8,11.9-17.5c0-0.1,0.1-0.1,0.1-0.2c0.5-1.5,1.2-2.9,1.7-4.3
						c2.4-5.5,4.7-10.6,1-15.9c-2.3-3.3-5.8-4.9-10.6-4.9c-2.4,0-4.9,0.4-7.2,0.7c-2.1,0.4-4.2,0.7-6.2,1.1
						c-10.8,1.7-21.9,3.5-31.9,7.5c-22.4,8.8-39.7,25-51.2,48.1l-0.1,0.4c-0.7,1.6-1.6,3.2-2.8,4.7l-2.2,2.7l0.1-3.5
						c0.4-14.9,12.9-31.5,34.3-45.3c20.4-13.3,44.8-21.3,65.1-21.3c3.2,0,6.4,0.2,9.3,0.6l0,0c-2.4-2.1-4.9-4.3-7.6-5.9
						c-15.3-9.2-31.8-13.8-49.2-13.8c-6,0-12.4,0.6-18.7,1.7c-17.3,3.1-34,9.1-49.8,18.1c-7.8,4.5-15.8,10.5-22.9,17.5
						c-3.3,3.2-6.4,4.7-9.9,4.7c-1.8,0-3.8-0.4-6.1-1.2c-15.4-5.9-31-12-46.1-17.9l-5-2c-22.9-8.9-45.7-13.5-67.7-13.5
						c-10,0-20.1,1-29.9,2.8c-7.7,1.5-15.3,4.8-22.6,8.1c-3.1,1.3-6.4,2.8-9.5,4.2c-0.6,0.2-1.3,0.6-2,0.9c-1.3,0.5-2.4,1.1-3.4,1.6
						l-1.3,0.7c-1.2,0.6-2.4,1.2-3.7,1.8l-0.7,0.4l-0.6-0.6c-0.5-0.5-1.1-1-1.8-1.3l-1.7-1.1l1.7-1c0.9-0.5,1.6-1,2.3-1.5l0.6-0.4
						c0.9-0.4,1.5-0.7,2.4-1.2l0.4-0.1c1.6-0.2,3.1-0.9,4.3-1.8c0.1,0,0.1-0.1,0.2-0.1l0.5-0.4c2-0.9,3.8-1.6,5.4-2.4
						c17.9-9.2,37.5-13.8,58.3-13.8c15.2,0,30.8,2.3,48.1,7.2c17.9,5,35.6,12,52.8,18.7c6.7,2.7,13.7,5.4,20.6,8
						c1.8,0.7,3.3,1,4.7,1c2.4,0,4.7-1.1,7.5-3.7c20.7-19.2,45.4-31.3,73.6-36c7.2-1.2,14.8-1.6,21.4-2.1c1.5-0.1,2.8-0.1,4.3-0.1
						c16.5,0,32.3,5.5,51.4,17.7c10.3,6.6,14.2,15.3,11.6,25c-1.6,5.9-4.3,11.6-7.7,16.8c-8.6,12.7-17.5,25.5-26.2,37.7l-0.4,0.5
						c-2.4,3.4-4.9,7-7.3,10.4l-1,1.3c-1.8,2.7-3.8,5.5-6.2,8c-8.1,8.3-10.6,18.1-7.7,29.3c1.6,6.2,3.5,12.5,5.5,18.6
						c2.7,8.4,5.4,17.3,7.2,26.1c2.7,12.2,4.7,25,6.6,37.1c1,6.4,2.1,12.9,3.2,19.3c0.1,0.4,0.1,0.9,0.2,1.3c0.5,2.9,1,5.9,2.4,7.8
						c15.1,19,19.2,41,12.9,69.3c-6.1,27.8-23.4,46.9-52.6,58.4C454.7,467.4,446.2,468.7,435.5,468.7z M423.3,467.1
						c4,0.2,8.2,0.5,12.2,0.5v0.6v-0.6C431.5,467.5,427.3,467.4,423.3,467.1z M492.6,444.3c-8.1,7.7-18.4,14-30.7,18.8
						c-6.7,2.6-14.1,3.9-23.3,4.2c9.2-0.2,16.5-1.6,23.3-4.2C474.2,458.4,484.5,452.2,492.6,444.3z M414,465.8
						c0.7,0.5,1.2,0.7,1.8,0.9h0.6h-0.6c-0.5,0-1.1-0.4-1.6-0.7L414,465.8z M429.3,466.1c2.1,0.1,4.2,0.1,6.2,0.1
						c10.4,0,18.5-1.3,25.8-4.2c1.5-0.6,2.8-1.1,4.2-1.7c-0.5,0.2-1.1,0.4-1.6,0.6c-8.7,2.8-18.1,3.8-27.2,4.7l-1.2,0.1
						C433.6,466,431.6,466.1,429.3,466.1z M412.3,464.8L412.3,464.8c0.2,0.1,0.4,0.2,0.6,0.4L412.3,464.8
						C412.4,464.8,412.3,464.8,412.3,464.8L412.3,464.8z M418.7,464.8c0.4,0,0.7,0,1.1,0c2.3,0,4.5,0.1,6.7,0.1
						c-2.2,0-4.4,0-6.7-0.1C419.6,464.8,419.1,464.8,418.7,464.8z M438.6,464.3c-0.7,0.1-1.3,0.1-2,0.2h-0.1h0.1
						C437.2,464.4,438,464.3,438.6,464.3z M508.1,419.4c-2.7,5.9-6.1,11.5-10.3,16.6c-3.9,4.9-8.1,9.2-12.4,12.7
						C495.7,440.9,503.3,431.1,508.1,419.4z M506.4,420.4c-2.6,5.3-5.8,10.3-9.4,14.9c-1,1.2-2,2.4-3.1,3.5c1-1.1,2.1-2.3,3.1-3.5
						C500.6,430.6,503.8,425.6,506.4,420.4z M500.9,337.4c0,0.1,0.1,0.1,0.1,0.2c14.8,18.6,18.8,40.3,12.6,68.2
						c-1.6,7.1-3.9,13.6-7,19.6c3.1-6,5.4-12.5,7-19.6c6.1-27.9,2.2-49.6-12.6-68.2C501,337.5,500.9,337.4,500.9,337.4z
						 M500.4,338.7c0.1,0.2,0.2,0.4,0.4,0.6c8.2,11.4,12.9,24.5,14.3,37.8C514.2,362.7,509.3,350.1,500.4,338.7z M497.3,335.2
						c0.6,1.7,1.5,3.3,2.4,4.8c3.7,5,6.6,10.4,8.8,16c-2.2-5.6-5.1-11-8.8-16C498.7,338.5,497.9,336.9,497.3,335.2z M496.1,324
						c0.2,1.6,0.5,3.2,0.7,4.7c0.1,0.9,0.4,2,0.6,2.9c-0.1-0.7-0.2-1.6-0.4-2.3l-0.2-1.2C496.6,326.7,496.3,325.4,496.1,324z
						 M498.1,328.1l0.1,1C498.2,328.7,498.2,328.3,498.1,328.1z M492.6,294.3c0.9,4.8,1.6,9.5,2.3,14.3c0.7,4.3,1.3,8.6,2.1,12.9
						c-0.7-4.3-1.3-8.6-2.1-12.9C494.1,303.8,493.4,299.1,492.6,294.3z M473.7,224.5c0.4,3.3,1.1,6.6,2.2,10.2
						c0.9,2.7,1.7,5.4,2.4,8v0.1c2.9,9.5,6,19.3,8.7,29.1c0-0.1,0-0.1,0-0.2c-2-8.7-4.7-17.4-7.2-25.8c-2-6.1-3.8-12.5-5.5-18.7
						C474.1,226.4,473.9,225.4,473.7,224.5z M475,236.4c0.5,1.6,1,3.3,1.6,4.9C476.1,239.7,475.7,238,475,236.4z M499.2,175.2
						c-0.4,0.5-0.6,0.9-1,1.3c-2.6,3.5-5.1,7.2-7.6,10.8l-1,1.3c-1.8,2.7-3.8,5.4-6.1,7.8c-2.8,2.9-5,6-6.5,9.3
						c1.6-3.3,3.7-6.4,6.5-9.3c2.3-2.3,4.2-5.1,6.1-7.8l1-1.3c2.4-3.5,4.9-7,7.3-10.4l0.2-0.4C498.5,176,498.9,175.6,499.2,175.2z
						 M489.2,187.1c-1.7,2.2-3.4,4.3-5.1,6.4c-0.9,1.1-1.7,2.2-2.4,3.2c0.4-0.4,0.6-0.7,1-1.1c2.2-2.3,4.2-5,6-7.6L489.2,187.1z
						 M515.4,147.7c-1.1,1.6-2.1,3.2-3.2,4.8l-0.1,0.1c-5,7.5-10.2,15.2-15.5,22.6c5.4-7.5,10.5-15.2,15.5-22.6
						C513.2,150.8,514.3,149.2,515.4,147.7z M447.6,126.6c-19.7,13-31.6,28.2-32.9,42.1v-0.4C416.3,154.7,428.7,139.2,447.6,126.6z
						 M439.4,134.2c-12,9.7-20,20.3-22.5,30.2C422.9,152.5,430.4,142.4,439.4,134.2z M485.2,112.4c-5.4,1.2-10.8,2.7-15.9,4.7
						c-16.6,6.5-30.5,17-41.2,31.5c10.8-14.3,24.6-24.8,41.2-31.5C474.4,115.1,479.7,113.6,485.2,112.4z M515.3,106.4
						c5.8,0,9.9,2,12.7,5.9c4.5,6.5,1.8,12.5-0.7,18.4c-0.5,1.1-1,2.2-1.3,3.3c2.1-3.8,3.8-8,4.9-12c1.5-5.4,0.5-9.9-1.6-13.6
						l-3.1-0.6c-4-0.9-8.6-1.3-13.3-1.3c-10.9,0-23,2.3-35,6.6c7.7-2.1,15.7-3.4,23.5-4.7c2.1-0.4,4.2-0.7,6.2-1.1
						C510.1,106.8,512.6,106.4,515.3,106.4z M532.5,120.6c-0.1,0.5-0.2,1.1-0.4,1.6c-0.6,2.2-1.3,4.4-2.3,6.6
						c0.9-2.2,1.7-4.4,2.3-6.6C532.2,121.7,532.3,121.1,532.5,120.6z M367.6,124.9c-1.1,0.4-2.3,0.6-3.5,0.6
						C365.3,125.5,366.4,125.4,367.6,124.9z M363.3,125.5c0.2,0,0.5,0,0.7,0C363.8,125.5,363.5,125.5,363.3,125.5z M359.4,123.4
						c1.7,0.6,3.3,0.9,4.7,0.9c2.8,0,5.5-1.2,8.2-3.9c1.6-1.6,3.3-3.1,4.9-4.5c-1.5,1.3-2.9,2.6-4.4,4c-3.3,3.1-6,4.4-9.2,4.4
						C362.2,124.1,360.8,123.9,359.4,123.4z M349.1,118.2c3.2,1.2,6.2,2.4,9.4,3.5c2,0.7,3.5,1.1,5,1.1l0,0c-1.5,0-3.1-0.4-5-1.1
						C355.3,120.6,352.3,119.4,349.1,118.2z M395.7,103.8c-7.3,4.3-14.6,9.7-21.2,16C381.2,113.5,388.4,108,395.7,103.8z
						 M512.9,105.2c-16.4,0-35.5,5.3-53,14.4C477.3,110.4,496.5,105.2,512.9,105.2L512.9,105.2L512.9,105.2z M319.4,106.6
						c6.2,2.3,12.5,4.8,18.6,7.2c1.7,0.6,3.3,1.3,5,2c-1.7-0.6-3.3-1.3-4.9-2C331.8,111.4,325.6,109,319.4,106.6z M322,109
						c4.2,1.6,8.3,3.3,12.6,4.9C330.4,112.2,326.2,110.6,322,109z M307.4,104.6l4.9,2c6.2,2.4,12.5,4.9,18.8,7.3
						c-6.4-2.4-12.6-4.9-18.8-7.3L307.4,104.6z M526.8,112.8c0.1,0.1,0.1,0.2,0.2,0.2c0.1,0.1,0.1,0.2,0.2,0.4
						c-0.1-0.1-0.1-0.2-0.2-0.4C526.9,112.9,526.8,112.9,526.8,112.8z M163.9,109.6L163.9,109.6c0.4,0.2,0.7,0.5,1.1,0.7
						c-0.1-0.1-0.2-0.1-0.2-0.2L163.9,109.6l0.7-0.5C164.4,109.2,164.2,109.3,163.9,109.6L163.9,109.6z M170.4,108.8l-0.7,0.4
						c-0.1,0.1-0.4,0.1-0.5,0.2c0.1-0.1,0.4-0.1,0.5-0.2L170.4,108.8z M530.9,108.7c0.1,0.2,0.2,0.4,0.2,0.6
						C531,109.1,530.9,108.8,530.9,108.7L530.9,108.7z M169.8,107.6c-0.9,0.5-1.6,0.9-2.3,1.2l-0.7,0.5c0.9-0.4,1.6-0.7,2.3-1.2
						l1.2-0.6C170.1,107.5,169.9,107.6,169.8,107.6z M530.6,108.4L530.6,108.4c-2-3.7-5.1-7-9.7-9.8c-2.4-1.6-4.9-3.1-7.2-4.4
						c2.3,1.3,4.8,2.8,7.2,4.4C524.6,100.9,528.4,104.1,530.6,108.4z M174.7,106.8C174.6,106.9,174.6,106.9,174.7,106.8
						c-1.3,0.5-2.3,1-3.3,1.5C172.2,107.9,173.2,107.4,174.7,106.8C174.6,106.9,174.6,106.9,174.7,106.8z M169,106.6
						c-0.9,0.5-1.5,0.9-2.2,1.1l0,0C167.6,107.4,168.3,107.1,169,106.6z M524.3,106c0.7,0.1,1.5,0.2,2.2,0.4l0,0
						c-1.2-1-2.3-2-3.4-2.9c-1.1-0.9-2.1-1.8-3.2-2.7c1.1,0.9,2.2,1.8,3.2,2.7l0.2,0.2c0.5,0.4,1,0.9,1.5,1.2l1.7,1.5L524.3,106z
						 M519.4,98.9c1.5,1.2,2.9,2.4,4.4,3.7c1.1,1,2.3,2,3.4,2.9l0.2,0.2c-2.1-2.6-4.7-4.5-7.1-6.1C520,99.4,519.7,99.2,519.4,98.9z
						 M175.2,105.2l-0.1,0.1c0.4-0.1,0.7-0.2,1.1-0.5c3.2-1.2,6.4-2.7,9.4-4c7.5-3.3,15.2-6.7,23.3-8.3c10-1.8,20.2-2.8,30.4-2.8
						c8.8,0,17.7,0.7,26.8,2.1c-9.8-1.7-19.1-2.6-28.2-2.6c-20.7,0-39.3,4.4-57.2,13.6C179,103.6,177.1,104.4,175.2,105.2z
						 M174.6,104.1L174.6,104.1L174.6,104.1c0.9-0.4,1.7-0.7,2.4-1.1C176.3,103.3,175.4,103.7,174.6,104.1z M255.6,89.1
						c9.5,1.1,19.5,3.2,29.9,6.1c9.1,2.6,18,5.6,26.9,8.8c-8.9-3.3-17.9-6.2-26.9-8.8C274.9,92.2,265.1,90.2,255.6,89.1z
						 M438.8,85.5c-16.5,3.4-31.7,9.5-45.5,18.4c0.7-0.5,1.6-1,2.3-1.3C409.4,94.5,423.9,88.9,438.8,85.5z M240.4,91
						c20,0.1,40.5,4,61.2,11.4C280.9,94.9,260.4,91.1,240.4,91z M465.4,83.5c-6.1,0-12.5,0.6-18.8,1.7c-12.4,2.2-24.5,5.9-36.2,11.1
						c11.8-5.3,23.9-9.1,36.2-11.1C452.9,84,459.3,83.5,465.4,83.5z M224.7,91.6c-5.3,0.5-10.5,1.2-15.8,2.2c-1.5,0.2-2.8,0.6-4.3,1
						c1.3-0.4,2.8-0.7,4.3-1C214.1,92.8,219.4,92.1,224.7,91.6z M239.1,91c0.2,0,0.6,0,0.9,0C239.7,91,239.3,91,239.1,91z
						 M466.2,82.3c13.3,0.1,26.1,2.9,38.3,8.3c-12-5.8-23-8.4-34.3-8.4C468.9,82.2,467.6,82.2,466.2,82.3z M466.7,83.5
						c5.9,0.1,11.8,0.7,17.5,1.8C478.5,84.2,472.7,83.6,466.7,83.5z M470.3,80.9c-1.1,0-2.1,0-3.2,0.1
						C468.2,80.9,469.2,80.9,470.3,80.9z"/>
				</g>
			</g>
			<g>
				<g>
					<path d="M214.9,514.4c5.8,7.5,7.7,16,8.7,25c1.3,11.9,2.2,23.9,4.2,35.7c0.6,3.4,3.4,7.6,6.5,9.4c5.1,2.9,11.1,5.3,17,6.1
						c20.4,2.7,40.6,1.2,60-6.7c17.6-7.2,22.2-14,22.2-32.8c0-8.2,0.1-16.3-0.2-24.5c-0.1-4.4,1.6-6.7,5.8-8.1
						c15.5-4.9,31-10.2,46.5-14.8c17-5,32.4-12.4,44.7-25.7c3.5-3.9,9.1-6.2,13.6-9.3c0.4,0.4,0.7,0.7,1.1,1.1
						c-3.7,3.3-7.3,6.5-11.5,10.2c2,3.4,4,6.7,6,10.3c4.5,8.7,3.2,15.3-4.2,21.8c-12,10.6-26.9,14.9-42.1,18.1
						c-5.1,1.1-10.5,1.3-15.8,1.3c-7.7-0.1-14.4-7.3-15.2-15.7c0.6,0.2,1.3,0.4,1.5,0.6c3.9,10.9,12,13.8,22.8,12.4
						c15.1-2.2,29.5-6.4,42.4-14.7c12.5-8.1,13.7-15.3,5.6-27.7c-1-1.5-2-3.1-2.7-4.3c-7.3,4.8-14.7,9.3-21.7,14.2
						c-11.5,8.1-25.5,9.5-38.2,14.2c-10.5,3.8-21.3,6.7-31.8,10.4c-1.7,0.6-3.7,3.7-3.8,5.8c-0.2,9.5,0.4,19.1,0.2,28.8
						c-0.2,10.8-3.9,19.6-13.8,25.5c-14.1,8.3-29.3,12.5-45.3,12.9c-10.9,0.4-21.9-1.2-32.8-2.1c-1.2-0.1-2.3-0.6-3.5-1
						c-10.8-3.3-16.3-10.4-17-21.9C222.5,550.5,222.2,531.9,214.9,514.4z"/>
					<path d="M274.2,594.4c-6.7,0-13.7-0.6-20.3-1.2c-3.2-0.2-6.4-0.6-9.5-0.9c-1-0.1-1.8-0.4-2.7-0.7c-0.4-0.1-0.6-0.2-1-0.4
						c-10.9-3.3-16.6-10.6-17.4-22.4c-0.1-2-0.2-3.9-0.4-6c-1-16.2-2-32.8-8.3-48.3l-1.7-4.2l2.8,3.5c6.1,8,8,17.3,8.8,25.2
						c0.5,3.9,0.9,8,1.2,11.9c0.7,7.8,1.6,15.9,2.8,23.9c0.5,3.3,3.3,7.3,6.1,8.9c3.9,2.2,10,5.1,16.8,6c6.2,0.9,12.4,1.2,18.1,1.2
						c14.8,0,28.8-2.7,41.6-7.8c17.4-7.1,21.8-13.7,21.8-32.3c0-2.1,0-4.2,0-6.2c0-6,0-12.1-0.2-18.2c-0.1-4.7,1.7-7.2,6.1-8.7
						c5.8-1.8,11.5-3.7,17-5.5c9.7-3.2,19.6-6.4,29.5-9.3c20-5.9,33.7-13.8,44.4-25.6c2.6-2.8,6-4.8,9.3-6.6
						c1.5-0.9,3.1-1.7,4.4-2.7l0.4-0.2l1.8,2L434,480c0.5,0.9,1.1,1.8,1.6,2.7c1.3,2.3,2.8,4.8,4,7.2c4.7,8.8,3.3,15.8-4.3,22.5
						c-11.5,10.2-25.2,14.7-42.4,18.2c-4.2,0.9-8.8,1.3-14,1.3c-0.6,0-1.3,0-2,0c-8-0.1-14.9-7.5-15.8-16.3l-0.1-1l1,0.4
						c0.1,0.1,0.4,0.1,0.6,0.2c0.5,0.1,1.1,0.4,1.2,0.9c3.5,9.9,10.4,13.6,22.2,11.9c17.3-2.4,30.6-7.1,42.1-14.6
						c6.1-4,9.4-7.7,10.3-11.8c0.9-4-0.6-8.7-4.8-15.1c-0.7-1.1-1.3-2.1-2-3.1l-0.5-0.7c-2.1,1.3-4.2,2.7-6.4,4
						c-4.9,3.2-10,6.4-14.8,9.8c-7.8,5.5-16.9,8-25.7,10.4c-4.2,1.1-8.6,2.3-12.6,3.9c-5.4,2-11,3.7-16.4,5.4
						c-5.1,1.6-10.4,3.2-15.4,5c-1.5,0.5-3.3,3.3-3.3,5.1c-0.1,5,0,10,0.1,15.1c0.1,4.5,0.2,9.2,0.1,13.7
						c-0.2,12-4.9,20.4-14.2,25.9c-13.7,8.1-29,12.5-45.5,13C276.1,594.4,275.2,594.4,274.2,594.4z M217.4,519.3
						c4.8,14.2,5.6,29.1,6.6,43.6c0.1,2,0.2,3.9,0.4,6c0.7,11.3,6,18.1,16.5,21.3c0.4,0.1,0.6,0.2,1,0.4c0.9,0.2,1.6,0.6,2.4,0.6
						c3.2,0.2,6.5,0.5,9.5,0.9c7.6,0.7,15.5,1.5,23.1,1.2c16.3-0.5,31.5-4.8,45-12.9c9.1-5.4,13.3-13.2,13.6-25
						c0.1-4.5,0-9.2-0.1-13.7c-0.1-4.9-0.2-10-0.1-15.1c0-2.1,2-5.5,4.2-6.2c5.1-1.8,10.4-3.4,15.5-5c5.4-1.7,11-3.4,16.4-5.4
						c4.2-1.5,8.6-2.7,12.7-3.9c8.7-2.3,17.6-4.9,25.3-10.3c4.9-3.4,9.9-6.6,14.9-9.8c2.3-1.5,4.5-2.9,6.9-4.4l0.5-0.4l1.1,1.7
						c0.6,1,1.2,2,2,3.1c4.4,6.6,5.9,11.5,5,15.9c-1,4.4-4.3,8.3-10.8,12.5c-11.6,7.6-25.1,12.2-42.6,14.8c-1.8,0.2-3.5,0.4-5.1,0.4
						c-9.1,0-15.1-4.3-18.2-13c0,0-0.1,0-0.2-0.1c1.1,7.7,7.5,14.1,14.4,14.2c0.6,0,1.3,0,2,0c5,0,9.5-0.5,13.7-1.3
						c16.9-3.5,30.5-8,41.9-18c7.2-6.4,8.4-12.7,4-21.1c-1.2-2.4-2.7-4.8-4-7.1c-0.6-1.1-1.2-2.1-1.8-3.2l-0.2-0.5l11.4-10l-0.2-0.2
						c-1.3,0.9-2.7,1.7-4,2.4c-3.2,1.8-6.6,3.8-8.9,6.4c-10.9,12-24.8,20-44.9,25.9c-9.9,2.9-19.8,6.1-29.5,9.3
						c-5.6,1.8-11.4,3.7-17,5.5c-3.9,1.2-5.4,3.4-5.3,7.5c0.2,6.1,0.2,12.2,0.2,18.2c0,2.1,0,4.2,0,6.2c0.1,19.2-4.5,26.1-22.5,33.4
						c-13,5.3-27.1,8-42,8c-5.9,0-12.1-0.4-18.4-1.2c-7-1-13.2-3.9-17.3-6.1c-3.2-1.8-6.1-6.1-6.7-9.8c-1.3-8-2.1-16-2.9-24
						c-0.4-3.9-0.7-8-1.2-11.9C222.4,533.1,221.1,525.9,217.4,519.3z"/>
				</g>
				<g>
					<path d="M274.2,594.4c-6.7,0-13.7-0.6-20.3-1.2c-3.2-0.2-6.4-0.6-9.5-0.9c-1-0.1-1.8-0.4-2.7-0.7c-0.4-0.1-0.6-0.2-1-0.4
						c-10.9-3.3-16.6-10.6-17.4-22.4c-0.1-2-0.2-3.9-0.4-6c-1-16.2-2-32.8-8.3-48.3l-1.7-4.2l2.8,3.5c6.1,8,8,17.3,8.8,25.2
						c0.5,3.9,0.9,8,1.2,11.9c0.7,7.8,1.6,15.9,2.8,23.9c0.5,3.3,3.3,7.3,6.1,8.9c3.9,2.2,10,5.1,16.8,6c6.2,0.9,12.4,1.2,18.1,1.2
						c14.8,0,28.8-2.7,41.6-7.8c17.4-7.1,21.8-13.7,21.8-32.3c0-2.1,0-4.2,0-6.2c0-6,0-12.1-0.2-18.2c-0.1-4.7,1.7-7.2,6.1-8.7
						c5.8-1.8,11.5-3.7,17-5.5c9.7-3.2,19.6-6.4,29.5-9.3c20-5.9,33.7-13.8,44.4-25.6c2.6-2.8,6-4.8,9.3-6.6
						c1.5-0.9,3.1-1.7,4.4-2.7l0.4-0.2l1.8,2L434,480c0.5,0.9,1.1,1.8,1.6,2.7c1.3,2.3,2.8,4.8,4,7.2c4.7,8.8,3.3,15.8-4.3,22.5
						c-11.5,10.2-25.2,14.7-42.4,18.2c-4.2,0.9-8.8,1.3-14,1.3c-0.6,0-1.3,0-2,0c-8-0.1-14.9-7.5-15.8-16.3l-0.1-1l1,0.4
						c0.1,0.1,0.4,0.1,0.6,0.2c0.5,0.1,1.1,0.4,1.2,0.9c3.5,9.9,10.4,13.6,22.2,11.9c17.3-2.4,30.6-7.1,42.1-14.6
						c6.1-4,9.4-7.7,10.3-11.8c0.9-4-0.6-8.7-4.8-15.1c-0.7-1.1-1.3-2.1-2-3.1l-0.5-0.7c-2.1,1.3-4.2,2.7-6.4,4
						c-4.9,3.2-10,6.4-14.8,9.8c-7.8,5.5-16.9,8-25.7,10.4c-4.2,1.1-8.6,2.3-12.6,3.9c-5.4,2-11,3.7-16.4,5.4
						c-5.1,1.6-10.4,3.2-15.4,5c-1.5,0.5-3.3,3.3-3.3,5.1c-0.1,5,0,10,0.1,15.1c0.1,4.5,0.2,9.2,0.1,13.7
						c-0.2,12-4.9,20.4-14.2,25.9c-13.7,8.1-29,12.5-45.5,13C276.1,594.4,275.2,594.4,274.2,594.4z M217.4,519.3
						c4.8,14.2,5.6,29.1,6.6,43.6c0.1,2,0.2,3.9,0.4,6c0.7,11.3,6,18.1,16.5,21.3c0.4,0.1,0.6,0.2,1,0.4c0.9,0.2,1.6,0.6,2.4,0.6
						c3.2,0.2,6.5,0.5,9.5,0.9c7.6,0.7,15.5,1.5,23.1,1.2c16.3-0.5,31.5-4.8,45-12.9c9.1-5.4,13.3-13.2,13.6-25
						c0.1-4.5,0-9.2-0.1-13.7c-0.1-4.9-0.2-10-0.1-15.1c0-2.1,2-5.5,4.2-6.2c5.1-1.8,10.4-3.4,15.5-5c5.4-1.7,11-3.4,16.4-5.4
						c4.2-1.5,8.6-2.7,12.7-3.9c8.7-2.3,17.6-4.9,25.3-10.3c4.9-3.4,9.9-6.6,14.9-9.8c2.3-1.5,4.5-2.9,6.9-4.4l0.5-0.4l1.1,1.7
						c0.6,1,1.2,2,2,3.1c4.4,6.6,5.9,11.5,5,15.9c-1,4.4-4.3,8.3-10.8,12.5c-11.6,7.6-25.1,12.2-42.6,14.8c-1.8,0.2-3.5,0.4-5.1,0.4
						c-9.1,0-15.1-4.3-18.2-13c0,0-0.1,0-0.2-0.1c1.1,7.7,7.5,14.1,14.4,14.2c0.6,0,1.3,0,2,0c5,0,9.5-0.5,13.7-1.3
						c16.9-3.5,30.5-8,41.9-18c7.2-6.4,8.4-12.7,4-21.1c-1.2-2.4-2.7-4.8-4-7.1c-0.6-1.1-1.2-2.1-1.8-3.2l-0.2-0.5l11.4-10l-0.2-0.2
						c-1.3,0.9-2.7,1.7-4,2.4c-3.2,1.8-6.6,3.8-8.9,6.4c-10.9,12-24.8,20-44.9,25.9c-9.9,2.9-19.8,6.1-29.5,9.3
						c-5.6,1.8-11.4,3.7-17,5.5c-3.9,1.2-5.4,3.4-5.3,7.5c0.2,6.1,0.2,12.2,0.2,18.2c0,2.1,0,4.2,0,6.2c0.1,19.2-4.5,26.1-22.5,33.4
						c-13,5.3-27.1,8-42,8c-5.9,0-12.1-0.4-18.4-1.2c-7-1-13.2-3.9-17.3-6.1c-3.2-1.8-6.1-6.1-6.7-9.8c-1.3-8-2.1-16-2.9-24
						c-0.4-3.9-0.7-8-1.2-11.9C222.4,533.1,221.1,525.9,217.4,519.3z"/>
					<path d="M274.2,595c-6.9,0-13.7-0.6-20.4-1.2c-3.2-0.2-6.4-0.6-9.5-0.9c-1-0.1-2-0.4-2.9-0.7c-0.4-0.1-0.6-0.2-0.9-0.2
						c-11.3-3.4-17-10.9-17.9-22.9c-0.1-1.8-0.2-3.8-0.4-5.6v-0.4c-1-16-2-32.7-8.3-48.1l-3.4-8.4l5.5,7.2
						c6.2,8.1,8.1,17.5,8.9,25.6c0.5,3.9,0.9,8,1.2,11.9c0.7,7.8,1.6,15.9,2.8,23.9c0.5,3.2,3.2,7,5.9,8.6c3.9,2.2,9.9,5,16.6,5.9
						c6.1,0.9,12.2,1.2,18.1,1.2c14.7,0,28.6-2.7,41.4-7.8c17-7,21.4-13.5,21.4-31.7c0-2.1,0-4.2,0-6.2c0-6,0-12.1-0.2-18.2
						c-0.2-4.9,2-7.8,6.6-9.3c5.8-1.8,11.5-3.7,17-5.5c9.7-3.2,19.6-6.4,29.5-9.3c19.8-5.9,33.4-13.7,44.2-25.3
						c2.6-2.8,6-4.9,9.4-6.7c1.5-0.9,3.1-1.7,4.4-2.7l0.9-0.6l2.7,2.7l-11.6,10.3c0.5,0.7,0.9,1.5,1.3,2.3c1.3,2.3,2.8,4.8,4.2,7.2
						c4.8,9.2,3.4,16.3-4.5,23.3c-11.6,10.3-25.5,14.8-42.7,18.4c-4.2,0.9-8.9,1.3-14.1,1.3c-0.6,0-1.3,0-2,0
						c-8.2-0.1-15.5-7.7-16.4-16.8v-0.4c-1.7,0.6-3.4,1.1-5.1,1.6c-5.1,1.6-10.4,3.2-15.4,5c-1.2,0.5-2.9,3.1-2.9,4.7
						c-0.1,5,0,10,0.1,14.9c0.1,4.5,0.2,9.2,0.1,13.7c-0.2,12.2-4.9,20.8-14.4,26.4c-13.8,8.2-29.3,12.6-45.9,13.1
						C276.1,595,275.2,595,274.2,595z M291.2,592.3c-4.7,0.9-9.3,1.3-14.2,1.5c-0.5,0-1,0-1.3,0c0.5,0,1,0,1.3,0
						C281.9,593.7,286.7,593.2,291.2,592.3z M309.9,585.7c-8.1,3.1-16.6,5.3-25.6,6.4C293.3,591.1,301.9,589,309.9,585.7z
						 M244,591.7c0.1,0,0.2,0,0.4,0c1.3,0.1,2.6,0.2,3.9,0.4c-1.3-0.1-2.6-0.2-3.9-0.4C244.2,591.7,244.1,591.7,244,591.7z
						 M269.5,591.7c12.7,0,24.8-2,36.2-5.9C294.4,589.8,282.3,591.7,269.5,591.7z M225,551.1C225,551.1,225,551.2,225,551.1
						c0.7,8,1.6,16,2.9,24c0.6,3.5,3.4,7.6,6.5,9.4c3.9,2.3,10.2,5.1,17,6.1c4.4,0.6,8.7,1,12.9,1.1c-4.2-0.1-8.6-0.5-12.9-1.1
						c-6.9-0.9-13.1-3.8-17-6.1c-3.1-1.7-5.9-5.9-6.5-9.4C226.6,567.1,225.7,559,225,551.1C225,551.2,225,551.1,225,551.1z
						 M224.1,555.5c0.1,2.4,0.4,4.9,0.5,7.3v0.2c0.1,1.8,0.2,3.8,0.4,5.6c0.7,11,5.9,17.6,16.2,20.8c0.4,0.1,0.6,0.2,1,0.4
						c0.9,0.2,1.6,0.5,2.3,0.6c0.4,0,0.9,0.1,1.2,0.1c-4.8-1.3-8.9-3.4-11.9-5.1c-3.3-2-6.5-6.4-7.1-10.3
						C225.6,568.7,224.9,562.1,224.1,555.5z M323.3,580.3c-0.2,0.2-0.6,0.4-1,0.6c-5.4,3.2-11,5.8-16.8,7.8c5.9-2,11.5-4.7,16.8-7.8
						C322.7,580.7,323,580.5,323.3,580.3z M371.7,509.2c-5.1,1.6-10.3,3.3-15.3,4.9l-0.2,0.1c-5.5,1.8-11.1,3.7-16.8,5.4
						c-3.7,1.1-5,3.1-4.9,6.9c0.2,6.1,0.2,12.4,0.2,18.2c0,2.1,0,4.2,0,6.2c0,8.1-0.7,14.1-3.1,18.7c2.1-4,3.2-8.7,3.3-14.3
						c0.1-4.5,0-9.2-0.1-13.6c-0.1-4.9-0.2-10-0.1-15.1c0-2.3,2.2-6,4.5-6.9c5.1-1.8,10.4-3.4,15.5-5c5.4-1.7,11-3.4,16.4-5.4
						C371.4,509.3,371.5,509.2,371.7,509.2z M223.5,564.3c0.1,1.6,0.2,3.1,0.2,4.7c0,0.2,0,0.4,0,0.6c0-0.2,0-0.4,0-0.6
						C223.6,567.4,223.6,565.9,223.5,564.3z M336.2,547.2c0,2.7,0,5.5,0,8.2c0,0.1,0,0.4,0,0.5c0-0.1,0-0.4,0-0.5
						C336.2,552.7,336.2,550,336.2,547.2z M333.4,548.8c0,0.7,0,1.5,0,2.2c0,0.2,0,0.5,0,0.6c0-0.2,0-0.5,0-0.6
						C333.4,550.2,333.4,549.5,333.4,548.8z M333.4,545.3c0,0.7,0,1.5,0,2.2C333.4,546.8,333.4,546.1,333.4,545.3z M334.3,521.6
						c-0.9,1.2-1.1,2.9-1.1,4.9c0.2,5.4,0.2,10.9,0.2,16.3c0-5.4,0-10.9-0.2-16.3C333.2,524.5,333.6,522.9,334.3,521.6z M336,526.6
						v0.1c-0.1,2.9-0.1,6,0,9.1c0-2.9,0-6,0-9.1V526.6z M391.2,530.5c-3.7,0.6-7.7,1-11.9,1C383.5,531.5,387.5,531.1,391.2,530.5z
						 M367.3,527c2.7,2.7,6.2,4.4,9.9,4.4c0.6,0,1.3,0,2,0c-0.6,0-1.3,0-2,0C373.6,531.4,370.2,529.7,367.3,527z M367.3,525.1
						c2.6,3.1,6.2,5,9.9,5c0.4,0,0.9,0,1.2,0C373.9,529.8,370.2,528.1,367.3,525.1z M394.3,528.7c-2.1,0.4-4.2,0.7-6.4,1.1
						c1.7-0.2,3.3-0.5,4.9-0.7C393.3,528.8,393.8,528.7,394.3,528.7z M399.4,526.2c-4.2,1-8.6,1.8-13.2,2.4c-0.2,0-0.5,0.1-0.7,0.1
						c0.2,0,0.5-0.1,0.7-0.1C391,528.1,395.4,527.2,399.4,526.2z M362.9,514.7L362.9,514.7c0.6,0.2,1.3,0.5,1.7,1.2
						c2.9,8.1,8.2,11.9,16.5,11.9c1.6,0,3.2-0.1,5-0.4c17.1-2.4,30.4-7.1,41.9-14.4c6-3.9,9.2-7.5,10-11.4c0.9-3.9-0.6-8.4-4.7-14.6
						c-0.7-1.1-1.3-2.1-2-3.1l-0.1-0.1c-2,1.2-3.9,2.4-5.8,3.7c-4.9,3.2-10,6.4-14.8,9.8c-8,5.5-17,8.1-25.8,10.5
						c-4.2,1.1-8.6,2.3-12.6,3.8C369,512.8,366,513.7,362.9,514.7z M435.8,511.5c-0.2,0.1-0.4,0.4-0.6,0.5
						c-8.4,7.5-18.1,11.9-29.5,15.1c11.4-3.2,21.1-7.6,29.5-15.1C435.3,511.9,435.5,511.7,435.8,511.5z M214.9,514.4
						c1.6,3.8,2.8,7.7,3.8,11.6c-0.6-2.2-1.2-4.4-2-6.6l1.1-0.5c0.4,0.6,0.7,1.3,1,2C217.9,518.8,216.7,516.6,214.9,514.4
						L214.9,514.4z M429.9,514.6c-0.2,0.1-0.5,0.2-0.6,0.5c-6.6,4.3-13.8,7.7-22,10.3C415.7,522.8,423.2,519.5,429.9,514.6z
						 M341.8,520.2c-0.7,0.2-1.3,0.5-2.1,0.7c-0.9,0.4-1.8,1.2-2.4,2.3c0.7-1.1,1.6-2,2.4-2.3C340.4,520.7,341.1,520.5,341.8,520.2z
						 M360.7,514.2c-1.8,0.6-3.7,1.1-5.5,1.7c-0.5,0.1-1,0.2-1.5,0.5c0.5-0.1,1-0.2,1.5-0.5C357.1,515.3,358.9,514.9,360.7,514.2
						L360.7,514.2z M369.8,508.5c-4.7,1.5-9.3,2.9-13.8,4.4c-1.1,0.4-2.3,0.7-3.4,1.1c1.1-0.4,2.1-0.7,3.2-1l0.2-0.1
						C360.6,511.5,365.1,510,369.8,508.5z M361.2,514L361.2,514c3.4-1.1,7-2.2,10.4-3.5c0.5-0.1,0.9-0.4,1.3-0.5
						c-0.5,0.1-0.9,0.2-1.3,0.5C368.2,511.8,364.6,512.9,361.2,514z M439.1,502.2c-1,3.8-3.9,7.5-9.5,11.1
						C435.1,509.6,438.1,506.2,439.1,502.2z M386.1,506.2c-0.6,0.1-1.1,0.4-1.7,0.5c-2.7,0.7-5.5,1.5-8.3,2.4
						c2.8-0.9,5.5-1.6,8.3-2.4C384.8,506.5,385.5,506.4,386.1,506.2z M406.9,496.9c-6.1,3.1-13.1,5.8-20.9,8.1
						c-1.7,0.5-3.4,1-5.1,1.6c1.1-0.4,2.2-0.6,3.3-0.9C391.7,503.3,399.8,501.1,406.9,496.9z M431.8,480.5l1.5,2.2
						c0.6,1,1.3,2.1,2,3.1c4.4,6.7,6,11.9,5,16.4c-0.1,0.6-0.2,1.2-0.5,1.8c1.6-3.9,1.1-8.2-1.6-13.1c-1.2-2.4-2.7-4.9-4-7.1
						l-0.1-0.2c-0.6-1-1.1-2-1.7-2.9l-0.5-0.9l8.2-7.3c0,0-0.1,0-0.1,0.1c-3.2,1.8-6.5,3.8-8.8,6.4c-2.1,2.3-4.3,4.4-6.6,6.5
						c2.1-1.3,4.3-2.7,6.4-4L431.8,480.5z M414.7,493.1c-1.6,1.1-3.3,2.2-4.9,3.3c-2.8,2-5.8,3.5-8.8,4.9c3.1-1.3,6-2.9,8.8-4.9
						C411.4,495.3,413,494.2,414.7,493.1z M437.5,486.9c0.6,1.1,1.2,2.2,1.8,3.3c0.1,0.2,0.2,0.4,0.2,0.6c-0.1-0.2-0.2-0.4-0.2-0.6
						C438.7,489.1,438.1,488,437.5,486.9z M433.7,485.6c0.1,0.2,0.4,0.5,0.5,0.9c0.6,1,1.2,1.8,1.7,2.8c-0.5-0.9-1.1-1.8-1.7-2.8
						C434,486.2,433.9,485.8,433.7,485.6z M433.2,475.3c-1.1,0.9-2.1,1.7-3.1,2.7c-2.9,3.2-6,6-9.4,8.7c3.4-2.7,6.5-5.5,9.4-8.7
						C431.1,477,432.1,476,433.2,475.3z M433.4,480c0.6,1,1.1,2,1.7,2.9l0.1,0.2c0.2,0.5,0.6,1,0.9,1.5c-0.2-0.5-0.6-1-0.9-1.3
						c-0.6-1-1.1-1.8-1.6-2.7L433.4,480z M431.5,482.2c-0.6,0.4-1.2,0.7-1.8,1.2c0.5-0.2,0.9-0.6,1.3-0.9L431.5,482.2L431.5,482.2z
						 M433.4,480l11.5-10.2l-0.5-0.5l0.5,0.5L433.4,480z M441.9,469.9c-0.6,0.4-1.1,0.7-1.7,1C440.8,470.5,441.4,470.2,441.9,469.9z
						"/>
				</g>
			</g>
			<g>
				<g>
					<path d="M338,189c-1.3,0-2,0.1-2.1,0c-19.1-18.2-41.9-16.2-64.4-10.2c-27.2,7.3-45.8,24.7-51.5,53c-3.1,15.1-2.6,30.7,6.9,44.1
						c8.1,11.5,17,22.3,25.5,33.5c1.7,2.2,3.1,4.5,3.5,7.7c-5-5.9-10.4-11.5-15.2-17.6c-9.3-11.8-19.3-23.3-22.9-38.6
						c-6.2-27.4,2.1-51.3,22.6-68.9c18.2-15.7,41.1-21.7,65.7-19.1c10.4,1.1,20,4,27.8,11.3C335.3,185.5,336.2,187.1,338,189z"/>
					<path d="M256.7,319.1l-1.3-1.6c-1.6-1.8-3.2-3.7-4.8-5.4c-3.4-3.9-7.1-8-10.4-12.2c-0.9-1.1-1.8-2.2-2.7-3.4
						c-8.4-10.5-17.1-21.4-20.3-35.4c-6.2-27.3,1.7-51.3,22.9-69.5c15.3-13.2,33.9-19.8,55.3-19.8c3.5,0,7.2,0.2,10.8,0.6
						c12.1,1.2,21.1,4.9,28.2,11.5c1,0.9,1.7,1.8,2.7,3.1c0.5,0.6,1,1.2,1.5,1.8l0.9,1H338c-0.5,0-1,0-1.2,0s-0.4,0-0.5,0
						s-0.5,0-0.7-0.2c-10-9.5-22-14.2-36.4-14.2c-7.8,0-16.6,1.3-27.4,4.3c-28,7.5-45.7,25.7-51,52.5c-3.5,17.9-1.3,32.1,6.7,43.6
						c5.4,7.6,11.1,15.1,16.8,22.3c2.8,3.7,5.9,7.5,8.7,11.3c1.6,2.1,3.2,4.5,3.7,8.1L256.7,319.1z M295.4,172.9
						c-21.1,0-39.4,6.6-54.5,19.6c-20.8,17.9-28.5,41.5-22.4,68.4c3.1,13.6,11.8,24.5,20.1,34.9c0.9,1.1,1.8,2.2,2.7,3.4
						c3.3,4.2,6.9,8.2,10.4,12.1c1.1,1.2,2.1,2.4,3.2,3.5c-0.6-2.1-1.7-3.7-2.8-5.1c-2.8-3.8-5.8-7.6-8.7-11.3
						c-5.6-7.2-11.5-14.7-16.9-22.3c-8.3-11.9-10.6-26.4-7-44.6c5.5-27.3,23.5-45.8,52-53.4c10.9-2.9,19.7-4.3,27.8-4.3
						c14.7,0,26.8,4.8,37.1,14.6c0.1,0,0.2,0,0.5,0l0,0c-0.2-0.4-0.5-0.6-0.7-0.9c-0.9-1.1-1.7-2.1-2.6-2.9
						c-6.9-6.4-15.5-9.9-27.4-11.1C302.5,173.1,298.8,172.9,295.4,172.9z"/>
				</g>
				<g>
					<path d="M256.7,319.1l-1.3-1.6c-1.6-1.8-3.2-3.7-4.8-5.4c-3.4-3.9-7.1-8-10.4-12.2c-0.9-1.1-1.8-2.2-2.7-3.4
						c-8.4-10.5-17.1-21.4-20.3-35.4c-6.2-27.3,1.7-51.3,22.9-69.5c15.3-13.2,33.9-19.8,55.3-19.8c3.5,0,7.2,0.2,10.8,0.6
						c12.1,1.2,21.1,4.9,28.2,11.5c1,0.9,1.7,1.8,2.7,3.1c0.5,0.6,1,1.2,1.5,1.8l0.9,1H338c-0.5,0-1,0-1.2,0s-0.4,0-0.5,0
						s-0.5,0-0.7-0.2c-10-9.5-22-14.2-36.4-14.2c-7.8,0-16.6,1.3-27.4,4.3c-28,7.5-45.7,25.7-51,52.5c-3.5,17.9-1.3,32.1,6.7,43.6
						c5.4,7.6,11.1,15.1,16.8,22.3c2.8,3.7,5.9,7.5,8.7,11.3c1.6,2.1,3.2,4.5,3.7,8.1L256.7,319.1z M295.4,172.9
						c-21.1,0-39.4,6.6-54.5,19.6c-20.8,17.9-28.5,41.5-22.4,68.4c3.1,13.6,11.8,24.5,20.1,34.9c0.9,1.1,1.8,2.2,2.7,3.4
						c3.3,4.2,6.9,8.2,10.4,12.1c1.1,1.2,2.1,2.4,3.2,3.5c-0.6-2.1-1.7-3.7-2.8-5.1c-2.8-3.8-5.8-7.6-8.7-11.3
						c-5.6-7.2-11.5-14.7-16.9-22.3c-8.3-11.9-10.6-26.4-7-44.6c5.5-27.3,23.5-45.8,52-53.4c10.9-2.9,19.7-4.3,27.8-4.3
						c14.7,0,26.8,4.8,37.1,14.6c0.1,0,0.2,0,0.5,0l0,0c-0.2-0.4-0.5-0.6-0.7-0.9c-0.9-1.1-1.7-2.1-2.6-2.9
						c-6.9-6.4-15.5-9.9-27.4-11.1C302.5,173.1,298.8,172.9,295.4,172.9z"/>
					<path d="M257.5,321l-2.7-3.1c-1.6-1.8-3.2-3.7-4.8-5.4c-3.5-3.9-7.1-8-10.4-12.2c-0.9-1.1-1.7-2.2-2.6-3.2L237,297
						c-8.4-10.6-17.1-21.5-20.4-35.6c-6.2-27.5,1.7-51.8,23-70.1c15.4-13.2,34.1-20,55.7-20c3.5,0,7.2,0.2,10.9,0.6
						c12.2,1.2,21.3,5,28.4,11.6c1,0.9,1.8,2,2.7,3.1c0.5,0.6,1,1.2,1.5,1.8l1.7,2H338c-0.5,0-0.9,0-1.2,0c-0.2,0-0.4,0-0.5,0
						c-0.2,0-0.7,0-1.2-0.5c-9.9-9.4-21.8-14.1-36-14.1c-7.8,0-16.5,1.3-27.3,4.3c-27.8,7.5-45.3,25.5-50.7,52
						c-3.5,17.6-1.3,31.8,6.6,43.1c5.4,7.6,11.1,15.1,16.8,22.3c2.9,3.7,5.9,7.5,8.7,11.3c1.6,2.1,3.3,4.8,3.8,8.3L257.5,321z
						 M254.6,315.7c0.4,0.5,0.9,0.9,1.2,1.3l0,0L254.6,315.7z M246,306c1.5,1.7,2.9,3.4,4.4,5C249,309.3,247.5,307.7,246,306z
						 M223.5,273.1c4,8.1,9.8,15.3,15.4,22.3c0.9,1.1,1.8,2.2,2.7,3.4c3.1,3.9,6.5,7.8,9.8,11.5l-0.1-0.1c-2.8-3.8-5.8-7.6-8.7-11.3
						c-5.6-7.2-11.5-14.7-16.9-22.3C225,275.4,224.1,274.2,223.5,273.1z M251.7,308.6c0.2,0.2,0.4,0.6,0.6,0.9l0,0l0,0
						C252,309.1,251.8,308.9,251.7,308.6z M240.8,294.7c1,1.2,1.8,2.3,2.8,3.5c1.2,1.6,2.6,3.2,3.8,4.9c-1.2-1.6-2.4-3.2-3.7-4.8
						C242.7,297.1,241.8,295.9,240.8,294.7z M238.9,297.5c0.4,0.4,0.6,0.7,1,1.2C239.6,298.2,239.3,297.8,238.9,297.5z M222.3,268.1
						c1.2,2.7,2.7,5.4,4.5,7.8c1.3,1.8,2.6,3.7,3.9,5.5c-1.3-1.8-2.7-3.7-3.9-5.5C225,273.4,223.5,270.8,222.3,268.1z M228.8,206.4
						c-8.4,11.8-12.4,25.2-11.8,39.9c0.1-4.7,0.6-9.5,1.7-14.7C220.6,222.1,224,213.6,228.8,206.4z M276,177.6
						c-1.5,0.4-3.1,0.7-4.7,1.2c-28.3,7.6-46,25.9-51.5,53c-1,4.5-1.5,8.8-1.6,13c0.1-4,0.7-8.4,1.6-13c5.5-27.1,23.3-45.4,51.5-53
						C273,178.4,274.6,178,276,177.6z M234.2,198c-7.1,7.5-12.1,15.8-15.2,24.7C222,213.7,227.1,205.4,234.2,198z M295.4,172.3
						c-20,0-37.5,5.9-52.1,17.4C257.9,178.1,275.4,172.3,295.4,172.3z M337.1,187.9l0.9,1l-1.1,0.1c0.2,0,0.6,0,1.1,0l0,0
						C337.6,188.7,337.3,188.3,337.1,187.9z M334.8,185.1c0.6,0.6,1.1,1.3,1.7,2.1l0.1,0.2l-0.1-0.1
						C335.9,186.5,335.3,185.7,334.8,185.1z M293.3,173.6c-16.4,0.4-31,4.8-43.7,13.1c6.4-3.8,13.6-6.9,21.5-8.9
						C279.6,175.4,286.7,174.1,293.3,173.6z M319.4,176.9c4.2,1.6,8.1,3.8,11.8,6.5C327.7,180.6,323.8,178.5,319.4,176.9z
						 M299.4,174.6c9.1,0,17.1,2,24.5,5.8C316.7,176.5,308.5,174.6,299.4,174.6z M301.6,172.5c1.5,0.1,2.9,0.2,4.5,0.4
						c5.6,0.6,10.5,1.7,14.9,3.3c-4.4-1.7-9.3-2.8-14.9-3.3C304.5,172.7,303.1,172.6,301.6,172.5z"/>
				</g>
			</g>
			<g>
				<g>
					<path d="M190,505.9c2.7,8.9,0.5,15.5-6.1,18.8c-4,2-8.4,3.9-12.7,4c-13.6,0.6-27.3,1.3-40.9,0.4c-16-1.1-24.6-12.4-23.3-28.4
						c1.3-15.8,2.8-31.6,4.3-47.4c0.1-0.9,0.5-1.7,2.2-2.4c0,7,0.5,14-0.1,20.8c-0.7,9.3-2,18.6-3.7,27.8
						c-2.7,14.4,5.9,26.1,20.8,27.2c12.7,1,25.8,1.3,38.4-0.4C183.9,524.4,187.5,524,190,505.9z"/>
					<path d="M144.9,530.3c-5.3,0-10.2-0.1-14.7-0.5c-7.7-0.5-14-3.4-18.1-8.3c-4.4-5.1-6.4-12.4-5.6-20.8c1.3-15.3,2.8-31,4.2-46
						l0.1-1.3c0.1-1.3,0.9-2.3,2.6-2.9l0.9-0.4v0.9c0,2.1,0,4.3,0.1,6.5c0.1,4.8,0.2,9.7-0.2,14.4c-0.9,10.2-2.1,19.3-3.7,27.9
						c-1.3,6.9,0,13.3,3.7,18.2c3.7,4.8,9.5,7.7,16.5,8.3c7.2,0.6,13.5,0.9,19.2,0.9c7,0,13.2-0.4,19.1-1.2h0.4
						c14.3-2,17.7-2.4,20.1-20l0.4-2.8l0.9,2.7c2.8,9.1,0.4,16.2-6.5,19.6c-3.9,2-8.4,3.9-13,4.2h-0.7
						C162.1,529.8,153.4,530.3,144.9,530.3z M112.9,451.9c-0.7,0.5-0.9,1-1,1.5l-0.1,1.3c-1.3,15.1-2.8,30.7-4.2,46
						c-0.7,8.1,1.1,14.9,5.4,19.8c3.9,4.7,9.9,7.3,17.3,8c4.5,0.4,9.3,0.5,14.6,0.5c8.4,0,17.1-0.4,25.5-0.7h0.7
						c4.2-0.2,8.6-2.2,12.5-4c5.6-2.7,8-8.1,6.6-15.1c-2.6,15.4-6.9,16-20.7,17.9H169c-5.9,0.9-12.2,1.2-19.2,1.2l0,0
						c-5.8,0-12.1-0.2-19.3-0.9c-7.3-0.6-13.5-3.7-17.4-8.8c-3.9-5.1-5.3-11.9-3.9-19.2c1.6-8.6,2.8-17.6,3.7-27.8
						c0.4-4.8,0.2-9.7,0.2-14.3C113,455.5,112.9,453.8,112.9,451.9z"/>
				</g>
				<g>
					<path d="M144.9,530.3c-5.3,0-10.2-0.1-14.7-0.5c-7.7-0.5-14-3.4-18.1-8.3c-4.4-5.1-6.4-12.4-5.6-20.8c1.3-15.3,2.8-31,4.2-46
						l0.1-1.3c0.1-1.3,0.9-2.3,2.6-2.9l0.9-0.4v0.9c0,2.1,0,4.3,0.1,6.5c0.1,4.8,0.2,9.7-0.2,14.4c-0.9,10.2-2.1,19.3-3.7,27.9
						c-1.3,6.9,0,13.3,3.7,18.2c3.7,4.8,9.5,7.7,16.5,8.3c7.2,0.6,13.5,0.9,19.2,0.9c7,0,13.2-0.4,19.1-1.2h0.4
						c14.3-2,17.7-2.4,20.1-20l0.4-2.8l0.9,2.7c2.8,9.1,0.4,16.2-6.5,19.6c-3.9,2-8.4,3.9-13,4.2h-0.7
						C162.1,529.8,153.4,530.3,144.9,530.3z M112.9,451.9c-0.7,0.5-0.9,1-1,1.5l-0.1,1.3c-1.3,15.1-2.8,30.7-4.2,46
						c-0.7,8.1,1.1,14.9,5.4,19.8c3.9,4.7,9.9,7.3,17.3,8c4.5,0.4,9.3,0.5,14.6,0.5c8.4,0,17.1-0.4,25.5-0.7h0.7
						c4.2-0.2,8.6-2.2,12.5-4c5.6-2.7,8-8.1,6.6-15.1c-2.6,15.4-6.9,16-20.7,17.9H169c-5.9,0.9-12.2,1.2-19.2,1.2l0,0
						c-5.8,0-12.1-0.2-19.3-0.9c-7.3-0.6-13.5-3.7-17.4-8.8c-3.9-5.1-5.3-11.9-3.9-19.2c1.6-8.6,2.8-17.6,3.7-27.8
						c0.4-4.8,0.2-9.7,0.2-14.3C113,455.5,112.9,453.8,112.9,451.9z"/>
					<path d="M144.9,530.9c-5.4,0-10.2-0.1-14.7-0.5c-7.8-0.5-14.3-3.5-18.6-8.6c-4.5-5.3-6.5-12.6-5.8-21.2
						c1.3-15.3,2.8-30.8,4.2-45.9l0.1-1.5c0.1-1.6,1.1-2.7,2.9-3.4l1.7-0.7v1.8c0,2.1,0,4.2,0.1,6.4c0.1,4.9,0.2,9.8-0.2,14.7
						c-0.9,10.2-2.1,19.3-3.7,27.9c-1.2,6.7,0,13,3.5,17.7c3.5,4.7,9.3,7.5,16,8.1c7.2,0.6,13.5,0.9,19.2,0.9c7,0,13.1-0.4,19-1.2
						h0.4c14.3-2,17.3-2.3,19.6-19.5l0.7-5.5l1.6,5.4c2.9,9.4,0.4,16.8-6.9,20.2c-4,2-8.6,4-13.1,4.2h-0.7
						C162.1,530.4,153.4,530.9,144.9,530.9z M164.8,529c-6.6,0.2-13.3,0.5-19.8,0.5C151.5,529.7,158.2,529.4,164.8,529z
						 M117.9,525.5c3.4,2.1,7.6,3.3,12.4,3.5c2.1,0.1,4.2,0.2,6.4,0.4c-2.2-0.1-4.3-0.2-6.4-0.4
						C125.6,528.8,121.4,527.6,117.9,525.5z M176.1,526.6c-2,0.4-4.2,0.6-6.6,1h-0.4c-0.1,0-0.1,0-0.2,0c0.5,0,1,0,1.5-0.1h0.7
						C172.7,527.5,174.4,527.1,176.1,526.6z M146.8,527.6c1,0,2,0,2.9,0C148.7,527.6,147.8,527.6,146.8,527.6z M159.3,527.3
						c-2.9,0.1-6,0.2-9.3,0.2C153.3,527.6,156.3,527.6,159.3,527.3z M110.4,515.5c0.9,1.7,1.8,3.3,3.1,4.8c3.1,3.5,7.2,5.9,12.4,7
						c-5.4-1.3-10-4.2-13.1-8.3C111.8,517.9,111,516.7,110.4,515.5z M190,505.9c-2.4,18-6.2,18.5-20.6,20.4h-0.2h0.2
						c14-2,17.7-2.4,20.2-17.4L190,505.9L190,505.9L190,505.9z M109.2,505.2c0.1,4.9,1.6,9.4,4.3,13.1c2.1,2.8,4.9,4.9,8.3,6.4
						c-3.3-1.5-6.1-3.7-8.3-6.4C110.8,514.6,109.3,510.1,109.2,505.2z M189.9,513.5c-0.7,3.3-1.7,5.8-3.1,7.6
						C188.8,519.1,189.7,516.6,189.9,513.5z M112.4,455.9c-1.3,14.8-2.8,30-4,45c0,0.4-0.1,0.7-0.1,1.1c0.1-0.9,0.2-1.7,0.4-2.7
						c1.6-8.4,2.8-17.5,3.7-27.7c0.4-4.8,0.2-9.5,0.2-14.3C112.4,456.8,112.4,456.3,112.4,455.9z M113.6,460.5c0,3.8,0,7.6-0.2,11.3
						c-0.4,4.7-0.9,9.1-1.3,13.3c0.5-4.3,1-8.7,1.3-13.3C113.7,468,113.7,464.2,113.6,460.5z M111.4,453.3L111.4,453.3l-0.1,1.1
						L111.4,453.3L111.4,453.3z M113.5,451v0.9C113.5,451.6,113.5,451.2,113.5,451L113.5,451L113.5,451z"/>
				</g>
			</g>
			<g>
				<g>
					<path d="M273,304.9c-4.7-21.9,42.6-91.8,65.1-98C307.2,232.8,282.6,263,273,304.9z"/>
					<path d="M273,307.9l-0.6-2.7c-2.6-12.2,10.5-37.5,22.5-55.3c11.9-17.9,30.4-39.9,43.1-43.5l2.7-0.7l-2.2,1.8
						c-36.5,30.6-56.4,60.7-64.9,97.7L273,307.9z M335,208.7c-22.2,10.8-61,68.9-61.7,92.3C282.1,266.5,301.2,237.7,335,208.7z"/>
				</g>
				<g>
					<path d="M273,307.9l-0.6-2.7c-2.6-12.2,10.5-37.5,22.5-55.3c11.9-17.9,30.4-39.9,43.1-43.5l2.7-0.7l-2.2,1.8
						c-36.5,30.6-56.4,60.7-64.9,97.7L273,307.9z M335,208.7c-22.2,10.8-61,68.9-61.7,92.3C282.1,266.5,301.2,237.7,335,208.7z"/>
					<path d="M273,310.7l-1.1-5.5c-2.6-12.4,10.5-37.8,22.6-55.8c12-17.9,30.5-40.1,43.5-43.7l5.4-1.5l-4.3,3.7
						c-36.4,30.5-56.3,60.6-64.7,97.4L273,310.7z M273,304.8C273,304.9,273,304.9,273,304.8c0.2-1.1,0.6-2.3,0.9-3.5L273,304.8z
						 M286.7,264.2c-7.7,13.6-14.1,28-14,37.6v-0.6C273,292.1,278.6,278.4,286.7,264.2z M332.7,211.5c-31.9,28-50.1,55.7-58.6,89.1
						C282.6,267.4,300.9,239.5,332.7,211.5z M328.5,213.6c-4.8,3.7-9.9,8.8-15.1,14.8C318.1,223.4,323.1,218.5,328.5,213.6z
						 M334.9,208.1c-1.2,0.6-2.4,1.3-3.8,2.1c1.2-0.7,2.4-1.5,3.5-2.1H334.9z M338.1,206.9l-2.3,2
						C336.5,208.2,337.3,207.6,338.1,206.9L338.1,206.9z"/>
				</g>
			</g>
			<g>
				<g>
					<path d="M451.8,370.8c-12.5,10.5-15.7,25-17,40.1C432.1,394.4,439.7,376.3,451.8,370.8z"/>
					<path d="M435,415.8l-0.9-4.8c-2.8-16.9,4.9-35.3,17.4-40.9l3.9-1.8l-3.3,2.8c-12.7,10.8-15.5,25.5-16.8,39.8L435,415.8z
						 M447.3,374.3c-7.7,6.4-12.6,18.2-12.4,30.5C436.2,393.9,439.3,383.1,447.3,374.3z"/>
				</g>
				<g>
					<path d="M435,415.8l-0.9-4.8c-2.8-16.9,4.9-35.3,17.4-40.9l3.9-1.8l-3.3,2.8c-12.7,10.8-15.5,25.5-16.8,39.8L435,415.8z
						 M447.3,374.3c-7.7,6.4-12.6,18.2-12.4,30.5C436.2,393.9,439.3,383.1,447.3,374.3z"/>
					<path d="M435.3,420.7l-1.6-9.5c-2.9-17.3,5-35.9,17.7-41.5l8-3.5l-6.6,5.6c-12.5,10.6-15.3,25.2-16.5,39.4L435.3,420.7z
						 M434.3,404.8c0,2.1,0.2,4.2,0.6,6.1l0,0c0.2-2.7,0.5-5.5,1-8.2c-0.1,0.7-0.2,1.3-0.2,2.1H434.3z M446.9,373.8l0.9,0.9
						c-4.7,5.1-8,11.3-10,19c2.3-8.4,6.5-16.4,14.2-22.9l0,0l0,0C450.1,371.5,448.4,372.6,446.9,373.8z"/>
				</g>
			</g>
		</g>
		<g display="none">
			<g display="inline">
				<g>
					<path d="M110.5,158.9c18.5-18.1,36.4-37.5,59.9-49.2c2.1-1.1,0.2-4.3-1.8-3.2c-23.7,11.9-41.9,31.5-60.6,49.8
						C106.3,158.1,108.8,160.6,110.5,158.9L110.5,158.9z"/>
					<path d="M109.3,160.1L109.3,160.1c-1,0-2-0.6-2.3-1.6c-0.4-0.9-0.1-1.8,0.6-2.6c2.4-2.3,4.8-4.7,7.2-7.1
						c16.2-15.9,32.8-32.4,53.5-42.8c1.5-0.7,3.2,0.2,3.5,1.7c0.2,1.1-0.2,2-1.2,2.4c-20.3,10.2-36.7,26.3-52.5,42
						c-2.4,2.3-4.8,4.8-7.2,7.1C110.4,159.9,109.9,160.1,109.3,160.1z M169.3,106.9c-0.2,0-0.4,0-0.6,0.1
						c-20.7,10.3-37.2,26.7-53.2,42.6c-2.4,2.3-4.8,4.8-7.2,7.1c-0.5,0.5-0.4,0.9-0.2,1.2c0.4,0.9,1.3,1.2,2.1,0.5
						c2.4-2.3,4.8-4.8,7.2-7.1c15.9-15.7,32.3-31.9,52.8-42.2c0.6-0.4,0.6-0.7,0.6-1.1C170.5,107.5,170,106.9,169.3,106.9z"/>
				</g>
			</g>
		</g>
		<g display="none">
			<g display="inline">
				<g>
					<path d="M105.9,163.7c1.3-1.5,2.7-2.8,3.9-4.3c1.6-1.7-1-4.3-2.6-2.6c-1.3,1.5-2.7,2.8-3.9,4.3
						C101.7,162.8,104.3,165.4,105.9,163.7L105.9,163.7z"/>
					<path d="M104.7,164.8L104.7,164.8c-1,0-1.8-0.6-2.3-1.6c-0.4-0.9-0.2-1.8,0.5-2.6l3.9-4.3c0.5-0.5,1.1-0.7,1.7-0.7
						c1,0,1.8,0.6,2.3,1.6c0.4,0.9,0.2,1.8-0.5,2.6l-3.9,4.3C105.9,164.5,105.3,164.8,104.7,164.8z M108.5,156.8
						c-0.2,0-0.5,0.1-0.7,0.4l-3.9,4.3c-0.5,0.5-0.4,1-0.2,1.3c0.2,0.5,0.7,0.9,1.1,0.9l0,0c0.2,0,0.5-0.1,0.7-0.4l3.9-4.3
						c0.5-0.5,0.4-1,0.2-1.3C109.4,157.1,108.9,156.8,108.5,156.8z"/>
				</g>
			</g>
		</g>
		<g>
			<g>
				<g>
					<path d="M97.2,173.7c3.8-6.9,9.5-12.1,14.9-17.6c6-6.1,12.1-12.1,18.4-17.9c12.9-11.6,26.7-22,42-30.2c2.1-1.1,0.2-4.3-1.8-3.2
						c-14.9,8-28.5,18.1-41.1,29.3c-7,6.1-13.6,12.7-20.1,19.5c-5.6,5.8-11.5,11.3-15.5,18.4C92.9,174,96.1,175.8,97.2,173.7
						L97.2,173.7z"/>
					<path d="M95.7,175.2L95.7,175.2c-0.9,0-1.8-0.5-2.2-1.3c-0.4-0.7-0.4-1.6,0-2.3c3.5-6.2,8.4-11.3,13.3-16.2
						c0.7-0.7,1.6-1.6,2.3-2.3c5.4-5.5,12.5-12.7,20.1-19.5c14.1-12.5,27.5-22.2,41.2-29.4c1.5-0.7,3.2,0.1,3.5,1.7
						c0.2,1.1-0.1,2.1-1.2,2.6c-14.4,7.7-28.2,17.5-41.9,30.1c-6.2,5.6-12.4,11.8-18.4,17.9c-0.9,0.9-1.8,1.8-2.7,2.7
						c-4.4,4.5-9.1,9.2-12.2,14.8C97.3,174.8,96.6,175.2,95.7,175.2z M171.6,105.2c-0.2,0-0.4,0-0.6,0.1
						c-13.6,7.2-26.9,16.8-41,29.3c-7.6,6.7-14.7,13.8-20.1,19.3c-0.7,0.7-1.6,1.6-2.3,2.3c-4.8,4.9-9.8,9.9-13.1,15.9
						c-0.2,0.5-0.1,0.9,0,1.1c0.2,0.4,0.7,0.7,1.2,0.7l0,0c0.4,0,0.7-0.2,1-0.6c3.3-5.8,8-10.5,12.4-15.1c0.9-0.9,1.8-1.8,2.7-2.7
						c6-6.2,12.2-12.2,18.5-18c13.8-12.7,27.7-22.6,42.2-30.4c0.6-0.4,0.6-0.9,0.6-1.2C172.7,105.7,172.4,105.2,171.6,105.2z"/>
				</g>
			</g>
		</g>
		<g>
			<g>
				<g>
					<path d="M170.3,109.6h1.2c2.4,0,2.4-3.7,0-3.7h-1.2C167.8,105.9,167.8,109.6,170.3,109.6C170.3,109.6,167.8,109.6,170.3,109.6z
						"/>
					<path d="M172.1,109.6h-1.8v-0.2c-1.2-0.4-1.6-1.3-1.6-2.2c0-1.2,0.6-2.4,2.2-2.4h1.2c1.6,0,2.4,1.2,2.4,2.4
						S173.7,109.6,172.1,109.6z M170.9,105.9c-0.9,0-1.2,0.6-1.2,1.2s0.4,1.2,1.2,1.2h1.2c0.9,0,1.2-0.6,1.2-1.2s-0.4-1.2-1.2-1.2
						H170.9z"/>
				</g>
			</g>
		</g>
		<g>
			<g>
				<g>
					<path d="M173.3,108c0.2-0.4,0.6-0.7,1-1c0.7-0.6,0.6-2,0-2.6c-0.7-0.7-1.8-0.6-2.6,0c-0.4,0.2-0.7,0.6-1,1
						c-0.6,0.7-0.7,1.8,0,2.6C171.4,108.6,172.7,108.7,173.3,108L173.3,108z"/>
					<path d="M172.1,109.1L172.1,109.1c-0.7,0-1.3-0.2-1.8-0.7c-0.9-0.9-1-2.3,0-3.4c0.4-0.4,0.7-0.7,1.1-1.1c1.1-0.9,2.4-0.9,3.4,0
						c0.5,0.5,0.7,1.2,0.7,2c0,0.6-0.4,1.2-0.7,1.6c-0.4,0.2-0.6,0.5-0.9,0.9C173.3,108.8,172.7,109.1,172.1,109.1z M173.1,104.4
						c-0.4,0-0.7,0.1-1,0.4c-0.4,0.2-0.6,0.5-0.9,0.9c-0.2,0.2-0.7,1.1,0,1.8c0.2,0.2,0.6,0.4,1,0.4l0,0c0.2,0,0.5,0,0.7-0.2
						c0.4-0.4,0.7-0.7,1.1-1.1c0.2-0.1,0.2-0.5,0.2-0.6c0-0.4-0.1-0.9-0.4-1C173.6,104.6,173.3,104.4,173.1,104.4z"/>
				</g>
			</g>
		</g>
		<g id="right_nostril_-_stroke" display="none">
			<g display="inline">
				<g>
					<line fill="none" x1="460.4" y1="404.6" x2="460.4" y2="420.5"/>
					<rect x="460.4" y="404.6" width="1.2" height="15.9"/>
				</g>
			</g>
			<g display="inline">
				<g>
					<g>
						<path d="M459.1,405.8c0,0,0,11,0,15.9c0,2.4,3.7,2.4,3.7,0c0-4.9,0-9.8,0-15.9C462.8,403.3,459.1,403.3,459.1,405.8
							C459.1,405.8,459.1,403.3,459.1,405.8z"/>
						<path d="M461.6,423.5c-1.2,0-2.4-0.9-2.4-2.4v-16.5h0.2c1-2.4,4.7-2.2,4.7,0.6v15.9C464,422.7,462.8,423.5,461.6,423.5z
							 M460.4,405.2v15.9c0,0.9,0.6,1.2,1.2,1.2s1.2-0.4,1.2-1.2v-15.9c0-0.9-0.6-1.2-1.2-1.2S460.4,404.3,460.4,405.2z"/>
					</g>
				</g>
			</g>
		</g>
		<g id="left_nostril_-_stroke">
			<g>
				<g>
					<line fill="none" x1="482.4" y1="399.7" x2="482.4" y2="413.1"/>
					<rect x="482.4" y="399.7" width="1.2" height="13.5"/>
				</g>
			</g>
			<g>
				<g>
					<g>
						<path d="M481.2,400.9c0,0,0,8.6,0,13.5c0,1.2,3.7,1.2,3.7,0c0-4.9,0-8.6,0-13.5C484.8,398.4,481.2,398.4,481.2,400.9
							C481.2,400.9,481.2,398.4,481.2,400.9z"/>
						<path d="M483.6,415.3c-1.5,0-2.4-0.6-2.4-1.5v-14.2h0.2c1-2.4,4.7-2.2,4.7,0.6v13.5C486.1,414.6,485.1,415.3,483.6,415.3z
							 M482.4,400.3v13.5c0,0.1,0.5,0.2,1.2,0.2s1.2-0.2,1.2-0.4v-13.5c0-0.9-0.6-1.2-1.2-1.2S482.4,399.4,482.4,400.3z"/>
					</g>
				</g>
			</g>
		</g>
		<g id="left_nostril_-_stroke_1_">
			<g>
				<g>
					<line fill="none" x1="461.6" y1="405.8" x2="461.6" y2="419.3"/>
					<rect x="461.6" y="405.8" width="1.2" height="13.5"/>
				</g>
			</g>
			<g>
				<g>
					<g>
						<path d="M460.4,407c0,0,0,8.6,0,13.5c0,1.2,3.7,1.2,3.7,0c0-4.9,0-8.6,0-13.5C464,404.6,460.4,404.6,460.4,407
							C460.4,407,460.4,404.6,460.4,407z"/>
						<path d="M462.8,421.5c-1.5,0-2.4-0.6-2.4-1.5v-14.2h0.2c1-2.4,4.7-2.2,4.7,0.6v13.5C465.3,420.7,464.3,421.5,462.8,421.5z
							 M461.6,406.4v13.5c0,0.1,0.5,0.2,1.2,0.2s1.2-0.2,1.2-0.4v-13.5c0-0.9-0.6-1.2-1.2-1.2S461.6,405.5,461.6,406.4z"/>
					</g>
				</g>
			</g>
		</g>
		<g id="right_eye_-_stroke">
			<g>
				<ellipse cx="385.1" cy="323.5" rx="4.4" ry="14.9"/>
				<path d="M385.1,339.1c-3.3,0-5-8-5-15.5s1.7-15.5,5-15.5s5,8,5,15.5S388.4,339.1,385.1,339.1z M385.1,309.2
					c-1.6,0-3.8,5.4-3.8,14.3c0,8.8,2.2,14.3,3.8,14.3c1.6,0,3.8-5.4,3.8-14.3C388.9,314.7,386.7,309.2,385.1,309.2z"/>
			</g>
			<g>
				<path d="M385.1,339.1c-3.3,0-5-8-5-15.5s1.7-15.5,5-15.5s5,8,5,15.5S388.4,339.1,385.1,339.1z M385.1,309.2
					c-1.6,0-3.8,5.4-3.8,14.3c0,8.8,2.2,14.3,3.8,14.3c1.6,0,3.8-5.4,3.8-14.3C388.9,314.7,386.7,309.2,385.1,309.2z"/>
				<path d="M385.1,339.7c-3.9,0-5.6-8.3-5.6-16.2c0-7.7,1.7-16.2,5.6-16.2s5.6,8.3,5.6,16.2C390.7,331.3,389,339.7,385.1,339.7z
					 M385.1,309.8c-1,0-3.2,4.8-3.2,13.7s2.2,13.7,3.2,13.7s3.2-4.8,3.2-13.7S386.1,309.8,385.1,309.8z M385.1,308.6
					c2.4,0,4.4,6.7,4.4,14.9C389.5,315.3,387.5,308.6,385.1,308.6s-4.4,6.7-4.4,14.9C380.7,315.3,382.6,308.6,385.1,308.6z"/>
			</g>
		</g>
		<g id="left_eye-stroke">
			<g>
				<ellipse cx="443.8" cy="308.9" rx="4.4" ry="14.9"/>
				<path d="M443.8,324.4c-3.3,0-5-8-5-15.5c0-7.6,1.7-15.5,5-15.5s5,8,5,15.5C448.9,316.4,447.1,324.4,443.8,324.4z M443.8,294.5
					c-1.6,0-3.8,5.4-3.8,14.3c0,8.9,2.2,14.3,3.8,14.3c1.6,0,3.8-5.4,3.8-14.3C447.6,299.9,445.4,294.5,443.8,294.5z"/>
			</g>
			<g>
				<path d="M443.8,324.4c-3.3,0-5-8-5-15.5c0-7.6,1.7-15.5,5-15.5s5,8,5,15.5C448.9,316.4,447.1,324.4,443.8,324.4z M443.8,294.5
					c-1.6,0-3.8,5.4-3.8,14.3c0,8.9,2.2,14.3,3.8,14.3c1.6,0,3.8-5.4,3.8-14.3C447.6,299.9,445.4,294.5,443.8,294.5z"/>
				<path d="M443.8,325c-3.9,0-5.6-8.3-5.6-16.2s1.7-16.2,5.6-16.2s5.6,8.3,5.6,16.2S447.8,325,443.8,325z M443.8,295.1
					c-1,0-3.2,4.8-3.2,13.7c0,8.9,2.2,13.7,3.2,13.7s3.2-4.8,3.2-13.7C447,299.9,444.8,295.1,443.8,295.1z M443.8,293.9
					c2.4,0,4.4,6.7,4.4,14.9C448.2,300.7,446.3,293.9,443.8,293.9s-4.4,6.7-4.4,14.9C439.4,300.7,441.4,293.9,443.8,293.9z"/>
			</g>
		</g>
		<g>
			<g>
				<path d="M174.8,102.9c-0.1,0-0.2,0.1-0.5,0.1c-0.1,0-0.4,0.1-0.5,0.2l0,0c-0.5,0-0.9,0.1-1.1,0.4c-0.4,0-0.6,0.2-0.9,0.4
					C173,103.8,174.1,103.7,174.8,102.9z"/>
				<path d="M169.9,104.8l1.5-1.3c0.4-0.2,0.6-0.5,1-0.5c0.4-0.2,0.7-0.4,1.2-0.4c0.1-0.1,0.2-0.1,0.5-0.2c0,0,0.1,0,0.1-0.1
					l0.1-0.1l2.2-1L175,103c-0.9,1.1-2.2,1.2-3.3,1.3L169.9,104.8z"/>
			</g>
		</g>
		<g>
			<g>
				<path d="M185.1,98.4c-1.1,0.2-2.1,0.6-3.2,1.1c-0.1,0.1-0.2,0.1-0.4,0.2c-1.7,0.9-3.4,1.6-5.1,2.2c-0.6,0.2-1.1,0.4-1.6,0.6
					c-0.7,1-1.8,1.1-2.9,1.2c0,0-0.1,0-0.1,0.1c-0.1,0-0.1,0-0.2,0.1c-0.2,0.2-0.5,0.4-0.9,0.6c-0.1,0.1-0.1,0.2-0.2,0.4
					c-0.2,0.4-0.5,0.7-0.5,1.2c-0.5,0.1-1,0.2-1.5,0.2c-0.5,0.7-0.2,1.7,0.2,2.2c0.7,0.7,1.8,0.6,2.6,0c0.2-0.1,0.4-0.4,0.6-0.5
					c0.1,0,0.2,0,0.2,0l0,0c0.1,0,0.4,0,0.5,0c0.1,0,0.1,0,0.2,0l0,0c0.6-0.2,1.1-0.5,1.7-0.7l0,0c1.5-0.9,3.1-1.7,4.8-2.3
					c0.4-0.1,0.6-0.4,0.9-0.6c1-0.5,2-1,3.1-1.5c0.4-0.1,0.7-0.2,1.1-0.4h0.1c0,0,0,0,0.1,0c0.7-0.2,1.5-0.6,2.2-1.1
					c0.5-0.4,0.6-0.9,0.6-1.3C187.4,99.3,186.4,98.2,185.1,98.4z"/>
				<path d="M169.9,110c-0.6,0-1.2-0.2-1.7-0.7c-0.7-0.7-1-2.1-0.4-3.1l0.1-0.2h0.4c0.2,0,0.6,0,1-0.1c0.1-0.4,0.2-0.7,0.5-1.1
					c0.1-0.1,0.1-0.2,0.2-0.4l0.2-0.1c0.2-0.1,0.5-0.4,0.7-0.5l0.2-0.1h0.1l0.1-0.1h0.1c1.2-0.1,2-0.2,2.6-1l0.1-0.1h0.1
					c0.5-0.2,1.1-0.5,1.6-0.6c1.7-0.6,3.4-1.5,5-2.2c0.1-0.1,0.2-0.2,0.5-0.4c1.1-0.6,2.2-1,3.3-1.2c0.9-0.2,1.7,0,2.3,0.6
					c0.5,0.5,0.7,1.2,0.7,1.8s-0.2,1.3-0.9,1.7c-0.9,0.6-1.7,1-2.3,1.2c-0.1,0-0.1,0-0.2,0.1c-0.4,0.1-0.7,0.2-1.1,0.4
					c-0.9,0.5-1.8,1-2.8,1.3c-0.2,0.2-0.6,0.5-1,0.6c-1.5,0.6-3.1,1.3-4.7,2.3l-0.2,0.1c-0.5,0.2-1.1,0.5-1.6,0.7l-0.1,0.1
					c-0.1,0-0.2,0-0.2,0c-0.1,0-0.4,0-0.6,0l0,0H172c-0.1,0.1-0.2,0.2-0.4,0.2C171.1,109.7,170.5,110,169.9,110z M168.8,107.1
					c-0.1,0.4,0,1,0.4,1.2c0.5,0.5,1.2,0.5,1.8,0c0.2-0.1,0.5-0.4,0.7-0.5l0.2-0.1h0.2c0.1,0,0.1,0,0.2,0h0.1c0.1,0,0.1,0,0.2,0l0,0
					h0.1l0,0l0,0l0,0c0.5-0.2,1.1-0.5,1.6-0.7h0.1l0,0c1.7-1,3.2-1.7,4.8-2.3c0.2-0.1,0.5-0.2,0.6-0.4l0.2-0.1c1-0.5,2-0.9,2.9-1.5
					c0.5-0.1,0.9-0.2,1.2-0.4h0.1c1-0.4,1.5-0.6,2.1-1c0.2-0.2,0.4-0.5,0.4-0.7c0-0.4-0.1-0.7-0.4-1c-0.2-0.2-0.6-0.5-1.1-0.4
					c-1,0.2-2,0.6-3.1,1.1c-0.1,0-0.1,0.1-0.2,0.1l-0.1,0.1c-1.6,0.9-3.4,1.6-5.3,2.3c-0.5,0.1-1,0.4-1.5,0.6c-0.9,1-2,1.1-3.1,1.2
					l-0.1,0.1h-0.1l0,0c-0.2,0.1-0.5,0.4-0.7,0.5c0,0,0,0.1-0.1,0.1l-0.1,0.1c-0.1,0.2-0.2,0.5-0.2,0.9v0.5l-0.5,0.1
					C169.8,107,169.3,107,168.8,107.1z"/>
			</g>
		</g>
	</g>
</g>
<g id="Layer_2">
	<path fill="none" d="M604.9,10035.1"/>
	<path fill="none" d="M604.9-10017.7"/>
</g>
<g>
	<path d="M605.4,264.1h67.7v27h-18.4v113h-30.9v-113h-18.4V264.1z"/>
	<path d="M679.8,366.3v-66.7c0-11.7,3.1-20.7,9.4-27.1c6.3-6.4,15.8-9.7,28.4-9.9c13,0.2,22.7,3.5,29,9.9c6.3,6.4,9.4,15.5,9.4,27.1
		v66.7c0,5.7-0.7,10.9-2.2,15.5c-1.4,4.7-3.6,8.8-6.5,12.4c-2.9,3.6-6.9,6.4-11.9,8.4s-10.8,2.9-17.3,2.7
		c-6.9,0.2-12.8-0.7-17.8-2.7s-9-4.8-11.9-8.4c-2.9-3.6-5.1-7.8-6.5-12.4C680.5,377.2,679.8,372,679.8,366.3z M717.9,378
		c1.1,0,2.1-0.2,2.9-0.7c0.8-0.4,1.5-1.1,2-2c0.5-0.9,0.9-1.8,1.2-2.6c0.3-0.8,0.5-1.9,0.6-3.3c0.1-1.4,0.2-2.4,0.2-3.2
		c0-0.7,0-1.7,0-3c0-0.3,0-0.5,0-0.7v-56.2c0-0.4,0-1.1,0-2.1c0-1.1,0-1.8,0-2.4c0-0.5-0.1-1.3-0.1-2.3c0-1-0.1-1.8-0.3-2.4
		c-0.1-0.6-0.3-1.3-0.5-2.1c-0.2-0.8-0.5-1.5-0.8-1.9s-0.8-0.9-1.2-1.4c-0.5-0.5-1.1-0.8-1.8-1.1c-0.7-0.2-1.5-0.3-2.4-0.3
		c-1.2,0-2.3,0.2-3.2,0.6c-0.9,0.4-1.6,1.1-2.2,2c-0.5,0.9-1,1.7-1.3,2.5c-0.4,0.7-0.6,1.8-0.7,3.3c-0.1,1.4-0.2,2.5-0.2,3.1
		s0,1.7,0,3.1c0,0.2,0,0.4,0,0.6s0,0.4,0,0.5v56.2c0,1.3,0,2.3,0,3.1c0,0.8,0.1,1.9,0.2,3.3c0.1,1.5,0.3,2.7,0.7,3.6
		c0.3,0.9,0.7,1.9,1.3,2.9c0.5,1,1.2,1.7,2.2,2.2C715.6,377.8,716.7,378,717.9,378z"/>
	<path d="M813,404.1h-29.2v-46.1l-24.7-94h30.7l8.6,47.5l8.6-47.5h30.6l-24.6,94V404.1z"/>
	<path d="M886,404.1v-140h40.9c5.4,0,10.1,0.7,14.2,2.1s7.6,3.7,10.7,6.9c3.1,3.2,5.5,7.5,7.1,13.1c1.6,5.6,2.4,12.4,2.4,20.3
		c0,6.9-0.5,12.7-1.5,17.6c-1,4.9-2.6,9.2-5,13.1c-2.3,3.8-5.7,6.7-10,8.6c-4.3,1.9-9.6,2.9-15.9,2.9h-12.6v55.5H886z M916.4,289.6
		v33.8h1.8c1.6,0,2.9,0,3.7-0.1c0.8-0.1,1.8-0.3,3-0.6c1.1-0.3,2-0.8,2.5-1.6c0.6-0.7,1.1-1.7,1.7-3c0.6-1.3,1-2.9,1.2-4.9
		c0.2-2,0.3-4.4,0.3-7.2c0-6.2-0.8-10.4-2.4-12.8c-1.6-2.4-4.4-3.6-8.4-3.6H916.4z"/>
	<path d="M970.3,404.1v-140h29.9v140H970.3z"/>
	<path d="M1077.8,404.1l-5.3-11.9c-5.5,9-14,13.4-25.5,13.4c-22.3,0-33.5-14.4-33.5-43.3v-60.6c0-6.6,0.9-12.4,2.6-17.3
		s3.9-8.7,6.5-11.4c2.5-2.7,5.7-4.8,9.4-6.4s7-2.6,10.1-3c3-0.4,6.3-0.7,9.8-0.7c4.3,0,8.3,0.3,11.8,0.9s6.5,1.6,9.1,2.9
		c2.5,1.3,4.8,2.7,6.7,4.4c1.9,1.6,3.5,3.6,4.8,6c1.3,2.4,2.3,4.7,3.1,7c0.8,2.3,1.4,5.1,1.8,8.3c0.4,3.3,0.7,6.3,0.8,9.1
		c0.1,2.8,0.2,6.1,0.2,9.9h-29.5v-11.1c0-2.2-0.2-4.1-0.7-5.5c-0.5-1.5-1.1-2.5-2-3.1c-0.8-0.6-1.6-1-2.3-1.2
		c-0.7-0.2-1.5-0.3-2.4-0.3c-1.8,0-3.2,0.2-4.3,0.7c-1.1,0.5-1.9,1.1-2.5,1.8s-1.1,2-1.4,3.8c-0.3,1.8-0.5,3.6-0.5,5.2
		c-0.1,1.6-0.1,4.2-0.1,7.7v54.1c0,2.1,0.1,3.8,0.2,5.2c0.1,1.4,0.5,2.9,1,4.6c0.5,1.6,1.4,2.9,2.6,3.7c1.2,0.9,2.7,1.3,4.6,1.3
		c3.1,0,5.2-1.2,6.2-3.6c1-2.4,1.5-6.4,1.5-11.8v-16.2h-8.3v-24.2h37.4v81.6H1077.8z"/>
	<path d="M1220.6,343.8v26.5c0,12.2-3.5,21.1-10.4,26.9c-6.9,5.7-16.6,8.6-29,8.6c-11,0-20-3.1-26.9-9.4
		c-6.9-6.3-10.4-15.2-10.4-26.9v-65c0-13.9,3.1-24.3,9.2-31.2c6.1-6.9,15.7-10.3,28.8-10.3c5.3,0,10.3,0.7,14.8,2
		c4.5,1.3,8.5,3.3,12,5.8c3.5,2.6,6.2,6,8.2,10.2c2,4.2,3,9,3,14.5v24.7h-30.6v-16.3c0-8.4-2.5-12.6-7.4-12.6
		c-2.9,0-4.9,0.9-5.8,2.8c-0.9,1.8-1.4,4.4-1.4,7.7v66.2c0,2.9,0.7,5.4,2,7.5s3.1,3.2,5.2,3.2c2,0,3.7-0.8,5.2-2.3
		c1.5-1.6,2.2-4.3,2.2-8.3v-24.1H1220.6z"/>
	<path d="M1231.3,366.3v-66.7c0-11.7,3.1-20.7,9.4-27.1c6.3-6.4,15.8-9.7,28.4-9.9c13,0.2,22.7,3.5,29,9.9
		c6.3,6.4,9.4,15.5,9.4,27.1v66.7c0,5.7-0.7,10.9-2.2,15.5c-1.4,4.7-3.6,8.8-6.5,12.4c-2.9,3.6-6.9,6.4-11.9,8.4s-10.8,2.9-17.3,2.7
		c-6.9,0.2-12.8-0.7-17.8-2.7s-9-4.8-11.9-8.4c-2.9-3.6-5.1-7.8-6.5-12.4C1232,377.2,1231.3,372,1231.3,366.3z M1269.4,378
		c1.1,0,2.1-0.2,2.9-0.7c0.8-0.4,1.5-1.1,2-2c0.5-0.9,0.9-1.8,1.2-2.6c0.3-0.8,0.5-1.9,0.6-3.3c0.1-1.4,0.2-2.4,0.2-3.2
		c0-0.7,0-1.7,0-3c0-0.3,0-0.5,0-0.7v-56.2c0-0.4,0-1.1,0-2.1c0-1.1,0-1.8,0-2.4c0-0.5-0.1-1.3-0.1-2.3c0-1-0.1-1.8-0.3-2.4
		c-0.1-0.6-0.3-1.3-0.5-2.1c-0.2-0.8-0.5-1.5-0.8-1.9s-0.8-0.9-1.2-1.4c-0.5-0.5-1.1-0.8-1.8-1.1c-0.7-0.2-1.5-0.3-2.4-0.3
		c-1.2,0-2.3,0.2-3.2,0.6c-0.9,0.4-1.6,1.1-2.2,2c-0.5,0.9-1,1.7-1.3,2.5c-0.4,0.7-0.6,1.8-0.7,3.3c-0.1,1.4-0.2,2.5-0.2,3.1
		s0,1.7,0,3.1c0,0.2,0,0.4,0,0.6s0,0.4,0,0.5v56.2c0,1.3,0,2.3,0,3.1c0,0.8,0.1,1.9,0.2,3.3c0.1,1.5,0.3,2.7,0.7,3.6
		c0.3,0.9,0.7,1.9,1.3,2.9c0.5,1,1.2,1.7,2.2,2.2C1267.1,377.8,1268.2,378,1269.4,378z"/>
	<path d="M1318.6,404v-26.2h31.5V404H1318.6z"/>
</g>
</svg>
