<?xml version="1.0" encoding="utf-8"?>
<!-- Generator: Adobe Illustrator 18.0.0, SVG Export Plug-In . SVG Version: 6.00 Build 0)  -->
<!DOCTYPE svg PUBLIC "-//W3C//DTD SVG 1.1//EN" "http://www.w3.org/Graphics/SVG/1.1/DTD/svg11.dtd">
<svg version="1.1" xmlns="http://www.w3.org/2000/svg" xmlns:xlink="http://www.w3.org/1999/xlink" x="0px" y="0px"
	 viewBox="0 0 700 700" enable-background="new 0 0 700 700" xml:space="preserve">
<g id="Layer_1">
	<g id="Pig_Major">
		<g>
			<g>
				<g>
					<path d="M258.8,400.8c-23.5-9.1-44.4-22.1-62.3-39.8c-6.4-6.4-13.4-12.2-19.8-18.5c-5.2-5.2-11-10.2-14.7-16.4
						c-15-24.8-23.3-52-23.7-81c-0.2-15.2,1.7-30.4,3-45.6c1.2-13.6,4.3-26.8,9-39.7c4-11.1,10.6-20.6,16.9-30.2
						c2.4-3.7,5-7.3,7.7-10.8c0.7-1.2,1.5-2.5,2.4-3.6c0.9-1.5,2-3,3.3-4.3c0-0.1,0.1-0.1,0.1-0.2c2.4-3.3,5.2-6.3,8.1-9
						c1.3-1.6,2.7-3.1,4.1-4.7c0.9-2.4,2.4-4.5,4.2-6.3c-0.1,0-0.2,0.1-0.3,0.1c-1.4,1.8-3,3.3-4.8,4.4c0,0,0,0,0,0
						c-0.1,0.2-0.3,0.4-0.4,0.5c-0.3,0.4-0.6,0.7-1,1c-0.5,0.6-1.1,1.1-1.7,1.6c-0.2,0.2-0.4,0.3-0.6,0.5c-0.1,0-0.1,0.1-0.2,0.1
						c-1.6,1.8-3.2,3.5-4.7,5.2c-0.3,1.2-0.9,2.2-1.9,2.9c0,0-0.1,0.1-0.1,0.1c-1.1,1.5-2.5,2.9-4,4.1c-0.4,0.6-0.8,1.2-1.2,1.8
						c-0.4,0.8-0.9,1.4-1.5,2c-0.6,0.8-1.3,1.6-1.9,2.3c-4.3,6.3-8.1,13.1-12.7,19.2c-10.7,14.4-16,30.9-19,48.1
						c-2.2,12.8-3.1,25.9-4.6,38.9c-1.9,16.2-1.3,32.4,2.1,48.2c2.5,11.7,6.6,23.1,10.6,34.3c4.6,12.7,11.1,24.5,20.9,34.1
						c9.9,9.6,20,18.9,30.5,27.9c8.2,7.1,16.3,14.9,25.8,19.8c19,9.9,38.8,18.1,58.4,26.9c0.7,0.3,1.7-0.1,4.1-0.4
						C277.9,409.3,268.5,404.6,258.8,400.8z"/>
					<path d="M285.4,415.3c-0.3,0-0.6-0.1-0.8-0.2c-5.3-2.4-10.7-4.8-15.9-7.1c-14.1-6.2-28.6-12.6-42.4-19.8
						c-7.9-4.1-14.9-10.3-21.7-16.2c-1.4-1.2-2.8-2.5-4.2-3.7c-10.5-9-20.7-18.4-30.5-27.9c-9-8.8-15.9-20-21-34.3l0-0.1
						c-4-11.1-8.1-22.6-10.6-34.3c-3.4-15.7-4.1-32-2.1-48.4c0.5-4.3,0.9-8.7,1.4-12.9c0.9-8.6,1.7-17.4,3.2-26
						c3.5-20.1,9.6-35.5,19.1-48.3c2.8-3.7,5.3-7.7,7.7-11.5c1.6-2.5,3.2-5.1,5-7.7c0.6-0.7,1.3-1.5,2-2.3c0.6-0.6,1-1.2,1.4-1.9
						c0.4-0.6,0.8-1.2,1.2-1.8l0.1-0.1c1.7-1.4,3-2.7,3.9-4c0.1-0.1,0.1-0.1,0.1-0.2l0.1-0.1c0.8-0.6,1.4-1.5,1.7-2.6l0-0.1l1.7-1.9
						c1-1.1,2-2.3,3.1-3.5l0.3-0.2c0.2-0.1,0.4-0.3,0.6-0.4c0.6-0.5,1.2-1,1.7-1.5c0.3-0.3,0.6-0.7,0.9-1c0.1-0.1,0.2-0.2,0.3-0.4
						l0.3-0.3c1.6-1,3.2-2.4,4.7-4.3l0.1-0.1l2.8-0.9l-1.7,1.7c-2,1.9-3.3,3.9-4.1,6.1l-0.1,0.2c-1.4,1.6-2.8,3.2-4.1,4.7
						c-3.3,3.2-5.9,6-8.1,9l-0.2,0.3c-1.3,1.3-2.4,2.7-3.2,4.2c-0.9,1.2-1.7,2.4-2.3,3.6c-3.2,4.2-5.6,7.6-7.8,10.8l-1.9,2.9
						c-5.6,8.5-11.4,17.3-15,27.3c-5,13.6-7.9,26.6-9,39.6c-0.3,3.4-0.6,6.9-0.9,10.3c-1.1,11.6-2.2,23.5-2,35.3
						c0.4,28.4,8.4,55.5,23.7,80.7c3,5,7.4,9.2,11.7,13.3c1,1,2,1.9,3,2.9c3.2,3.2,6.6,6.3,9.9,9.3c3.3,3,6.7,6.1,9.9,9.3
						c17.4,17.3,37.7,30.3,62.1,39.7c6.6,2.6,13.1,5.6,20,8.8c3.3,1.5,6.6,3.1,10.1,4.7l1.8,0.8l-2,0.2c-0.9,0.1-1.6,0.2-2.1,0.3
						C286.2,415.3,285.8,415.3,285.4,415.3z M177.8,111.6c-0.4,0.6-0.7,1.2-1.1,1.7c-0.4,0.8-0.9,1.5-1.5,2.1
						c-0.6,0.8-1.3,1.6-1.9,2.3c-1.6,2.4-3.3,5-4.9,7.6c-2.4,3.9-5,7.9-7.7,11.6c-9.5,12.7-15.5,27.9-18.9,47.9
						c-1.5,8.6-2.4,17.4-3.2,25.9c-0.4,4.2-0.9,8.6-1.4,13c-1.9,16.3-1.2,32.5,2.1,48c2.5,11.6,6.6,23.1,10.5,34.1l0,0.1
						c5,14.1,11.8,25.2,20.7,33.9c9.7,9.5,20,18.9,30.4,27.8c1.4,1.2,2.8,2.5,4.2,3.7c6.7,5.9,13.7,12,21.4,16
						c13.8,7.2,28.3,13.6,42.4,19.8c5.2,2.3,10.6,4.7,15.9,7.1c0.3,0.1,0.8,0,1.6-0.1c0.1,0,0.2,0,0.3-0.1c-2.9-1.3-5.7-2.7-8.4-3.9
						c-6.8-3.2-13.3-6.3-19.9-8.8c-24.5-9.5-44.9-22.6-62.4-40c-3.2-3.2-6.6-6.3-9.9-9.3c-3.3-3-6.7-6.1-9.9-9.3c-1-1-2-1.9-3-2.9
						c-4.3-4.2-8.8-8.5-11.8-13.6c-15.4-25.4-23.4-52.7-23.8-81.3c-0.2-11.8,0.9-23.8,2-35.4c0.3-3.4,0.6-6.9,0.9-10.3
						c1.1-13.1,4.1-26.1,9.1-39.8c3.7-10.1,9.5-18.9,15.1-27.5l1.9-2.9c2.1-3.3,4.6-6.7,7.8-10.8c0.6-1.2,1.4-2.4,2.4-3.6
						c0.9-1.5,2-2.9,3.3-4.3c0.1-0.1,0.1-0.1,0.1-0.2c2.2-3,4.8-5.9,8.2-9.1c1.3-1.5,2.6-3,4-4.6c0.2-0.5,0.4-1,0.7-1.6
						c-0.2,0.2-0.5,0.3-0.7,0.5l0,0.1c-0.1,0.2-0.2,0.3-0.4,0.5c-0.3,0.4-0.6,0.7-1,1.1c-0.6,0.6-1.2,1.1-1.8,1.6
						c-0.2,0.2-0.4,0.3-0.6,0.5l-0.1,0.1c-1,1.2-2.1,2.3-3.1,3.4l-1.5,1.7c-0.4,1.3-1.1,2.3-2,3c0,0-0.1,0.1-0.1,0.1
						C180.9,108.8,179.6,110.2,177.8,111.6z"/>
				</g>
				<g>
					<path d="M285.4,415.3c-0.3,0-0.6-0.1-0.8-0.2c-5.3-2.4-10.7-4.8-15.9-7.1c-14.1-6.2-28.6-12.6-42.4-19.8
						c-7.9-4.1-14.9-10.3-21.7-16.2c-1.4-1.2-2.8-2.5-4.2-3.7c-10.5-9-20.7-18.4-30.5-27.9c-9-8.8-15.9-20-21-34.3l0-0.1
						c-4-11.1-8.1-22.6-10.6-34.3c-3.4-15.7-4.1-32-2.1-48.4c0.5-4.3,0.9-8.7,1.4-12.9c0.9-8.6,1.7-17.4,3.2-26
						c3.5-20.1,9.6-35.5,19.1-48.3c2.8-3.7,5.3-7.7,7.7-11.5c1.6-2.5,3.2-5.1,5-7.7c0.6-0.7,1.3-1.5,2-2.3c0.6-0.6,1-1.2,1.4-1.9
						c0.4-0.6,0.8-1.2,1.2-1.8l0.1-0.1c1.7-1.4,3-2.7,3.9-4c0.1-0.1,0.1-0.1,0.1-0.2l0.1-0.1c0.8-0.6,1.4-1.5,1.7-2.6l0-0.1l1.7-1.9
						c1-1.1,2-2.3,3.1-3.5l0.3-0.2c0.2-0.1,0.4-0.3,0.6-0.4c0.6-0.5,1.2-1,1.7-1.5c0.3-0.3,0.6-0.7,0.9-1c0.1-0.1,0.2-0.2,0.3-0.4
						l0.3-0.3c1.6-1,3.2-2.4,4.7-4.3l0.1-0.1l2.8-0.9l-1.7,1.7c-2,1.9-3.3,3.9-4.1,6.1l-0.1,0.2c-1.4,1.6-2.8,3.2-4.1,4.7
						c-3.3,3.2-5.9,6-8.1,9l-0.2,0.3c-1.3,1.3-2.4,2.7-3.2,4.2c-0.9,1.2-1.7,2.4-2.3,3.6c-3.2,4.2-5.6,7.6-7.8,10.8l-1.9,2.9
						c-5.6,8.5-11.4,17.3-15,27.3c-5,13.6-7.9,26.6-9,39.6c-0.3,3.4-0.6,6.9-0.9,10.3c-1.1,11.6-2.2,23.5-2,35.3
						c0.4,28.4,8.4,55.5,23.7,80.7c3,5,7.4,9.2,11.7,13.3c1,1,2,1.9,3,2.9c3.2,3.2,6.6,6.3,9.9,9.3c3.3,3,6.7,6.1,9.9,9.3
						c17.4,17.3,37.7,30.3,62.1,39.7c6.6,2.6,13.1,5.6,20,8.8c3.3,1.5,6.6,3.1,10.1,4.7l1.8,0.8l-2,0.2c-0.9,0.1-1.6,0.2-2.1,0.3
						C286.2,415.3,285.8,415.3,285.4,415.3z M177.8,111.6c-0.4,0.6-0.7,1.2-1.1,1.7c-0.4,0.8-0.9,1.5-1.5,2.1
						c-0.6,0.8-1.3,1.6-1.9,2.3c-1.6,2.4-3.3,5-4.9,7.6c-2.4,3.9-5,7.9-7.7,11.6c-9.5,12.7-15.5,27.9-18.9,47.9
						c-1.5,8.6-2.4,17.4-3.2,25.9c-0.4,4.2-0.9,8.6-1.4,13c-1.9,16.3-1.2,32.5,2.1,48c2.5,11.6,6.6,23.1,10.5,34.1l0,0.1
						c5,14.1,11.8,25.2,20.7,33.9c9.7,9.5,20,18.9,30.4,27.8c1.4,1.2,2.8,2.5,4.2,3.7c6.7,5.9,13.7,12,21.4,16
						c13.8,7.2,28.3,13.6,42.4,19.8c5.2,2.3,10.6,4.7,15.9,7.1c0.3,0.1,0.8,0,1.6-0.1c0.1,0,0.2,0,0.3-0.1c-2.9-1.3-5.7-2.7-8.4-3.9
						c-6.8-3.2-13.3-6.3-19.9-8.8c-24.5-9.5-44.9-22.6-62.4-40c-3.2-3.2-6.6-6.3-9.9-9.3c-3.3-3-6.7-6.1-9.9-9.3c-1-1-2-1.9-3-2.9
						c-4.3-4.2-8.8-8.5-11.8-13.6c-15.4-25.4-23.4-52.7-23.8-81.3c-0.2-11.8,0.9-23.8,2-35.4c0.3-3.4,0.6-6.9,0.9-10.3
						c1.1-13.1,4.1-26.1,9.1-39.8c3.7-10.1,9.5-18.9,15.1-27.5l1.9-2.9c2.1-3.3,4.6-6.7,7.8-10.8c0.6-1.2,1.4-2.4,2.4-3.6
						c0.9-1.5,2-2.9,3.3-4.3c0.1-0.1,0.1-0.1,0.1-0.2c2.2-3,4.8-5.9,8.2-9.1c1.3-1.5,2.6-3,4-4.6c0.2-0.5,0.4-1,0.7-1.6
						c-0.2,0.2-0.5,0.3-0.7,0.5l0,0.1c-0.1,0.2-0.2,0.3-0.4,0.5c-0.3,0.4-0.6,0.7-1,1.1c-0.6,0.6-1.2,1.1-1.8,1.6
						c-0.2,0.2-0.4,0.3-0.6,0.5l-0.1,0.1c-1,1.2-2.1,2.3-3.1,3.4l-1.5,1.7c-0.4,1.3-1.1,2.3-2,3c0,0-0.1,0.1-0.1,0.1
						C180.9,108.8,179.6,110.2,177.8,111.6z"/>
					<path d="M285.4,415.9c-0.4,0-0.7-0.1-1-0.2c-5.3-2.4-10.7-4.8-15.9-7.1c-14.1-6.2-28.6-12.6-42.5-19.8
						c-8-4.2-15-10.3-21.8-16.3l-0.1-0.1c-1.4-1.2-2.7-2.4-4.1-3.6c-10.5-9-20.7-18.4-30.5-27.9c-9.1-8.9-16-20.2-21.1-34.5l0-0.1
						c-4-11.1-8.1-22.6-10.6-34.3c-3.4-15.7-4.1-32.1-2.2-48.6c0.5-4.3,0.9-8.7,1.4-12.9c0.9-8.6,1.7-17.4,3.2-26
						c3.5-20.2,9.6-35.6,19.2-48.6c2.7-3.7,5.3-7.7,7.7-11.5c1.6-2.5,3.2-5.1,5-7.7c0.7-0.8,1.3-1.5,2-2.4c0.6-0.6,1-1.1,1.3-1.8
						c0.5-0.7,0.8-1.3,1.2-1.9l0.2-0.2c1.7-1.4,3-2.7,3.9-4c0.1-0.2,0.1-0.2,0.2-0.2l0.1-0.1c0.8-0.6,1.3-1.4,1.5-2.3l0.1-0.3l1.8-2
						c1-1.1,2-2.3,3.1-3.5l0.3-0.3c0.2-0.1,0.4-0.3,0.6-0.4c0.6-0.5,1.1-1,1.6-1.5c0.3-0.3,0.6-0.7,0.9-1c0.1-0.1,0.2-0.2,0.2-0.3
						l0.4-0.5c1.6-1,3.1-2.3,4.5-4.2l0.2-0.3l5.2-1.7l-3.5,3.3c-1.9,1.8-3.2,3.8-3.9,5.9l-0.1,0.3c-1.5,1.7-2.8,3.3-4.2,4.8
						c-3.4,3.2-5.9,6-8.1,9l-0.2,0.3c-1.3,1.3-2.4,2.7-3.2,4.1c-1,1.2-1.7,2.4-2.3,3.5c-3.2,4.2-5.7,7.6-7.8,10.9l-1.9,2.9
						c-5.6,8.5-11.4,17.3-14.9,27.2c-4.9,13.6-7.9,26.5-9,39.4c-0.3,3.4-0.6,6.9-0.9,10.3c-1.1,11.6-2.2,23.6-2,35.3
						c0.4,28.3,8.4,55.3,23.6,80.5c3,4.9,7.3,9.1,11.6,13.2c1,1,2,2,3,2.9c3.2,3.2,6.6,6.2,9.8,9.2c3.3,3,6.7,6.1,10,9.3
						c17.3,17.2,37.6,30.2,61.9,39.6c6.7,2.6,13.1,5.6,20,8.9c3.2,1.5,6.6,3.1,10.1,4.7l3.7,1.7l-4,0.4c-0.9,0.1-1.5,0.2-2.1,0.3
						C286.3,415.8,285.8,415.9,285.4,415.9z M280.8,412.9c1.3,0.6,2.7,1.2,4,1.8c0.4,0.2,0.9,0.1,1.7,0c-0.5,0.1-0.8,0.1-1.1,0.1
						l0,0c-0.2,0-0.4,0-0.6-0.1C283.5,414.1,282.1,413.5,280.8,412.9z M285.7,412.9c0.5,0.2,1,0.5,1.5,0.7l1.6,0.7l-1.5,0.3
						c0.5-0.1,1-0.2,1.6-0.2C287.8,413.8,286.7,413.3,285.7,412.9z M258.4,401.8c3.6,1.6,7.3,3.2,10.9,4.8c2.6,1.1,5.3,2.4,8.1,3.6
						C270.9,407.1,264.7,404.2,258.4,401.8C258.4,401.8,258.4,401.8,258.4,401.8z M205.2,371.9c6.7,5.8,13.5,11.8,21.3,15.9
						c12.5,6.5,25.6,12.4,38.3,18c-12.8-5.6-25.9-11.5-38.3-18C218.7,383.8,211.8,377.8,205.2,371.9z M150.8,306.9
						c5,13.4,11.6,24.1,20.2,32.4c9.7,9.5,20,18.9,30.4,27.8c1.4,1.2,2.8,2.5,4.2,3.7c6.7,5.9,13.6,11.9,21.3,16
						c2.4,1.2,4.8,2.5,7.2,3.7c-14.2-7.9-26.9-17.4-38.4-28.8c-3.2-3.2-6.6-6.2-9.8-9.2c-3.4-3.1-6.8-6.2-10-9.3
						c-1-0.9-1.9-1.9-2.9-2.8c-4.4-4.3-8.9-8.6-12-13.7C157.1,320.1,153.7,313.6,150.8,306.9z M213.2,375.5
						c4.5,3.5,9.2,6.7,14.1,9.7C222.4,382.2,217.7,379,213.2,375.5z M202.7,369.8c0.7,0.6,1.4,1.2,2.1,1.8l0.1,0.1
						C204.1,371,203.4,370.4,202.7,369.8z M188.8,353.6c2.3,2.1,4.7,4.3,6.9,6.5C193.4,357.9,191.1,355.7,188.8,353.6z M158,324.6
						c3.5,5.9,7.6,11,12.2,15.5c6.5,6.4,13.3,12.7,20.2,18.9c-6.9-6.2-13.7-12.5-20.2-18.9C165.6,335.6,161.5,330.5,158,324.6z
						 M177.9,343.5c1.5,1.5,3.1,2.9,4.6,4.4C180.9,346.4,179.4,345,177.9,343.5z M173.6,339.3c0.1,0.1,0.1,0.1,0.2,0.1
						c0.5,0.5,1,1,1.5,1.5c-0.5-0.5-1-1-1.5-1.4C173.7,339.4,173.7,339.4,173.6,339.3z M163.7,328.6c2.7,3.7,6.1,7,9.4,10.3
						C169.8,335.6,166.4,332.3,163.7,328.6z M140.8,204.5c-0.2,1.6-0.3,3.3-0.5,4.9l0,0.2c-1.1,11.6-2.2,23.6-2,35.3
						c0.4,23.9,6,46.9,16.9,68.6c-10.8-21.7-16.5-44.7-16.9-68.6c-0.2-11.8,0.9-23.7,2-35.3C140.4,208,140.6,206.2,140.8,204.5z
						 M139.8,203.2c-0.3,2.5-0.5,5-0.8,7.4c-0.4,4.2-0.9,8.6-1.4,13c-1.9,16.3-1.2,32.4,2.1,47.9c0,0.1,0.1,0.3,0.1,0.4
						c-1.7-8.8-2.6-17.8-2.7-26.9c-0.2-11.8,0.9-23.8,2-35.4l0-0.2C139.4,207.3,139.6,205.3,139.8,203.2z M143.5,173.3
						c-0.9,3.6-1.7,7.4-2.4,11.3c-1.5,8.6-2.4,17.4-3.2,25.9c-0.4,4.3-0.9,8.6-1.4,13c-0.1,0.7-0.2,1.4-0.2,2.2
						c0.1-0.7,0.2-1.4,0.2-2.2c0.5-4.3,0.9-8.7,1.4-12.9c0.9-8.5,1.7-17.4,3.2-25.9C141.8,180.7,142.6,176.9,143.5,173.3z
						 M158.6,140.6c-7.1,10.5-12,22.8-15.2,38c1.5-6.3,3.4-12.8,5.8-19.3C151.6,152.6,155,146.5,158.6,140.6z M165.9,131.3l-0.6,1
						c-5.6,8.5-11.4,17.4-15.1,27.4c-1.3,3.6-2.5,7.1-3.5,10.6c1-3.5,2.2-7,3.5-10.6c3.6-10,9.4-18.8,15.1-27.4L165.9,131.3z
						 M162.8,132.8c-0.9,1.2-1.7,2.5-2.6,3.7c-0.1,0.1-0.1,0.2-0.2,0.3c0.1-0.1,0.1-0.2,0.2-0.3C161.1,135.3,162,134.1,162.8,132.8z
						 M175,118.6c-2.6,3.3-4.6,6.2-6.5,8.9C170.3,124.7,172.4,121.9,175,118.6C175,118.6,175,118.6,175,118.6L175,118.6z M171.1,120
						c-1.1,1.6-2.1,3.3-3.2,4.9c-0.4,0.7-0.9,1.4-1.4,2.1c0.5-0.7,0.9-1.4,1.4-2.1C168.9,123.3,170,121.6,171.1,120z M174.6,116.9
						c-0.3,0.4-0.6,0.8-1,1.1c-0.7,1.1-1.4,2.2-2.2,3.3c0.8-1.1,1.6-2.2,2.6-3.4C174.2,117.6,174.4,117.3,174.6,116.9z M173.8,116.2
						c-0.3,0.4-0.7,0.8-1,1.2c0,0,0,0,0,0C173.2,117,173.5,116.6,173.8,116.2z M177.3,115c-0.1,0.1-0.2,0.3-0.3,0.4
						C177.1,115.3,177.2,115.1,177.3,115C177.3,115,177.3,115,177.3,115z M176.1,113.4c-0.3,0.6-0.8,1.2-1.3,1.7c0,0,0,0,0,0
						C175.3,114.6,175.7,114,176.1,113.4z M180.4,111c-1.2,1.2-2.2,2.5-3,3.8C178.2,113.5,179.3,112.2,180.4,111z M178.2,110.6
						c-0.2,0.2-0.5,0.4-0.8,0.6l-0.1,0.1c-0.3,0.5-0.7,1.1-1.2,1.8c0,0,0,0,0,0c0.4-0.6,0.8-1.2,1.2-1.8l0.1-0.1
						C177.7,111,178,110.8,178.2,110.6z M189.3,101c-0.1,0.2-0.3,0.3-0.4,0.5c-3.4,3.2-6,6.1-8.2,9.1c0,0-0.1,0.1-0.1,0.2l0,0
						l0.1-0.2c2.2-3,4.8-5.9,8.2-9.1C189,101.4,189.1,101.2,189.3,101z M188.2,98.8l-0.1,0.1c-1,1.1-2,2.3-3,3.4l-0.7,0.8l0.7-0.8
						c1-1.1,2-2.3,3.1-3.4L188.2,98.8z M189.3,99.3c-0.1,0.1-0.2,0.2-0.4,0.3l-0.1,0.1c-0.7,0.8-1.4,1.6-2.2,2.4
						c0.4-0.4,0.9-0.9,1.4-1.3C188.5,100.3,188.9,99.8,189.3,99.3z M188.8,98.3c-0.1,0.1-0.3,0.2-0.4,0.3
						C188.5,98.5,188.7,98.4,188.8,98.3z M193.5,95.6c-0.2,0.4-0.3,0.8-0.5,1.2l-0.1,0.2c-0.4,0.5-0.8,0.9-1.2,1.4
						c0.4-0.5,0.8-1,1.2-1.4l0-0.1C193.1,96.3,193.3,95.9,193.5,95.6z M191.6,95.7c-0.2,0.2-0.4,0.5-0.6,0.7
						C191.1,96.1,191.4,95.9,191.6,95.7z M194.6,93.3l-0.9,1.8c0.8-1.5,1.9-3,3.4-4.5l-0.3,0.1c-1.3,1.6-2.6,2.9-4,3.9L194.6,93.3z"
						/>
				</g>
			</g>
			<g>
				<g>
					<path d="M555.5,48.4c-14.8-9.6-30.7-16.7-49-15.6c-6.3,0.4-12.7,0.8-19,1.8c-24.8,4.1-46.7,14.8-65.1,31.9
						c-4.1,3.8-7.2,4.4-11.9,2.6c-21.7-8.1-43-17.5-65.3-23.8c-31.6-8.9-63.6-9.8-94.1,5.8c-1.6,0.8-3.2,1.5-4.9,2.2
						c-0.1,0.1-0.2,0.2-0.4,0.3c-1.2,0.9-2.7,1.5-4.2,1.8c-0.7,0.4-1.4,0.8-2.1,1.1c-0.9,0.5-1.8,1.1-2.7,1.6
						c0.6,0.4,1.2,0.8,1.8,1.3c1.6-0.8,3.1-1.5,4.5-2.2c1-0.6,2.1-1.1,3.2-1.5c0.6-0.3,1.2-0.5,1.8-0.8c9.6-3.8,19-9.1,28.9-11
						c30-5.6,59.3-1.5,87.7,9.6c15.2,5.9,30.4,11.9,45.6,17.7c4.9,1.9,8.8,1.5,13.2-2.8c6.2-6,13.2-11.5,20.6-15.8
						c13.9-8,28.8-13.5,44.8-16.3c22-3.8,42.3-0.4,61.3,11c3.6,2.2,6.7,5.3,10,8c-37.7-8.1-98.8,26.3-99.7,57.1
						c1.1-1.3,1.8-2.8,2.5-4.3c10-20.2,25.3-35.3,46.2-43.4c10.8-4.2,22.8-5.7,34.4-7.7c6-1,13-1.8,17.1,4.1c4.6,6.6,0,12.8-2.3,19
						c-0.1,0.2-0.2,0.3-0.3,0.5c-12.1,17.3-23.2,35.4-36.5,51.6c-9.9,12-12,23.7-7.6,37.8c4.6,14.7,9.4,29.5,12.8,44.5
						c2.9,12.9,3.8,26.2,5.9,39.2c0.6,3.4,1.7,7.1,3.7,9.9c18.3,25.7,17.2,60.5-2.6,85c-8.1,10.1-17.8,17.9-29.8,21.9
						c-8,2.6-16.6,3.4-25.1,4.3c-6.5,0.7-13.2,0.1-20.6,0.1c1.4,0.8,2.2,1.6,3.1,1.6c13.8,0.9,28,2.2,41-3
						c23.7-9.3,40.5-25.1,46.3-51.3c4.9-22.2,3.3-42.5-11.3-60.9c-1.7-2.2-2.1-5.7-2.6-8.6c-2.9-16.8-5.1-33.7-8.8-50.3
						c-2.9-13.5-7.9-26.5-11.4-39.8c-2.7-10.2-0.3-19.4,7.2-27.1c2.4-2.5,4.3-5.4,6.3-8.2c10.1-14.4,20.4-28.7,30.2-43.4
						c3-4.4,5.4-9.5,6.8-14.7C568,60.1,562.9,53.1,555.5,48.4z"/>
					<path d="M479.3,378.2C479.3,378.2,479.3,378.2,479.3,378.2c-5.2,0-10.5-0.4-15.7-0.7l-2-0.1c-0.7,0-1.3-0.4-2.1-0.9
						c-0.4-0.2-0.8-0.5-1.3-0.8l-1.9-1h2.1c2.4,0,4.6,0.1,6.8,0.1c2.1,0,4.1,0.1,6.1,0.1c2.9,0,5.3-0.1,7.6-0.3l1.1-0.1
						c8-0.8,16.3-1.6,23.9-4.1c11.1-3.7,20.8-10.8,29.6-21.7c19.6-24.4,20.6-59.1,2.6-84.4c-2.3-3.2-3.3-7.3-3.8-10.1
						c-0.8-4.9-1.4-10-2-14.9c-1-8-2-16.3-3.8-24.3c-2.8-12.5-6.7-25-10.5-37.2c-0.8-2.4-1.5-4.9-2.3-7.3
						c-4.5-14.6-2.1-26.4,7.7-38.3c9.3-11.3,17.7-23.8,25.8-35.9c3.5-5.2,7.1-10.5,10.7-15.7c0.1-0.1,0.1-0.2,0.2-0.4
						c0.5-1.3,1-2.5,1.6-3.8c2.2-5,4.3-9.8,0.8-14.8c-2.2-3.1-5.4-4.6-10-4.6c-2.2,0-4.5,0.3-6.6,0.7c-1.9,0.3-3.7,0.6-5.6,0.9
						c-9.7,1.6-19.6,3.2-28.7,6.7c-20.1,7.9-35.6,22.4-45.9,43.2l-0.2,0.3c-0.7,1.4-1.4,2.8-2.5,4.1l-1,1.2l0-1.6
						c0.4-13.2,11.4-27.7,30.3-40c18.2-11.8,39.8-18.9,57.8-18.9c3.5,0,6.9,0.3,10.1,0.8c-0.5-0.4-1-0.9-1.5-1.3
						c-2.2-1.9-4.4-3.8-6.8-5.3c-13.7-8.3-28.6-12.4-44.2-12.4c-5.4,0-11.1,0.5-16.8,1.5c-15.5,2.7-30.5,8.2-44.6,16.3
						c-7.1,4.1-14.2,9.5-20.5,15.7c-2.8,2.7-5.5,4-8.5,4c-1.6,0-3.3-0.4-5.2-1.1c-13.7-5.3-27.7-10.7-41.1-15.9l-4.5-1.8
						c-20.5-8-40.9-12-60.6-12c-9,0-18,0.8-26.8,2.5c-7,1.3-13.8,4.3-20.4,7.3c-2.8,1.2-5.6,2.5-8.5,3.7c-0.6,0.2-1.2,0.5-1.8,0.8
						c-1.3,0.5-2.2,1-3.1,1.5l-1.2,0.6c-1.1,0.5-2.1,1.1-3.3,1.6l-0.3,0.2l-0.3-0.2c-0.5-0.5-1.1-0.9-1.7-1.3l-0.7-0.5l0.8-0.4
						c0.7-0.4,1.4-0.9,2.1-1.3l0.6-0.3c0.7-0.3,1.3-0.6,2.1-1.1l0.2-0.1c1.4-0.2,2.8-0.8,4-1.7c0.1-0.1,0.1-0.1,0.2-0.2l0.3-0.2
						c1.8-0.7,3.4-1.4,4.8-2.2c15.9-8.1,33.3-12.3,51.7-12.3c13.5,0,27.5,2.1,42.8,6.4c16,4.5,31.7,10.7,47,16.7
						c6,2.4,12.2,4.8,18.3,7.1c1.7,0.6,3,0.9,4.3,0.9c2.4,0,4.5-1,7.1-3.5c18.3-17.1,40.3-27.9,65.4-32c6.4-1.1,13.1-1.5,19.1-1.8
						c1.2-0.1,2.5-0.1,3.8-0.1c14.6,0,28.7,4.9,45.6,15.8c8.9,5.8,12.4,13.3,10.1,21.7c-1.4,5.1-3.8,10.3-6.8,14.8
						c-7.6,11.4-15.6,22.7-23.4,33.7c-2.3,3.2-4.5,6.4-6.8,9.7l-0.9,1.2c-1.7,2.4-3.4,4.9-5.5,7c-7.3,7.5-9.7,16.5-7.1,26.6
						c1.5,5.6,3.2,11.2,4.9,16.6c2.3,7.6,4.8,15.4,6.5,23.2c2.4,11,4.2,22.2,5.9,33.1c0.9,5.7,1.8,11.5,2.8,17.2
						c0.1,0.4,0.1,0.8,0.2,1.2c0.4,2.7,0.9,5.4,2.3,7.2c13.3,16.8,17,36.3,11.4,61.3c-5.5,24.6-20.7,41.5-46.7,51.7
						C496.2,377,488.7,378.2,479.3,378.2z M460.5,375.8c0.5,0.3,0.9,0.5,1.2,0.5l2,0.1c5.1,0.3,10.4,0.7,15.6,0.7c0,0,0,0,0,0
						c9.3,0,16.7-1.2,23.2-3.8c25.6-10.1,40.6-26.7,46-50.9c5.5-24.7,1.9-43.9-11.2-60.4c-1.6-2-2.1-5.1-2.6-7.7
						c-0.1-0.4-0.1-0.8-0.2-1.1c-1-5.7-1.9-11.6-2.8-17.3c-1.7-10.9-3.5-22.1-5.9-33.1c-1.7-7.8-4.1-15.6-6.5-23.1
						c-1.7-5.4-3.4-11.1-4.9-16.7c-2.8-10.5-0.3-19.8,7.3-27.7c2-2.1,3.7-4.5,5.4-6.9l0.9-1.3c2.3-3.2,4.5-6.4,6.8-9.7
						c7.8-11,15.8-22.4,23.4-33.7c3-4.5,5.3-9.5,6.7-14.5c2.8-10-3.7-16.7-9.6-20.5c-16.7-10.8-30.6-15.6-45-15.6
						c-1.2,0-2.5,0-3.7,0.1c-5.9,0.4-12.6,0.8-18.9,1.8C462.8,39.3,441,50,422.9,66.9c-2.8,2.6-5.2,3.7-7.8,3.7
						c-1.4,0-2.9-0.3-4.7-1c-6.1-2.3-12.3-4.7-18.3-7.1c-15.2-6-31-12.2-46.9-16.7c-15.2-4.3-29.1-6.4-42.5-6.4
						c-18.5,0-35.2,4-51.2,12.1c-1.4,0.7-3,1.4-4.8,2.2l-0.1,0.1c-0.1,0.1-0.2,0.1-0.3,0.2c-1.3,1-2.8,1.6-4.4,1.8
						c-0.8,0.5-1.5,0.8-2.1,1.1l-0.5,0.3c-0.5,0.3-0.9,0.6-1.4,0.9c0.3,0.2,0.6,0.4,0.8,0.7c1-0.5,2-1,3-1.5l1.2-0.6
						c0.9-0.5,1.9-1,3.2-1.5c0.6-0.3,1.2-0.5,1.8-0.8c2.8-1.1,5.7-2.4,8.5-3.6c6.6-3,13.5-6,20.6-7.3c8.9-1.7,18-2.5,27-2.5
						c19.9,0,40.4,4.1,61,12.1l4.5,1.8c13.5,5.3,27.4,10.7,41.1,15.9c1.8,0.7,3.4,1,4.8,1c2.7,0,5.2-1.2,7.7-3.7
						c6.5-6.4,13.5-11.7,20.8-15.9c14.3-8.2,29.4-13.7,45-16.4c5.8-1,11.5-1.5,17-1.5c15.8,0,30.8,4.2,44.7,12.6
						c2.5,1.5,4.8,3.5,7,5.4c1,0.9,2,1.8,3.1,2.6l1.8,1.4l-2.2-0.5c-3.7-0.8-7.7-1.2-12-1.2c-17.8,0-39.2,7-57.2,18.7
						c-17.4,11.3-28.3,25.1-29.7,37.2c0.4-0.7,0.8-1.5,1.2-2.3l0.2-0.3c10.5-21,26.1-35.7,46.5-43.7c9.1-3.6,19.2-5.2,28.9-6.8
						c1.9-0.3,3.7-0.6,5.6-0.9c2.1-0.4,4.4-0.7,6.8-0.7c4.9,0,8.5,1.6,10.9,5c3.9,5.5,1.6,10.7-0.7,15.8c-0.5,1.2-1.1,2.5-1.5,3.7
						c-0.1,0.2-0.2,0.4-0.3,0.6c-3.6,5.2-7.2,10.5-10.7,15.7c-8.1,12.1-16.5,24.6-25.9,35.9c-9.6,11.6-11.9,23.2-7.5,37.3
						c0.8,2.4,1.5,4.9,2.3,7.3c3.8,12.1,7.7,24.7,10.6,37.2c1.8,8,2.9,16.4,3.9,24.4c0.6,4.9,1.2,9.9,2,14.8
						c0.4,2.8,1.4,6.7,3.6,9.7c18.3,25.7,17.3,60.9-2.6,85.7c-8.9,11.1-18.8,18.3-30.1,22.1c-7.7,2.5-16,3.4-24.1,4.2l-1.1,0.1
						c-2.3,0.2-4.7,0.3-7.7,0.3c-2,0-4.1,0-6.2-0.1C463.8,375.8,462.1,375.8,460.5,375.8z"/>
				</g>
				<g>
					<path d="M479.3,378.2C479.3,378.2,479.3,378.2,479.3,378.2c-5.2,0-10.5-0.4-15.7-0.7l-2-0.1c-0.7,0-1.3-0.4-2.1-0.9
						c-0.4-0.2-0.8-0.5-1.3-0.8l-1.9-1h2.1c2.4,0,4.6,0.1,6.8,0.1c2.1,0,4.1,0.1,6.1,0.1c2.9,0,5.3-0.1,7.6-0.3l1.1-0.1
						c8-0.8,16.3-1.6,23.9-4.1c11.1-3.7,20.8-10.8,29.6-21.7c19.6-24.4,20.6-59.1,2.6-84.4c-2.3-3.2-3.3-7.3-3.8-10.1
						c-0.8-4.9-1.4-10-2-14.9c-1-8-2-16.3-3.8-24.3c-2.8-12.5-6.7-25-10.5-37.2c-0.8-2.4-1.5-4.9-2.3-7.3
						c-4.5-14.6-2.1-26.4,7.7-38.3c9.3-11.3,17.7-23.8,25.8-35.9c3.5-5.2,7.1-10.5,10.7-15.7c0.1-0.1,0.1-0.2,0.2-0.4
						c0.5-1.3,1-2.5,1.6-3.8c2.2-5,4.3-9.8,0.8-14.8c-2.2-3.1-5.4-4.6-10-4.6c-2.2,0-4.5,0.3-6.6,0.7c-1.9,0.3-3.7,0.6-5.6,0.9
						c-9.7,1.6-19.6,3.2-28.7,6.7c-20.1,7.9-35.6,22.4-45.9,43.2l-0.2,0.3c-0.7,1.4-1.4,2.8-2.5,4.1l-1,1.2l0-1.6
						c0.4-13.2,11.4-27.7,30.3-40c18.2-11.8,39.8-18.9,57.8-18.9c3.5,0,6.9,0.3,10.1,0.8c-0.5-0.4-1-0.9-1.5-1.3
						c-2.2-1.9-4.4-3.8-6.8-5.3c-13.7-8.3-28.6-12.4-44.2-12.4c-5.4,0-11.1,0.5-16.8,1.5c-15.5,2.7-30.5,8.2-44.6,16.3
						c-7.1,4.1-14.2,9.5-20.5,15.7c-2.8,2.7-5.5,4-8.5,4c-1.6,0-3.3-0.4-5.2-1.1c-13.7-5.3-27.7-10.7-41.1-15.9l-4.5-1.8
						c-20.5-8-40.9-12-60.6-12c-9,0-18,0.8-26.8,2.5c-7,1.3-13.8,4.3-20.4,7.3c-2.8,1.2-5.6,2.5-8.5,3.7c-0.6,0.2-1.2,0.5-1.8,0.8
						c-1.3,0.5-2.2,1-3.1,1.5l-1.2,0.6c-1.1,0.5-2.1,1.1-3.3,1.6l-0.3,0.2l-0.3-0.2c-0.5-0.5-1.1-0.9-1.7-1.3l-0.7-0.5l0.8-0.4
						c0.7-0.4,1.4-0.9,2.1-1.3l0.6-0.3c0.7-0.3,1.3-0.6,2.1-1.1l0.2-0.1c1.4-0.2,2.8-0.8,4-1.7c0.1-0.1,0.1-0.1,0.2-0.2l0.3-0.2
						c1.8-0.7,3.4-1.4,4.8-2.2c15.9-8.1,33.3-12.3,51.7-12.3c13.5,0,27.5,2.1,42.8,6.4c16,4.5,31.7,10.7,47,16.7
						c6,2.4,12.2,4.8,18.3,7.1c1.7,0.6,3,0.9,4.3,0.9c2.4,0,4.5-1,7.1-3.5c18.3-17.1,40.3-27.9,65.4-32c6.4-1.1,13.1-1.5,19.1-1.8
						c1.2-0.1,2.5-0.1,3.8-0.1c14.6,0,28.7,4.9,45.6,15.8c8.9,5.8,12.4,13.3,10.1,21.7c-1.4,5.1-3.8,10.3-6.8,14.8
						c-7.6,11.4-15.6,22.7-23.4,33.7c-2.3,3.2-4.5,6.4-6.8,9.7l-0.9,1.2c-1.7,2.4-3.4,4.9-5.5,7c-7.3,7.5-9.7,16.5-7.1,26.6
						c1.5,5.6,3.2,11.2,4.9,16.6c2.3,7.6,4.8,15.4,6.5,23.2c2.4,11,4.2,22.2,5.9,33.1c0.9,5.7,1.8,11.5,2.8,17.2
						c0.1,0.4,0.1,0.8,0.2,1.2c0.4,2.7,0.9,5.4,2.3,7.2c13.3,16.8,17,36.3,11.4,61.3c-5.5,24.6-20.7,41.5-46.7,51.7
						C496.2,377,488.7,378.2,479.3,378.2z M460.5,375.8c0.5,0.3,0.9,0.5,1.2,0.5l2,0.1c5.1,0.3,10.4,0.7,15.6,0.7c0,0,0,0,0,0
						c9.3,0,16.7-1.2,23.2-3.8c25.6-10.1,40.6-26.7,46-50.9c5.5-24.7,1.9-43.9-11.2-60.4c-1.6-2-2.1-5.1-2.6-7.7
						c-0.1-0.4-0.1-0.8-0.2-1.1c-1-5.7-1.9-11.6-2.8-17.3c-1.7-10.9-3.5-22.1-5.9-33.1c-1.7-7.8-4.1-15.6-6.5-23.1
						c-1.7-5.4-3.4-11.1-4.9-16.7c-2.8-10.5-0.3-19.8,7.3-27.7c2-2.1,3.7-4.5,5.4-6.9l0.9-1.3c2.3-3.2,4.5-6.4,6.8-9.7
						c7.8-11,15.8-22.4,23.4-33.7c3-4.5,5.3-9.5,6.7-14.5c2.8-10-3.7-16.7-9.6-20.5c-16.7-10.8-30.6-15.6-45-15.6
						c-1.2,0-2.5,0-3.7,0.1c-5.9,0.4-12.6,0.8-18.9,1.8C462.8,39.3,441,50,422.9,66.9c-2.8,2.6-5.2,3.7-7.8,3.7
						c-1.4,0-2.9-0.3-4.7-1c-6.1-2.3-12.3-4.7-18.3-7.1c-15.2-6-31-12.2-46.9-16.7c-15.2-4.3-29.1-6.4-42.5-6.4
						c-18.5,0-35.2,4-51.2,12.1c-1.4,0.7-3,1.4-4.8,2.2l-0.1,0.1c-0.1,0.1-0.2,0.1-0.3,0.2c-1.3,1-2.8,1.6-4.4,1.8
						c-0.8,0.5-1.5,0.8-2.1,1.1l-0.5,0.3c-0.5,0.3-0.9,0.6-1.4,0.9c0.3,0.2,0.6,0.4,0.8,0.7c1-0.5,2-1,3-1.5l1.2-0.6
						c0.9-0.5,1.9-1,3.2-1.5c0.6-0.3,1.2-0.5,1.8-0.8c2.8-1.1,5.7-2.4,8.5-3.6c6.6-3,13.5-6,20.6-7.3c8.9-1.7,18-2.5,27-2.5
						c19.9,0,40.4,4.1,61,12.1l4.5,1.8c13.5,5.3,27.4,10.7,41.1,15.9c1.8,0.7,3.4,1,4.8,1c2.7,0,5.2-1.2,7.7-3.7
						c6.5-6.4,13.5-11.7,20.8-15.9c14.3-8.2,29.4-13.7,45-16.4c5.8-1,11.5-1.5,17-1.5c15.8,0,30.8,4.2,44.7,12.6
						c2.5,1.5,4.8,3.5,7,5.4c1,0.9,2,1.8,3.1,2.6l1.8,1.4l-2.2-0.5c-3.7-0.8-7.7-1.2-12-1.2c-17.8,0-39.2,7-57.2,18.7
						c-17.4,11.3-28.3,25.1-29.7,37.2c0.4-0.7,0.8-1.5,1.2-2.3l0.2-0.3c10.5-21,26.1-35.7,46.5-43.7c9.1-3.6,19.2-5.2,28.9-6.8
						c1.9-0.3,3.7-0.6,5.6-0.9c2.1-0.4,4.4-0.7,6.8-0.7c4.9,0,8.5,1.6,10.9,5c3.9,5.5,1.6,10.7-0.7,15.8c-0.5,1.2-1.1,2.5-1.5,3.7
						c-0.1,0.2-0.2,0.4-0.3,0.6c-3.6,5.2-7.2,10.5-10.7,15.7c-8.1,12.1-16.5,24.6-25.9,35.9c-9.6,11.6-11.9,23.2-7.5,37.3
						c0.8,2.4,1.5,4.9,2.3,7.3c3.8,12.1,7.7,24.7,10.6,37.2c1.8,8,2.9,16.4,3.9,24.4c0.6,4.9,1.2,9.9,2,14.8
						c0.4,2.8,1.4,6.7,3.6,9.7c18.3,25.7,17.3,60.9-2.6,85.7c-8.9,11.1-18.8,18.3-30.1,22.1c-7.7,2.5-16,3.4-24.1,4.2l-1.1,0.1
						c-2.3,0.2-4.7,0.3-7.7,0.3c-2,0-4.1,0-6.2-0.1C463.8,375.8,462.1,375.8,460.5,375.8z"/>
					<path d="M479.3,378.8L479.3,378.8c-5.3,0-10.6-0.4-15.7-0.7l-2-0.1c-0.8-0.1-1.5-0.5-2.3-1c-0.4-0.2-0.8-0.5-1.2-0.8l-3.8-2.1
						h4.3c2.4,0,4.8,0.1,6.8,0.1c2.1,0,4.1,0.1,6.1,0.1c2.9,0,5.3-0.1,7.5-0.3l1.1-0.1c8-0.8,16.2-1.6,23.8-4.1
						c11-3.6,20.6-10.7,29.3-21.5c19.4-24.2,20.5-58.6,2.5-83.7c-2.3-3.3-3.4-7.5-3.9-10.4c-0.8-5-1.4-10-2-14.9
						c-1-8-2-16.3-3.8-24.3c-2.8-12.5-6.7-25-10.5-37.1c-0.8-2.4-1.5-4.9-2.3-7.3c-4.6-14.8-2.2-26.7,7.8-38.9
						c9.3-11.3,17.7-23.8,25.8-35.8l0.1-0.1c3.4-5.1,7-10.4,10.6-15.6c0.1-0.1,0.1-0.2,0.1-0.2c0.5-1.3,1.1-2.6,1.6-3.8
						c2.1-4.9,4.2-9.5,0.8-14.2c-2.1-3-5.1-4.3-9.5-4.3c-2.2,0-4.4,0.3-6.5,0.7c-1.9,0.3-3.7,0.6-5.6,0.9
						c-9.6,1.6-19.6,3.2-28.6,6.7c-20,7.8-35.4,22.3-45.6,42.9l-0.2,0.3c-0.7,1.4-1.4,2.9-2.5,4.2l-2,2.4l0.1-3.1
						c0.4-13.3,11.5-28.1,30.6-40.5c18.3-11.9,40-19,58.1-19c2.9,0,5.7,0.2,8.3,0.5l-0.1,0c-2.1-1.9-4.4-3.8-6.8-5.2
						c-13.6-8.2-28.4-12.4-43.9-12.4c-5.4,0-11,0.5-16.7,1.5c-15.4,2.7-30.4,8.1-44.5,16.2c-7,4-14.1,9.4-20.4,15.6
						c-2.9,2.8-5.7,4.2-8.9,4.2c-1.7,0-3.4-0.4-5.4-1.1c-13.7-5.3-27.7-10.7-41.1-15.9l-4.5-1.8c-20.5-8-40.8-12-60.4-12
						c-8.9,0-17.9,0.8-26.7,2.5c-6.9,1.3-13.7,4.3-20.2,7.2c-2.8,1.2-5.7,2.5-8.5,3.7c-0.6,0.2-1.2,0.5-1.8,0.8
						c-1.3,0.5-2.2,0.9-3.1,1.4l-1.3,0.6c-1.1,0.5-2.2,1.1-3.3,1.6l-0.7,0.3l-0.5-0.5c-0.5-0.4-1-0.8-1.6-1.2l-1.5-1l1.5-0.9
						c0.7-0.4,1.4-0.9,2.1-1.3l0.6-0.3c0.7-0.3,1.3-0.6,2.1-1.1l0.3-0.1c1.4-0.2,2.7-0.8,3.9-1.6c0.1,0,0.1-0.1,0.2-0.1l0.5-0.3
						c1.8-0.7,3.4-1.4,4.8-2.1c16-8.2,33.5-12.3,52-12.3c13.5,0,27.6,2.1,42.9,6.4c16,4.5,31.8,10.7,47,16.7
						c6,2.4,12.2,4.8,18.3,7.1c1.6,0.6,2.9,0.9,4.1,0.9c2.2,0,4.2-1,6.7-3.3c18.4-17.2,40.5-28,65.6-32.2c6.4-1.1,13.2-1.5,19.1-1.8
						c1.3-0.1,2.5-0.1,3.8-0.1c14.7,0,28.9,4.9,45.9,15.9c9.1,5.9,12.7,13.6,10.3,22.3c-1.4,5.2-3.8,10.4-6.9,15
						c-7.6,11.3-15.6,22.7-23.3,33.7l-0.3,0.4c-2.2,3.1-4.4,6.2-6.6,9.3l-0.9,1.2c-1.7,2.4-3.4,4.9-5.5,7.1
						c-7.2,7.4-9.5,16.2-6.9,26.1c1.5,5.6,3.2,11.2,4.9,16.6c2.4,7.6,4.8,15.4,6.5,23.3c2.4,11,4.2,22.2,5.9,33.1
						c0.9,5.7,1.8,11.5,2.8,17.2c0.1,0.4,0.1,0.8,0.2,1.2c0.4,2.6,0.9,5.3,2.2,7c13.4,16.9,17.1,36.6,11.5,61.8
						c-5.5,24.8-20.9,41.8-47,52.1C496.4,377.6,488.8,378.8,479.3,378.8z M468.4,377.3c3.6,0.2,7.3,0.4,10.9,0.4v0.5l0-0.5
						C475.7,377.7,472,377.5,468.4,377.3z M530.1,357.1c-7.2,6.9-16.4,12.5-27.5,16.9c-6,2.3-12.6,3.6-20.8,3.8
						c8.2-0.2,14.8-1.4,20.8-3.8C513.8,369.5,522.9,364,530.1,357.1z M460,376.1c0.6,0.4,1.1,0.7,1.6,0.7l0.6,0l-0.6,0
						c-0.5,0-1-0.3-1.5-0.6L460,376.1z M473.7,376.5c1.9,0.1,3.7,0.1,5.6,0.1c9.2,0,16.5-1.2,23-3.7c1.3-0.5,2.5-1,3.7-1.5
						c-0.5,0.2-1,0.3-1.4,0.5c-7.7,2.6-16.1,3.4-24.2,4.2l-1.1,0.1C477.5,376.3,475.7,376.4,473.7,376.5z M458.5,375.2L458.5,375.2
						c0.2,0.1,0.4,0.2,0.5,0.3L458.5,375.2C458.6,375.2,458.5,375.2,458.5,375.2L458.5,375.2z M464.3,375.3c0.3,0,0.7,0,1,0
						c2,0,4,0.1,6,0.1c-2,0-3.9,0-6-0.1C465,375.3,464.7,375.3,464.3,375.3z M482,374.8c-0.6,0.1-1.2,0.1-1.8,0.2l-0.1,0l0.1,0
						C480.8,374.9,481.4,374.9,482,374.8z M544.1,334.8c-2.4,5.2-5.5,10.2-9.2,14.8c-3.5,4.4-7.2,8.1-11,11.3
						C533,353.9,539.7,345.2,544.1,334.8z M542.5,335.6c-2.3,4.7-5.1,9.2-8.5,13.4c-0.9,1.1-1.8,2.2-2.7,3.2c0.9-1,1.8-2.1,2.7-3.2
						C537.4,344.7,540.2,340.3,542.5,335.6z M537.6,261.5c0.1,0.1,0.1,0.1,0.2,0.2c13.2,16.6,16.8,36,11.3,60.9
						c-1.4,6.3-3.5,12.2-6.2,17.5c2.7-5.3,4.8-11.2,6.2-17.5c5.5-24.9,1.9-44.2-11.3-60.9C537.7,261.6,537.6,261.6,537.6,261.5z
						 M537.2,262.8c0.1,0.2,0.2,0.3,0.3,0.5c7.3,10.2,11.5,21.8,12.8,33.8C549.5,284.1,545.1,272.9,537.2,262.8z M534.4,259.6
						c0.6,1.5,1.3,3,2.2,4.3c3.2,4.5,5.8,9.3,7.9,14.3c-2-5-4.6-9.8-7.9-14.3C535.7,262.6,535,261.1,534.4,259.6z M533.4,249.6
						c0.2,1.4,0.4,2.8,0.6,4.2c0.1,0.8,0.3,1.7,0.5,2.7c-0.1-0.7-0.3-1.4-0.4-2.1l-0.2-1.1C533.8,252.1,533.6,250.8,533.4,249.6z
						 M535.1,253.2l0.1,0.9C535.2,253.8,535.2,253.5,535.1,253.2z M530.2,223.1c0.7,4.3,1.4,8.5,2.1,12.7c0.6,3.8,1.2,7.6,1.9,11.5
						c-0.6-3.8-1.3-7.7-1.9-11.5C531.6,231.6,530.9,227.4,530.2,223.1z M513.4,160.8c0.3,2.9,0.9,5.9,1.9,9.1
						c0.7,2.4,1.5,4.8,2.2,7.1l0,0.1c2.7,8.5,5.4,17.2,7.8,26c0-0.1,0-0.2-0.1-0.2c-1.7-7.8-4.1-15.5-6.4-23.1
						c-1.7-5.5-3.4-11.1-4.9-16.7C513.7,162.4,513.5,161.6,513.4,160.8z M514.6,171.4c0.5,1.5,0.9,2.9,1.4,4.4
						C515.5,174.4,515.1,172.9,514.6,171.4z M536.1,116.8c-0.3,0.4-0.6,0.8-0.8,1.2c-2.3,3.2-4.5,6.4-6.8,9.7l-0.9,1.3
						c-1.7,2.4-3.4,4.9-5.4,7c-2.5,2.6-4.5,5.3-5.8,8.3c1.4-2.9,3.3-5.7,5.8-8.3c2-2.1,3.8-4.6,5.4-7l0.9-1.2
						c2.2-3.1,4.4-6.2,6.6-9.3l0.2-0.3C535.5,117.5,535.8,117.1,536.1,116.8z M527.3,127.4c-1.5,1.9-3,3.8-4.6,5.7
						c-0.8,1-1.5,1.9-2.2,2.9c0.3-0.3,0.6-0.6,0.9-1c2-2,3.7-4.5,5.3-6.8L527.3,127.4z M550.6,92.2c-1,1.4-1.9,2.8-2.8,4.2l-0.1,0.1
						c-4.5,6.7-9.1,13.5-13.9,20.2c4.8-6.7,9.4-13.5,13.9-20.2C548.7,95.1,549.6,93.7,550.6,92.2z M490.1,73.5
						c-17.6,11.6-28.2,25.1-29.3,37.5l0-0.3C462.2,98.5,473.1,84.7,490.1,73.5z M482.7,80.2c-10.7,8.6-17.8,18.1-20.1,27
						C468,96.6,474.7,87.5,482.7,80.2z M523.6,60.8c-4.8,1.1-9.6,2.3-14.2,4.1c-14.8,5.8-27.2,15.2-36.8,28
						c9.6-12.8,21.9-22.2,36.8-28C514,63.2,518.7,61.9,523.6,60.8z M550.5,55.4c5.1,0,8.8,1.7,11.3,5.3c4,5.7,1.7,11.1-0.6,16.4
						c-0.4,1-0.9,1.9-1.2,2.9c1.9-3.4,3.4-7.1,4.4-10.7c1.3-4.8,0.4-8.8-1.5-12.1l-2.8-0.6c-3.7-0.8-7.6-1.2-11.9-1.2
						c-9.7,0-20.5,2.1-31.2,5.9c6.9-1.9,14-3.1,21-4.2c1.9-0.3,3.7-0.6,5.6-0.9C545.8,55.8,548.1,55.4,550.5,55.4z M565.7,68.1
						c-0.1,0.5-0.2,0.9-0.3,1.4c-0.5,2-1.2,4-2.1,5.9c0.8-1.9,1.5-3.9,2.1-5.9C565.5,69,565.7,68.6,565.7,68.1z M418.6,71.9
						c-1,0.4-2.1,0.5-3.1,0.5C416.5,72.5,417.6,72.3,418.6,71.9z M414.8,72.5c0.2,0,0.4,0,0.7,0C415.2,72.5,415,72.5,414.8,72.5z
						 M411.3,70.6c1.5,0.5,2.9,0.8,4.2,0.8c2.6,0,4.9-1.1,7.4-3.5c1.4-1.4,2.9-2.8,4.4-4.1c-1.3,1.2-2.7,2.3-4,3.6
						c-2.9,2.7-5.4,3.9-8.2,3.9C413.9,71.2,412.7,71,411.3,70.6z M402.2,65.9c2.8,1.1,5.6,2.2,8.4,3.2c1.7,0.7,3.2,1,4.5,1h0
						c-1.3,0-2.8-0.3-4.5-1C407.8,68.1,404.9,67,402.2,65.9z M443.8,53.1c-6.6,3.8-13,8.7-18.9,14.3
						C430.7,61.8,437.2,56.9,443.8,53.1z M548.3,54.3c-14.7,0-31.7,4.7-47.3,12.8C516.6,59,533.6,54.3,548.3,54.3
						C548.3,54.3,548.3,54.3,548.3,54.3C548.3,54.3,548.3,54.3,548.3,54.3z M375.6,55.6c5.6,2.1,11.1,4.3,16.6,6.4
						c1.5,0.6,3,1.2,4.5,1.8c-1.5-0.6-3-1.2-4.4-1.7C386.8,59.9,381.2,57.7,375.6,55.6z M378,57.7c3.7,1.4,7.4,2.9,11.2,4.4
						C385.5,60.6,381.7,59.1,378,57.7z M364.9,53.7l4.4,1.7c5.5,2.2,11.1,4.3,16.8,6.5c-5.6-2.2-11.2-4.4-16.8-6.5L364.9,53.7z
						 M560.7,61.1c0.1,0.1,0.1,0.2,0.2,0.3c0.1,0.1,0.1,0.2,0.2,0.3c-0.1-0.1-0.1-0.2-0.2-0.3C560.8,61.2,560.8,61.2,560.7,61.1z
						 M236.9,58.2L236.9,58.2c0.3,0.2,0.7,0.4,1,0.7c-0.1-0.1-0.2-0.1-0.3-0.2L236.9,58.2l0.7-0.4C237.3,57.9,237.1,58.1,236.9,58.2
						L236.9,58.2z M242.6,57.6l-0.7,0.3c-0.2,0.1-0.3,0.2-0.5,0.2c0.1-0.1,0.3-0.1,0.4-0.2L242.6,57.6z M564.3,57.5
						c0.1,0.2,0.2,0.4,0.3,0.5C564.5,57.8,564.4,57.6,564.3,57.5L564.3,57.5z M242.1,56.5c-0.8,0.5-1.4,0.8-2.1,1.1l-0.7,0.4
						c0.7-0.4,1.4-0.7,2.1-1.1l1.1-0.6C242.4,56.4,242.3,56.5,242.1,56.5z M564.2,57.2L564.2,57.2c-1.7-3.2-4.6-6.2-8.6-8.8
						c-2.2-1.4-4.3-2.7-6.5-4c2.1,1.2,4.3,2.5,6.5,4C558.8,50.5,562.1,53.4,564.2,57.2z M246.4,55.8c0,0-0.1,0-0.1,0
						c-1.1,0.4-2,0.8-2.8,1.3c0.8-0.4,1.7-0.9,2.8-1.3C246.4,55.8,246.4,55.8,246.4,55.8z M241.5,55.6c-0.7,0.4-1.3,0.7-2,1l0,0
						C240.2,56.3,240.8,56,241.5,55.6z M558.4,55.1c0.6,0.1,1.3,0.2,1.9,0.4l0,0c-1.1-0.9-2.1-1.8-3.1-2.6c-0.9-0.8-1.9-1.6-2.9-2.4
						c1,0.8,1.9,1.6,2.9,2.4l0.2,0.2c0.4,0.4,0.8,0.7,1.3,1.1l1.5,1.3L558.4,55.1z M554.1,48.8c1.3,1,2.6,2.2,3.9,3.3
						c1,0.9,2,1.8,3.1,2.6l0.2,0.2c-1.8-2.3-4.1-4.1-6.3-5.5C554.7,49.1,554.4,49,554.1,48.8z M246.9,54.3c-0.1,0-0.1,0.1-0.1,0.1
						c0.3-0.1,0.6-0.3,0.9-0.4c2.8-1.1,5.7-2.4,8.4-3.6c6.7-3,13.6-6,20.7-7.4c8.9-1.7,18-2.5,27.1-2.5c7.9,0,15.8,0.6,23.9,1.9
						c-8.7-1.6-17-2.3-25.2-2.3c-18.4,0-35.1,4-51,12.1C250.3,52.9,248.7,53.6,246.9,54.3z M246.4,53.4L246.4,53.4L246.4,53.4
						c0.8-0.3,1.5-0.6,2.2-0.9C247.9,52.7,247.2,53,246.4,53.4z M318.7,40c8.5,1,17.3,2.8,26.6,5.4c8.1,2.3,16.1,5,24,7.9
						c-7.9-2.9-15.9-5.6-24-7.9C336,42.8,327.2,41,318.7,40z M482.2,36.7c-14.7,3.1-28.3,8.6-40.6,16.4c0.7-0.4,1.4-0.8,2.1-1.2
						C456,44.8,468.9,39.7,482.2,36.7z M305.1,41.6c17.8,0.1,36.1,3.6,54.6,10.2C341.2,45.2,322.9,41.8,305.1,41.6z M505.9,35
						c-5.5,0-11.1,0.5-16.9,1.5c-11,1.9-21.9,5.3-32.3,10c10.4-4.7,21.3-8,32.3-10C494.8,35.5,500.4,35,505.9,35z M291.1,42.2
						c-4.7,0.4-9.4,1.1-14.1,1.9c-1.3,0.2-2.5,0.5-3.8,0.9c1.3-0.3,2.5-0.6,3.8-0.9C281.7,43.2,286.4,42.6,291.1,42.2z M303.9,41.6
						c0.3,0,0.5,0,0.8,0C304.5,41.6,304.2,41.6,303.9,41.6z M506.7,33.9c11.9,0.1,23.3,2.6,34.1,7.4c-10.7-5.1-20.5-7.5-30.5-7.5
						C509.1,33.8,507.9,33.8,506.7,33.9z M507.2,35c5.3,0.1,10.5,0.6,15.6,1.7C517.6,35.6,512.4,35.1,507.2,35z M510.3,32.7
						c-0.9,0-1.9,0-2.8,0.1C508.4,32.7,509.3,32.7,510.3,32.7z"/>
				</g>
			</g>
			<g>
				<g>
					<path d="M282.5,419.5c5.1,6.6,6.9,14.3,7.8,22.2c1.2,10.6,1.9,21.3,3.7,31.9c0.5,3.1,3.1,6.8,5.8,8.4c4.6,2.6,10,4.7,15.2,5.4
						c18.3,2.4,36.3,1.1,53.6-6c15.8-6.4,19.8-12.4,19.8-29.3c0-7.3,0.1-14.6-0.2-21.8c-0.2-4,1.5-6,5.1-7.2
						c13.8-4.4,27.6-9.1,41.5-13.2c15.2-4.5,29-11,39.9-23c3.2-3.5,8-5.6,12.1-8.3c0.3,0.3,0.6,0.7,1,1c-3.3,2.9-6.6,5.8-10.2,9.1
						c1.8,3,3.7,6,5.3,9.2c4,7.7,2.8,13.6-3.7,19.4c-10.8,9.5-24,13.3-37.6,16.2c-4.6,1-9.4,1.3-14.1,1.1c-6.9-0.2-12.9-6.5-13.6-14
						c0.5,0.2,1.2,0.3,1.3,0.6c3.5,9.7,10.7,12.4,20.3,11c13.5-1.9,26.3-5.6,37.7-13.1c11.1-7.2,12.3-13.7,5-24.7
						c-0.9-1.3-1.7-2.7-2.4-3.8c-6.5,4.2-13.1,8.3-19.4,12.7c-10.3,7.2-22.7,8.5-34.1,12.7c-9.4,3.4-19.1,6-28.4,9.3
						c-1.6,0.6-3.3,3.3-3.3,5.1c-0.2,8.5,0.3,17.1,0.2,25.6c-0.2,9.6-3.5,17.4-12.4,22.7c-12.5,7.4-26.1,11.1-40.4,11.5
						c-9.7,0.3-19.5-1.1-29.3-1.8c-1.1-0.1-2.1-0.5-3.1-0.9c-9.6-3-14.5-9.3-15.2-19.5C289.2,451.8,288.9,435.2,282.5,419.5z"/>
					<path d="M335.2,491c-6.1,0-12.2-0.6-18.2-1.1c-2.8-0.3-5.7-0.5-8.5-0.7c-0.8-0.1-1.7-0.3-2.4-0.6c-0.3-0.1-0.5-0.2-0.8-0.3
						c-9.8-3-14.8-9.5-15.5-20c-0.1-1.8-0.2-3.5-0.3-5.3c-0.9-14.4-1.8-29.3-7.5-43.1l-1.5-3.8l2.5,3.2c5.5,7.2,7.1,15.4,7.9,22.5
						c0.4,3.5,0.8,7.1,1.1,10.6c0.7,7,1.4,14.2,2.6,21.3c0.5,2.9,2.9,6.5,5.5,8c3.5,2,8.9,4.6,15,5.4c5.5,0.7,11,1.1,16.2,1.1
						c13.2,0,25.7-2.4,37.1-7c15.5-6.3,19.5-12.2,19.4-28.8c0-1.9,0-3.7,0-5.6c0-5.3,0-10.9-0.2-16.3c-0.2-4.1,1.5-6.5,5.5-7.7
						c5.1-1.6,10.2-3.3,15.2-4.9c8.6-2.8,17.5-5.7,26.3-8.3c17.8-5.3,30-12.3,39.6-22.8c2.3-2.5,5.3-4.2,8.3-5.9
						c1.3-0.8,2.7-1.6,4-2.4l0.4-0.2l1.7,1.7l-10.3,9.1c0.5,0.8,1,1.6,1.4,2.4c1.2,2.1,2.5,4.2,3.7,6.4c4.1,7.9,2.9,14.1-3.9,20.1
						c-10.3,9.1-22.5,13.1-37.8,16.3c-3.7,0.8-7.9,1.2-12.4,1.2c-0.6,0-1.2,0-1.8,0c-7.1-0.2-13.4-6.7-14.1-14.5l-0.1-0.9l0.8,0.4
						c0.2,0.1,0.3,0.1,0.5,0.2c0.5,0.1,0.9,0.3,1.1,0.7c3.2,8.8,9.3,12.2,19.7,10.6c15.4-2.2,27.3-6.4,37.5-13
						c5.5-3.6,8.4-6.9,9.2-10.5c0.8-3.6-0.6-7.8-4.3-13.4c-0.6-0.9-1.2-1.9-1.8-2.7l-0.4-0.6c-1.9,1.2-3.8,2.4-5.6,3.6
						c-4.4,2.8-8.9,5.7-13.3,8.7c-7,4.9-15.1,7.1-22.9,9.3c-3.7,1-7.6,2.1-11.3,3.4c-4.8,1.8-9.8,3.3-14.7,4.8
						c-4.5,1.4-9.2,2.9-13.8,4.5c-1.3,0.5-2.9,3-3,4.6c-0.1,4.5,0,9,0.1,13.4c0.1,4,0.2,8.2,0.1,12.2c-0.2,10.7-4.3,18.2-12.6,23.2
						c-12.3,7.3-25.9,11.2-40.7,11.6C337,491,336.1,491,335.2,491z M284.7,423.9c4.3,12.7,5.1,26,5.9,38.9c0.1,1.8,0.2,3.5,0.3,5.3
						c0.7,10.1,5.4,16.1,14.8,19c0.3,0.1,0.6,0.2,0.9,0.3c0.8,0.3,1.5,0.5,2.2,0.6c2.8,0.2,5.7,0.5,8.5,0.7
						c6.8,0.6,13.8,1.3,20.7,1.1c14.5-0.4,28.1-4.3,40.1-11.4c8.1-4.8,11.9-11.8,12.1-22.2c0.1-4.1,0-8.2-0.1-12.2
						c-0.1-4.4-0.2-9-0.1-13.4c0-1.9,1.8-4.9,3.7-5.6c4.6-1.6,9.3-3.1,13.8-4.5c4.8-1.5,9.8-3.1,14.6-4.8c3.7-1.4,7.6-2.4,11.4-3.5
						c7.7-2.1,15.7-4.3,22.6-9.1c4.3-3,8.9-5.9,13.3-8.7c2-1.3,4.1-2.6,6.1-3.9l0.5-0.3l1,1.5c0.5,0.8,1.1,1.8,1.8,2.7
						c3.9,5.9,5.3,10.3,4.4,14.2c-0.8,3.9-3.8,7.4-9.6,11.2c-10.4,6.7-22.4,10.9-38,13.2c-1.6,0.2-3.2,0.4-4.6,0.4
						c-8.1,0-13.5-3.8-16.3-11.6c0,0-0.1,0-0.2-0.1c1,6.9,6.7,12.5,12.9,12.6c0.6,0,1.2,0,1.8,0c4.4,0,8.5-0.4,12.2-1.2
						c15.1-3.2,27.3-7.1,37.3-16c6.4-5.7,7.5-11.3,3.6-18.8c-1.1-2.2-2.4-4.3-3.6-6.3c-0.6-0.9-1.1-1.9-1.7-2.8l-0.2-0.4l10.1-9
						l-0.2-0.2c-1.2,0.8-2.4,1.5-3.7,2.2c-2.9,1.7-5.9,3.4-8,5.7c-9.8,10.7-22.1,17.8-40.1,23.1c-8.8,2.6-17.7,5.5-26.3,8.3
						c-5,1.6-10.1,3.3-15.2,4.9c-3.5,1.1-4.9,3-4.7,6.6c0.2,5.4,0.2,11,0.2,16.3c0,1.8,0,3.7,0,5.5c0.1,17.1-4.1,23.3-20.1,29.8
						c-11.6,4.7-24.2,7.1-37.5,7.1c-5.3,0-10.8-0.4-16.3-1.1c-6.3-0.8-11.8-3.4-15.4-5.5c-2.9-1.6-5.5-5.5-6-8.8
						c-1.2-7.1-1.9-14.3-2.6-21.4c-0.3-3.5-0.7-7-1.1-10.6C289.1,436.2,287.9,429.8,284.7,423.9z"/>
				</g>
				<g>
					<path d="M335.2,491c-6.1,0-12.2-0.6-18.2-1.1c-2.8-0.3-5.7-0.5-8.5-0.7c-0.8-0.1-1.7-0.3-2.4-0.6c-0.3-0.1-0.5-0.2-0.8-0.3
						c-9.8-3-14.8-9.5-15.5-20c-0.1-1.8-0.2-3.5-0.3-5.3c-0.9-14.4-1.8-29.3-7.5-43.1l-1.5-3.8l2.5,3.2c5.5,7.2,7.1,15.4,7.9,22.5
						c0.4,3.5,0.8,7.1,1.1,10.6c0.7,7,1.4,14.2,2.6,21.3c0.5,2.9,2.9,6.5,5.5,8c3.5,2,8.9,4.6,15,5.4c5.5,0.7,11,1.1,16.2,1.1
						c13.2,0,25.7-2.4,37.1-7c15.5-6.3,19.5-12.2,19.4-28.8c0-1.9,0-3.7,0-5.6c0-5.3,0-10.9-0.2-16.3c-0.2-4.1,1.5-6.5,5.5-7.7
						c5.1-1.6,10.2-3.3,15.2-4.9c8.6-2.8,17.5-5.7,26.3-8.3c17.8-5.3,30-12.3,39.6-22.8c2.3-2.5,5.3-4.2,8.3-5.9
						c1.3-0.8,2.7-1.6,4-2.4l0.4-0.2l1.7,1.7l-10.3,9.1c0.5,0.8,1,1.6,1.4,2.4c1.2,2.1,2.5,4.2,3.7,6.4c4.1,7.9,2.9,14.1-3.9,20.1
						c-10.3,9.1-22.5,13.1-37.8,16.3c-3.7,0.8-7.9,1.2-12.4,1.2c-0.6,0-1.2,0-1.8,0c-7.1-0.2-13.4-6.7-14.1-14.5l-0.1-0.9l0.8,0.4
						c0.2,0.1,0.3,0.1,0.5,0.2c0.5,0.1,0.9,0.3,1.1,0.7c3.2,8.8,9.3,12.2,19.7,10.6c15.4-2.2,27.3-6.4,37.5-13
						c5.5-3.6,8.4-6.9,9.2-10.5c0.8-3.6-0.6-7.8-4.3-13.4c-0.6-0.9-1.2-1.9-1.8-2.7l-0.4-0.6c-1.9,1.2-3.8,2.4-5.6,3.6
						c-4.4,2.8-8.9,5.7-13.3,8.7c-7,4.9-15.1,7.1-22.9,9.3c-3.7,1-7.6,2.1-11.3,3.4c-4.8,1.8-9.8,3.3-14.7,4.8
						c-4.5,1.4-9.2,2.9-13.8,4.5c-1.3,0.5-2.9,3-3,4.6c-0.1,4.5,0,9,0.1,13.4c0.1,4,0.2,8.2,0.1,12.2c-0.2,10.7-4.3,18.2-12.6,23.2
						c-12.3,7.3-25.9,11.2-40.7,11.6C337,491,336.1,491,335.2,491z M284.7,423.9c4.3,12.7,5.1,26,5.9,38.9c0.1,1.8,0.2,3.5,0.3,5.3
						c0.7,10.1,5.4,16.1,14.8,19c0.3,0.1,0.6,0.2,0.9,0.3c0.8,0.3,1.5,0.5,2.2,0.6c2.8,0.2,5.7,0.5,8.5,0.7
						c6.8,0.6,13.8,1.3,20.7,1.1c14.5-0.4,28.1-4.3,40.1-11.4c8.1-4.8,11.9-11.8,12.1-22.2c0.1-4.1,0-8.2-0.1-12.2
						c-0.1-4.4-0.2-9-0.1-13.4c0-1.9,1.8-4.9,3.7-5.6c4.6-1.6,9.3-3.1,13.8-4.5c4.8-1.5,9.8-3.1,14.6-4.8c3.7-1.4,7.6-2.4,11.4-3.5
						c7.7-2.1,15.7-4.3,22.6-9.1c4.3-3,8.9-5.9,13.3-8.7c2-1.3,4.1-2.6,6.1-3.9l0.5-0.3l1,1.5c0.5,0.8,1.1,1.8,1.8,2.7
						c3.9,5.9,5.3,10.3,4.4,14.2c-0.8,3.9-3.8,7.4-9.6,11.2c-10.4,6.7-22.4,10.9-38,13.2c-1.6,0.2-3.2,0.4-4.6,0.4
						c-8.1,0-13.5-3.8-16.3-11.6c0,0-0.1,0-0.2-0.1c1,6.9,6.7,12.5,12.9,12.6c0.6,0,1.2,0,1.8,0c4.4,0,8.5-0.4,12.2-1.2
						c15.1-3.2,27.3-7.1,37.3-16c6.4-5.7,7.5-11.3,3.6-18.8c-1.1-2.2-2.4-4.3-3.6-6.3c-0.6-0.9-1.1-1.9-1.7-2.8l-0.2-0.4l10.1-9
						l-0.2-0.2c-1.2,0.8-2.4,1.5-3.7,2.2c-2.9,1.7-5.9,3.4-8,5.7c-9.8,10.7-22.1,17.8-40.1,23.1c-8.8,2.6-17.7,5.5-26.3,8.3
						c-5,1.6-10.1,3.3-15.2,4.9c-3.5,1.1-4.9,3-4.7,6.6c0.2,5.4,0.2,11,0.2,16.3c0,1.8,0,3.7,0,5.5c0.1,17.1-4.1,23.3-20.1,29.8
						c-11.6,4.7-24.2,7.1-37.5,7.1c-5.3,0-10.8-0.4-16.3-1.1c-6.3-0.8-11.8-3.4-15.4-5.5c-2.9-1.6-5.5-5.5-6-8.8
						c-1.2-7.1-1.9-14.3-2.6-21.4c-0.3-3.5-0.7-7-1.1-10.6C289.1,436.2,287.9,429.8,284.7,423.9z"/>
					<path d="M335.2,491.5c-6.1,0-12.2-0.6-18.2-1.1c-2.8-0.3-5.7-0.5-8.5-0.7c-0.9-0.1-1.8-0.4-2.6-0.6c-0.3-0.1-0.5-0.2-0.8-0.3
						c-10-3.1-15.2-9.8-15.9-20.5c-0.1-1.7-0.2-3.3-0.3-5l0-0.3c-0.9-14.4-1.8-29.2-7.4-43l-3.1-7.5l5,6.4c5.6,7.3,7.2,15.6,8,22.8
						c0.4,3.5,0.8,7.1,1.1,10.6c0.7,7,1.4,14.2,2.6,21.3c0.5,2.8,2.8,6.2,5.2,7.6c3.4,2,8.8,4.5,14.8,5.3c5.5,0.7,10.9,1.1,16.1,1.1
						c13.1,0,25.5-2.4,36.9-7c15.2-6.2,19.1-12,19.1-28.3c0-1.9,0-3.7,0-5.6c0-5.3,0-10.8-0.2-16.2c-0.2-4.3,1.7-7,5.9-8.3
						c5.1-1.6,10.2-3.3,15.2-4.9c8.6-2.8,17.5-5.7,26.3-8.3c17.7-5.2,29.9-12.2,39.4-22.6c2.3-2.5,5.4-4.3,8.4-6
						c1.3-0.8,2.7-1.6,3.9-2.4l0.8-0.5l2.4,2.4l-10.4,9.2c0.4,0.7,0.8,1.4,1.2,2c1.2,2.1,2.5,4.2,3.7,6.4c4.3,8.2,3,14.6-4,20.8
						c-10.4,9.2-22.7,13.2-38.1,16.4c-3.8,0.8-8,1.2-12.5,1.2c-0.6,0-1.2,0-1.8,0c-7.3-0.2-13.9-6.9-14.6-15l0-0.3
						c-1.6,0.5-3.1,1-4.6,1.4c-4.6,1.4-9.3,2.9-13.8,4.5c-1.1,0.4-2.6,2.7-2.6,4.1c-0.1,4.4,0,9,0.1,13.4c0.1,4,0.2,8.1,0.1,12.3
						c-0.2,10.9-4.4,18.6-12.9,23.6c-12.3,7.3-26.1,11.2-40.9,11.7C337,491.5,336.1,491.5,335.2,491.5z M350.5,489.1
						c-4.1,0.7-8.3,1.1-12.6,1.3c-0.4,0-0.8,0-1.2,0c0.4,0,0.8,0,1.2,0C342.2,490.3,346.4,489.8,350.5,489.1z M367.1,483.2
						c-7.2,2.8-14.8,4.7-22.8,5.7C352.3,488,359.9,486.1,367.1,483.2z M308.3,488.5c0.1,0,0.2,0,0.3,0c1.2,0.1,2.3,0.2,3.5,0.3
						c-1.2-0.1-2.3-0.2-3.5-0.3C308.5,488.5,308.4,488.5,308.3,488.5z M331.2,488.6c11.3,0,22.2-1.7,32.3-5.2
						C353.3,486.8,342.5,488.6,331.2,488.6z M291.3,452.3C291.3,452.3,291.4,452.3,291.3,452.3c0.7,7.1,1.4,14.3,2.6,21.4
						c0.5,3.1,3,6.8,5.8,8.4c3.5,2,9,4.6,15.2,5.4c3.9,0.5,7.8,0.8,11.5,1c-3.8-0.2-7.6-0.5-11.5-1c-6.2-0.8-11.7-3.4-15.2-5.4
						c-2.7-1.5-5.3-5.3-5.8-8.4C292.8,466.6,292,459.4,291.3,452.3C291.4,452.3,291.3,452.3,291.3,452.3z M290.6,456.2
						c0.2,2.2,0.3,4.4,0.4,6.5l0,0.3c0.1,1.7,0.2,3.4,0.3,5c0.6,9.8,5.2,15.7,14.4,18.5c0.3,0.1,0.6,0.2,0.9,0.3
						c0.7,0.2,1.4,0.5,2,0.5c0.4,0,0.7,0.1,1.1,0.1c-4.3-1.2-8-3-10.6-4.5c-3-1.7-5.7-5.7-6.3-9.1
						C291.9,468,291.2,462.1,290.6,456.2z M379.1,478.4c-0.3,0.2-0.5,0.3-0.8,0.5c-4.8,2.8-9.8,5.2-15,7c5.2-1.8,10.2-4.1,15-7
						C378.6,478.7,378.9,478.5,379.1,478.4z M422.3,414.9c-4.6,1.5-9.2,2.9-13.6,4.4l-0.2,0.1c-4.9,1.6-10,3.3-15,4.8
						c-3.3,1-4.5,2.7-4.3,6.1c0.2,5.4,0.2,11,0.2,16.3c0,1.8,0,3.7,0,5.5c0,7.2-0.7,12.6-2.7,16.8c1.9-3.6,2.9-7.8,2.9-12.8
						c0.1-4,0-8.2-0.1-12.2c-0.1-4.4-0.2-9-0.1-13.5c0.1-2.1,1.9-5.3,4.1-6.1c4.6-1.6,9.3-3.1,13.8-4.5c4.8-1.5,9.8-3.1,14.6-4.8
						C422,415,422.2,415,422.3,414.9z M290,464.1c0.1,1.4,0.2,2.7,0.3,4.1c0,0.2,0,0.4,0,0.6c0-0.2,0-0.4,0-0.6
						C290.2,466.8,290.1,465.4,290,464.1z M390.6,448.8c0,2.5,0.1,4.9,0,7.4c0,0.2,0,0.3,0,0.5c0-0.2,0-0.3,0-0.5
						C390.7,453.7,390.7,451.2,390.6,448.8z M388.2,450.2c0,0.7,0,1.3,0,2c0,0.2,0,0.4,0,0.6c0-0.2,0-0.4,0-0.6
						C388.2,451.5,388.2,450.9,388.2,450.2z M388.2,447.1c0,0.7,0,1.3,0,2C388.2,448.4,388.2,447.7,388.2,447.1z M389,426
						c-0.7,1.1-1,2.6-1,4.4c0.2,4.8,0.2,9.7,0.2,14.5c0-4.8,0-9.7-0.2-14.5C387.9,428.6,388.2,427.1,389,426z M390.5,430.4
						c0,0.1,0,0.1,0,0.1c-0.1,2.7-0.1,5.4,0,8c0-2.7,0-5.4,0-8C390.5,430.5,390.5,430.4,390.5,430.4z M439.7,433.9
						c-3.3,0.6-6.8,0.9-10.6,0.9C432.8,434.8,436.4,434.5,439.7,433.9z M418.5,430.8c2.4,2.4,5.5,3.9,8.8,4c0.6,0,1.2,0,1.8,0
						c-0.6,0-1.2,0-1.8,0C424,434.7,420.9,433.2,418.5,430.8z M418.4,429.1c2.3,2.7,5.5,4.4,8.9,4.5c0.4,0,0.7,0,1.1,0
						C424.3,433.2,421,431.8,418.4,429.1z M442.4,432.2c-1.8,0.4-3.7,0.7-5.6,1c1.5-0.2,2.9-0.4,4.3-0.7
						C441.6,432.4,442,432.3,442.4,432.2z M447.1,430.1c-3.7,0.9-7.6,1.6-11.8,2.2c-0.2,0-0.4,0.1-0.6,0.1c0.2,0,0.4-0.1,0.6-0.1
						C439.5,431.7,443.4,431,447.1,430.1z M414.5,419.9C414.5,419.9,414.5,419.9,414.5,419.9c0.6,0.2,1.2,0.4,1.5,1.1
						c2.6,7.3,7.3,10.6,14.7,10.6c1.4,0,2.9-0.1,4.5-0.3c15.3-2.2,27.1-6.3,37.3-12.9c5.4-3.5,8.2-6.7,8.9-10.1
						c0.7-3.5-0.6-7.5-4.2-13c-0.6-0.9-1.2-1.9-1.8-2.7l-0.1-0.2c-1.7,1.1-3.5,2.2-5.2,3.3c-4.4,2.8-8.9,5.7-13.2,8.7
						c-7.1,5-15.2,7.2-23.1,9.4c-3.7,1-7.6,2.1-11.2,3.4C419.9,418.1,417.2,419,414.5,419.9z M479.4,417c-0.2,0.2-0.3,0.3-0.5,0.5
						c-7.5,6.7-16.2,10.6-26.3,13.4c10.1-2.9,18.8-6.8,26.3-13.4C479.1,417.3,479.3,417.1,479.4,417z M282.5,419.5
						c1.4,3.4,2.5,6.9,3.4,10.4c-0.5-2-1.1-3.9-1.7-5.9l1-0.4c0.3,0.6,0.6,1.2,0.9,1.8C285.1,423.4,283.9,421.4,282.5,419.5
						L282.5,419.5z M474.3,419.8c-0.2,0.1-0.4,0.3-0.6,0.4c-5.9,3.8-12.4,6.9-19.7,9.2C461.6,427,468.3,424.1,474.3,419.8z
						 M395.6,424.8c-0.6,0.2-1.2,0.4-1.8,0.7c-0.8,0.3-1.6,1.1-2.2,2c0.6-1,1.5-1.8,2.2-2C394.4,425.2,395,425,395.6,424.8z
						 M412.5,419.4c-1.6,0.5-3.3,1-4.9,1.5c-0.4,0.1-0.9,0.3-1.3,0.4c0.4-0.1,0.9-0.3,1.3-0.4C409.2,420.4,410.8,419.9,412.5,419.4
						L412.5,419.4z M420.6,414.3c-4.1,1.3-8.3,2.7-12.3,4c-1,0.3-2.1,0.7-3.1,1c1-0.3,1.9-0.6,2.8-0.9l0.2-0.1
						C412.4,417,416.5,415.6,420.6,414.3z M413,419.2L413,419.2c3.1-1,6.2-2,9.3-3.1c0.4-0.1,0.8-0.3,1.2-0.4
						c-0.4,0.1-0.8,0.3-1.2,0.4C419.2,417.2,416.1,418.2,413,419.2z M482.4,408.7c-0.8,3.4-3.5,6.6-8.5,10
						C478.9,415.3,481.6,412.2,482.4,408.7z M435.1,412.2c-0.5,0.1-1,0.3-1.5,0.4c-2.5,0.7-5,1.4-7.4,2.1c2.5-0.8,5-1.5,7.4-2.1
						C434.1,412.5,434.6,412.4,435.1,412.2z M453.7,403.9c-5.5,2.7-11.7,5.1-18.7,7.2c-1.5,0.5-3.1,0.9-4.6,1.4c1-0.3,2-0.5,2.9-0.8
						C440.2,409.7,447.4,407.7,453.7,403.9z M476,389.3l1.3,2c0.6,0.9,1.2,1.8,1.7,2.7c4,6,5.4,10.5,4.5,14.6
						c-0.1,0.5-0.3,1.1-0.5,1.6c1.4-3.5,0.9-7.3-1.4-11.7c-1.1-2.2-2.4-4.4-3.6-6.3l-0.1-0.2c-0.5-0.9-1-1.7-1.5-2.6l-0.4-0.8
						l7.4-6.5c0,0-0.1,0.1-0.1,0.1c-2.8,1.6-5.8,3.3-7.9,5.6c-1.9,2-3.8,4-5.9,5.8c1.9-1.2,3.8-2.4,5.7-3.6L476,389.3z M460.7,400.5
						c-1.5,1-2.9,2-4.4,3c-2.5,1.8-5.2,3.2-7.9,4.3c2.7-1.2,5.4-2.6,7.9-4.3C457.7,402.4,459.2,401.4,460.7,400.5z M481,395
						c0.6,1,1.1,1.9,1.6,2.9c0.1,0.2,0.2,0.3,0.3,0.5c-0.1-0.2-0.2-0.3-0.3-0.5C482.1,397,481.6,396,481,395z M477.6,393.8
						c0.2,0.2,0.3,0.5,0.5,0.7c0.6,0.9,1.1,1.7,1.5,2.5c-0.5-0.8-1-1.6-1.5-2.5C478,394.3,477.8,394.1,477.6,393.8z M477.2,384.6
						c-1,0.7-1.9,1.5-2.7,2.4c-2.6,2.8-5.4,5.4-8.4,7.8c3-2.4,5.8-4.9,8.4-7.8C475.3,386.1,476.2,385.3,477.2,384.6z M477.4,388.8
						c0.5,0.9,1,1.7,1.5,2.6l0.1,0.2c0.2,0.4,0.5,0.8,0.8,1.3c-0.2-0.4-0.5-0.8-0.7-1.2c-0.5-0.8-1-1.6-1.5-2.5L477.4,388.8z
						 M475.7,390.8c-0.5,0.4-1.1,0.7-1.6,1.1c0.4-0.3,0.8-0.5,1.2-0.8L475.7,390.8L475.7,390.8z M477.4,388.8l10.2-9.1l-0.4-0.4
						l0.4,0.4L477.4,388.8z M485,379.8c-0.5,0.3-1,0.6-1.6,0.9C484,380.4,484.5,380.1,485,379.8z"/>
				</g>
			</g>
			<g>
				<g>
					<path d="M392.2,129.1c-1.2,0-1.7,0.1-1.9,0c-17.1-16.2-37.4-14.4-57.5-9c-24.2,6.5-40.9,22-46,47.3
						c-2.7,13.5-2.3,27.4,6.1,39.4c7.2,10.2,15.2,19.9,22.7,29.9c1.5,2,2.8,4.1,3.1,6.9c-4.5-5.2-9.3-10.3-13.5-15.7
						c-8.3-10.5-17.3-20.8-20.4-34.4c-5.6-24.5,1.9-45.8,20.2-61.5c16.3-14,36.7-19.4,58.6-17.1c9.3,1,17.8,3.6,24.8,10.1
						C389.7,126,390.7,127.4,392.2,129.1z"/>
					<path d="M319.6,245.2l-1.2-1.4c-1.4-1.6-2.8-3.2-4.3-4.9c-3.1-3.5-6.3-7.1-9.3-10.9c-0.8-1-1.6-2-2.4-3
						c-7.5-9.4-15.3-19.2-18.1-31.6c-5.6-24.3,1.5-45.8,20.4-62.1c13.7-11.8,30.3-17.7,49.4-17.7c3.2,0,6.4,0.2,9.7,0.5
						c10.8,1.1,18.8,4.4,25.1,10.2c0.8,0.8,1.5,1.7,2.4,2.7c0.4,0.5,0.8,1.1,1.3,1.6l0.8,0.9h-1.2c-0.5,0-0.8,0-1.1,0
						c-0.2,0-0.3,0-0.4,0c-0.1,0-0.5,0-0.7-0.2c-9-8.6-19.6-12.7-32.5-12.7c-7,0-14.8,1.2-24.5,3.8c-25,6.7-40.8,22.9-45.6,46.8
						c-3.2,15.9-1.2,28.6,6,38.9c4.8,6.8,10,13.4,15,19.9c2.6,3.3,5.2,6.7,7.7,10c1.4,1.8,2.8,4.1,3.3,7.2L319.6,245.2z
						 M354.2,114.8c-18.8,0-35.2,5.9-48.7,17.5c-18.6,16-25.5,37.1-20,61c2.8,12.2,10.5,21.8,17.9,31.1c0.8,1,1.6,2,2.4,3
						c2.9,3.7,6.1,7.3,9.2,10.8c0.9,1.1,1.9,2.1,2.8,3.2c-0.6-1.8-1.6-3.3-2.6-4.6c-2.6-3.4-5.2-6.7-7.7-10
						c-5-6.4-10.2-13.1-15-19.9c-7.5-10.5-9.5-23.6-6.2-39.8c4.9-24.4,21-40.8,46.4-47.7c9.8-2.6,17.6-3.8,24.8-3.8
						c13.1,0,23.9,4.2,33.1,12.9c0.2,0,0.3,0,0.4,0c0,0,0,0,0.1,0c-0.2-0.3-0.4-0.5-0.6-0.8c-0.8-1-1.5-1.9-2.3-2.6
						c-6.1-5.7-13.9-8.9-24.4-10C360.5,115,357.3,114.8,354.2,114.8z"/>
				</g>
				<g>
					<path d="M319.6,245.2l-1.2-1.4c-1.4-1.6-2.8-3.2-4.3-4.9c-3.1-3.5-6.3-7.1-9.3-10.9c-0.8-1-1.6-2-2.4-3
						c-7.5-9.4-15.3-19.2-18.1-31.6c-5.6-24.3,1.5-45.8,20.4-62.1c13.7-11.8,30.3-17.7,49.4-17.7c3.2,0,6.4,0.2,9.7,0.5
						c10.8,1.1,18.8,4.4,25.1,10.2c0.8,0.8,1.5,1.7,2.4,2.7c0.4,0.5,0.8,1.1,1.3,1.6l0.8,0.9h-1.2c-0.5,0-0.8,0-1.1,0
						c-0.2,0-0.3,0-0.4,0c-0.1,0-0.5,0-0.7-0.2c-9-8.6-19.6-12.7-32.5-12.7c-7,0-14.8,1.2-24.5,3.8c-25,6.7-40.8,22.9-45.6,46.8
						c-3.2,15.9-1.2,28.6,6,38.9c4.8,6.8,10,13.4,15,19.9c2.6,3.3,5.2,6.7,7.7,10c1.4,1.8,2.8,4.1,3.3,7.2L319.6,245.2z
						 M354.2,114.8c-18.8,0-35.2,5.9-48.7,17.5c-18.6,16-25.5,37.1-20,61c2.8,12.2,10.5,21.8,17.9,31.1c0.8,1,1.6,2,2.4,3
						c2.9,3.7,6.1,7.3,9.2,10.8c0.9,1.1,1.9,2.1,2.8,3.2c-0.6-1.8-1.6-3.3-2.6-4.6c-2.6-3.4-5.2-6.7-7.7-10
						c-5-6.4-10.2-13.1-15-19.9c-7.5-10.5-9.5-23.6-6.2-39.8c4.9-24.4,21-40.8,46.4-47.7c9.8-2.6,17.6-3.8,24.8-3.8
						c13.1,0,23.9,4.2,33.1,12.9c0.2,0,0.3,0,0.4,0c0,0,0,0,0.1,0c-0.2-0.3-0.4-0.5-0.6-0.8c-0.8-1-1.5-1.9-2.3-2.6
						c-6.1-5.7-13.9-8.9-24.4-10C360.5,115,357.3,114.8,354.2,114.8z"/>
					<path d="M320.4,247l-2.4-2.8c-1.4-1.6-2.8-3.2-4.3-4.8c-3.1-3.5-6.3-7.2-9.3-10.9c-0.8-1-1.5-1.9-2.3-2.9l-0.1-0.2
						c-7.5-9.5-15.3-19.3-18.2-31.8c-5.6-24.6,1.5-46.2,20.6-62.6c13.8-11.8,30.5-17.9,49.7-17.9c3.2,0,6.4,0.2,9.7,0.5
						c11,1.1,19,4.4,25.4,10.4c0.9,0.8,1.6,1.7,2.4,2.8c0.4,0.5,0.8,1.1,1.3,1.6l1.5,1.8h-2.3c-0.5,0-0.8,0-1.1,0
						c-0.2,0-0.4,0-0.5,0c-0.2,0-0.7,0-1.1-0.4c-8.9-8.5-19.4-12.6-32.1-12.6c-7,0-14.7,1.2-24.3,3.8c-24.8,6.7-40.4,22.7-45.2,46.4
						c-3.2,15.8-1.2,28.3,6,38.5c4.8,6.8,10,13.4,15,19.8c2.6,3.3,5.2,6.7,7.7,10c1.4,1.9,2.9,4.2,3.4,7.4L320.4,247z M317.8,242.2
						c0.4,0.4,0.7,0.8,1.1,1.2c0,0,0,0,0,0L317.8,242.2z M310.1,233.5c1.3,1.5,2.6,3,4,4.5C312.8,236.6,311.4,235.1,310.1,233.5z
						 M290,204.2c3.6,7.2,8.7,13.6,13.7,19.9c0.8,1,1.6,2,2.4,3c2.8,3.5,5.8,7,8.8,10.3c0,0-0.1-0.1-0.1-0.1
						c-2.6-3.4-5.2-6.7-7.7-10c-5-6.5-10.2-13.1-15-19.9C291.3,206.3,290.7,205.2,290,204.2z M315.1,235.8c0.2,0.2,0.4,0.5,0.6,0.7
						c0,0,0,0,0,0c0,0,0,0,0,0C315.5,236.3,315.3,236.1,315.1,235.8z M305.5,223.4c0.8,1.1,1.6,2.1,2.5,3.2c1.1,1.4,2.3,2.9,3.4,4.3
						c-1.1-1.4-2.2-2.9-3.3-4.3C307.2,225.6,306.3,224.5,305.5,223.4z M303.9,225.9c0.3,0.4,0.6,0.7,0.8,1.1
						C304.4,226.6,304.1,226.3,303.9,225.9z M289,199.7c1.1,2.5,2.4,4.8,4,7c1.2,1.6,2.3,3.3,3.5,4.9c-1.2-1.6-2.4-3.2-3.5-4.9
						C291.4,204.5,290.1,202.1,289,199.7z M294.8,144.7c-7.5,10.5-11.1,22.5-10.5,35.6c0.1-4.1,0.6-8.5,1.5-13.1
						C287.5,158.7,290.5,151.1,294.8,144.7z M336.9,119c-1.3,0.3-2.7,0.7-4.1,1c-25.2,6.8-41.1,23.1-46,47.3
						c-0.8,4.1-1.3,7.9-1.5,11.6c0.1-3.7,0.6-7.5,1.5-11.6c4.9-24.1,20.8-40.5,46-47.3C334.2,119.7,335.6,119.3,336.9,119z
						 M299.6,137.1c-6.3,6.7-10.8,14.1-13.5,22.1C288.8,151.2,293.3,143.8,299.6,137.1z M354.2,114.2c-17.8,0-33.4,5.2-46.5,15.5
						C320.7,119.5,336.4,114.2,354.2,114.2z M391.4,128.2l0.7,0.9l-1,0.1c0.3,0,0.6,0,1,0l0,0C391.9,128.8,391.7,128.5,391.4,128.2z
						 M389.3,125.7c0.5,0.5,1,1.2,1.5,1.8l0.1,0.2c0,0-0.1-0.1-0.1-0.1C390.3,126.8,389.8,126.2,389.3,125.7z M352.3,115.3
						c-14.6,0.3-27.7,4.2-39,11.7c5.6-3.4,12.1-6.1,19.2-8C340.1,117,346.5,115.8,352.3,115.3z M375.6,118.4
						c3.7,1.4,7.2,3.4,10.5,5.8C383,121.7,379.6,119.7,375.6,118.4z M357.8,116.2c8.1,0.1,15.3,1.8,21.8,5.2
						C373.2,118,365.9,116.3,357.8,116.2z M359.8,114.4c1.3,0.1,2.7,0.2,4,0.3c5,0.5,9.4,1.5,13.3,3c-3.9-1.5-8.3-2.5-13.3-3
						C362.4,114.6,361.1,114.5,359.8,114.4z"/>
				</g>
			</g>
			<g>
				<g>
					<path d="M260.1,411.9c2.4,7.9,0.4,13.9-5.5,16.8c-3.6,1.7-7.5,3.5-11.3,3.6c-12.1,0.6-24.4,1.2-36.5,0.3
						c-14.3-1-22-11.1-20.7-25.4c1.2-14.1,2.5-28.2,3.8-42.3c0.1-0.8,0.4-1.6,1.9-2.2c0,6.2,0.4,12.5-0.1,18.6
						c-0.7,8.3-1.7,16.6-3.3,24.8c-2.4,12.9,5.2,23.3,18.5,24.3c11.4,0.9,23,1.2,34.3-0.3C254.6,428.4,258,428.1,260.1,411.9z"/>
					<path d="M219.9,433.7c-4.7,0-9-0.1-13.1-0.4c-6.9-0.5-12.5-3-16.2-7.4c-3.9-4.6-5.7-11-5-18.5c1.2-13.7,2.5-27.6,3.7-41.1
						l0.1-1.2c0.1-1.2,0.8-2,2.3-2.6l0.8-0.3v0.8c0,1.9,0,3.8,0.1,5.7c0.1,4.2,0.2,8.6-0.2,12.9c-0.8,9.1-1.8,17.2-3.3,24.9
						c-1.2,6.2,0,11.9,3.3,16.2c3.3,4.3,8.5,6.9,14.7,7.4c6.5,0.5,12.1,0.7,17.2,0.7c6.2,0,11.8-0.4,17-1.1l0.4-0.1
						c12.8-1.8,15.8-2.2,17.9-17.8l0.3-2.5l0.7,2.4c2.5,8.1,0.4,14.4-5.8,17.4c-3.5,1.7-7.6,3.5-11.5,3.7l-0.6,0
						C235.2,433.3,227.5,433.7,219.9,433.7z M191.3,363.8c-0.7,0.5-0.8,0.9-0.8,1.3l-0.1,1.2c-1.2,13.5-2.5,27.4-3.7,41.1
						c-0.6,7.2,1,13.3,4.8,17.7c3.5,4.2,8.9,6.6,15.4,7c4,0.3,8.3,0.4,13,0.4c7.6,0,15.3-0.4,22.8-0.7l0.6,0
						c3.7-0.2,7.7-1.9,11.1-3.6c5-2.4,7.1-7.2,5.9-13.5c-2.2,13.8-6.1,14.3-18.4,16l-0.4,0.1c-5.3,0.7-10.9,1.1-17.2,1.1
						c0,0,0,0,0,0c-5.1,0-10.8-0.2-17.3-0.7c-6.5-0.5-12-3.3-15.5-7.8c-3.5-4.6-4.7-10.6-3.5-17.1c1.4-7.6,2.5-15.7,3.2-24.8
						c0.4-4.2,0.3-8.6,0.2-12.8C191.4,367,191.4,365.4,191.3,363.8z"/>
				</g>
				<g>
					<path d="M219.9,433.7c-4.7,0-9-0.1-13.1-0.4c-6.9-0.5-12.5-3-16.2-7.4c-3.9-4.6-5.7-11-5-18.5c1.2-13.7,2.5-27.6,3.7-41.1
						l0.1-1.2c0.1-1.2,0.8-2,2.3-2.6l0.8-0.3v0.8c0,1.9,0,3.8,0.1,5.7c0.1,4.2,0.2,8.6-0.2,12.9c-0.8,9.1-1.8,17.2-3.3,24.9
						c-1.2,6.2,0,11.9,3.3,16.2c3.3,4.3,8.5,6.9,14.7,7.4c6.5,0.5,12.1,0.7,17.2,0.7c6.2,0,11.8-0.4,17-1.1l0.4-0.1
						c12.8-1.8,15.8-2.2,17.9-17.8l0.3-2.5l0.7,2.4c2.5,8.1,0.4,14.4-5.8,17.4c-3.5,1.7-7.6,3.5-11.5,3.7l-0.6,0
						C235.2,433.3,227.5,433.7,219.9,433.7z M191.3,363.8c-0.7,0.5-0.8,0.9-0.8,1.3l-0.1,1.2c-1.2,13.5-2.5,27.4-3.7,41.1
						c-0.6,7.2,1,13.3,4.8,17.7c3.5,4.2,8.9,6.6,15.4,7c4,0.3,8.3,0.4,13,0.4c7.6,0,15.3-0.4,22.8-0.7l0.6,0
						c3.7-0.2,7.7-1.9,11.1-3.6c5-2.4,7.1-7.2,5.9-13.5c-2.2,13.8-6.1,14.3-18.4,16l-0.4,0.1c-5.3,0.7-10.9,1.1-17.2,1.1
						c0,0,0,0,0,0c-5.1,0-10.8-0.2-17.3-0.7c-6.5-0.5-12-3.3-15.5-7.8c-3.5-4.6-4.7-10.6-3.5-17.1c1.4-7.6,2.5-15.7,3.2-24.8
						c0.4-4.2,0.3-8.6,0.2-12.8C191.4,367,191.4,365.4,191.3,363.8z"/>
					<path d="M219.9,434.2c-4.8,0-9-0.1-13.1-0.4c-7-0.5-12.7-3.1-16.6-7.6c-4-4.7-5.8-11.3-5.2-18.9c1.2-13.7,2.5-27.5,3.7-41
						l0.1-1.3c0.1-1.4,1-2.4,2.6-3.1l1.5-0.6v1.6c0,1.9,0,3.8,0.1,5.7c0.1,4.3,0.2,8.7-0.2,13.1c-0.8,9.1-1.8,17.3-3.3,24.9
						c-1.1,6,0,11.6,3.2,15.8c3.2,4.2,8.3,6.7,14.3,7.2c6.4,0.5,12,0.7,17.1,0.7c6.2,0,11.7-0.3,16.9-1.1l0.4-0.1
						c12.8-1.8,15.4-2.1,17.5-17.3l0.7-4.9l1.5,4.8c2.6,8.4,0.4,15-6.1,18.1c-3.6,1.7-7.7,3.6-11.7,3.8l-0.6,0
						C235.3,433.8,227.5,434.2,219.9,434.2z M237.6,432.6c-5.9,0.3-11.9,0.5-17.7,0.5C225.8,433.1,231.8,432.9,237.6,432.6z
						 M195.8,429.5c3.1,1.8,6.8,2.9,11,3.2c1.9,0.1,3.8,0.2,5.7,0.3c-2-0.1-3.9-0.2-5.7-0.3C202.6,432.4,198.9,431.3,195.8,429.5z
						 M247.8,430.4c-1.7,0.3-3.7,0.6-5.9,0.9l-0.4,0.1c-0.1,0-0.2,0-0.2,0c0.4,0,0.8,0,1.3-0.1l0.7,0
						C244.7,431.2,246.3,430.9,247.8,430.4z M221.5,431.3c0.9,0,1.8,0,2.6,0C223.3,431.3,222.4,431.3,221.5,431.3z M232.7,431.1
						c-2.6,0.2-5.4,0.2-8.3,0.2C227.4,431.3,230.1,431.3,232.7,431.1z M189.1,420.5c0.7,1.6,1.6,3,2.7,4.3c2.7,3.1,6.4,5.3,11,6.3
						c-4.9-1.2-8.9-3.7-11.7-7.4C190.3,422.6,189.7,421.6,189.1,420.5z M260.1,411.9c-2.1,16-5.6,16.5-18.4,18.3l-0.2,0l0.2,0
						c12.5-1.7,15.8-2.2,18-15.5L260.1,411.9C260.1,412,260.1,412,260.1,411.9L260.1,411.9z M188.1,411.3c0.1,4.4,1.4,8.4,3.9,11.7
						c1.9,2.5,4.4,4.4,7.4,5.7c-3-1.3-5.5-3.3-7.4-5.7C189.5,419.7,188.2,415.7,188.1,411.3z M260,418.7c-0.7,3-1.6,5.1-2.7,6.7
						C259,423.7,259.9,421.5,260,418.7z M190.9,367.3c-1.2,13.2-2.5,26.8-3.7,40.2c0,0.3-0.1,0.7-0.1,1c0.1-0.8,0.2-1.6,0.3-2.4
						c1.4-7.6,2.5-15.7,3.2-24.7c0.3-4.2,0.3-8.6,0.2-12.8C190.9,368.2,190.9,367.7,190.9,367.3z M192,371.4c0.1,3.3,0,6.7-0.2,10.1
						c-0.3,4.1-0.8,8.1-1.2,11.9c0.5-3.8,0.9-7.7,1.2-11.9C192.1,378.2,192.1,374.8,192,371.4z M190,365C190,365,190,365,190,365
						l-0.1,1L190,365C190,365,190,365,190,365z M191.9,362.9l0,0.8C191.9,363.4,191.9,363.1,191.9,362.9L191.9,362.9
						C191.9,362.9,191.9,362.9,191.9,362.9z"/>
				</g>
			</g>
			<g>
				<g>
					<path d="M334.2,232.6c-4.1-19.6,38.1-82,58.1-87.5C364.8,168.2,342.8,195.1,334.2,232.6z"/>
					<path d="M334.2,235.2l-0.5-2.4c-2.3-10.9,9.4-33.4,20.1-49.4c10.6-15.9,27.1-35.6,38.4-38.7l2.4-0.7l-1.9,1.6
						c-32.5,27.3-50.4,54.2-57.9,87.2L334.2,235.2z M389.5,146.8c-19.8,9.6-54.4,61.5-55,82.4C342.3,198.2,359.5,172.6,389.5,146.8z
						"/>
				</g>
				<g>
					<path d="M334.2,235.2l-0.5-2.4c-2.3-10.9,9.4-33.4,20.1-49.4c10.6-15.9,27.1-35.6,38.4-38.7l2.4-0.7l-1.9,1.6
						c-32.5,27.3-50.4,54.2-57.9,87.2L334.2,235.2z M389.5,146.8c-19.8,9.6-54.4,61.5-55,82.4C342.3,198.2,359.5,172.6,389.5,146.8z
						"/>
					<path d="M334.2,237.7l-1-4.9c-2.3-11.1,9.4-33.8,20.2-49.8c10.7-16,27.3-35.8,38.7-38.9l4.8-1.3l-3.8,3.2
						c-32.4,27.2-50.2,54-57.8,86.9L334.2,237.7z M334.2,232.5C334.2,232.6,334.2,232.6,334.2,232.5c0.3-1,0.5-2.1,0.8-3.2
						L334.2,232.5z M346.4,196.2c-6.9,12.1-12.5,25.1-12.5,33.5l0-0.6C334.2,221.2,339.2,208.9,346.4,196.2z M387.5,149.3
						c-28.5,25-44.7,49.7-52.4,79.5C342.8,199.1,359.2,174.2,387.5,149.3z M383.8,151.1c-4.2,3.3-8.8,7.8-13.5,13.2
						C374.5,159.9,379,155.5,383.8,151.1z M389.5,146.2c-1.1,0.5-2.2,1.2-3.4,1.9c1.1-0.7,2.2-1.3,3.2-1.8L389.5,146.2z
						 M392.3,145.1l-2.1,1.8C390.9,146.3,391.6,145.7,392.3,145.1C392.3,145.1,392.3,145.1,392.3,145.1z"/>
				</g>
			</g>
			<g>
				<g>
					<path d="M493.8,291.4c-11.1,9.4-14,22.3-15.2,35.9C476.2,312.5,483,296.2,493.8,291.4z"/>
					<path d="M478.9,331.6l-0.7-4.2c-2.6-15.1,4.4-31.5,15.5-36.5l3.5-1.6l-3,2.5c-11.3,9.6-13.9,22.7-15,35.5L478.9,331.6z
						 M489.7,294.6c-6.9,5.7-11.3,16.3-11,27.2C480,312,482.6,302.4,489.7,294.6z"/>
				</g>
				<g>
					<path d="M478.9,331.6l-0.7-4.2c-2.6-15.1,4.4-31.5,15.5-36.5l3.5-1.6l-3,2.5c-11.3,9.6-13.9,22.7-15,35.5L478.9,331.6z
						 M489.7,294.6c-6.9,5.7-11.3,16.3-11,27.2C480,312,482.6,302.4,489.7,294.6z"/>
					<path d="M479,335.9l-1.4-8.5c-2.6-15.3,4.5-32,15.8-37.1l7.1-3.2l-5.9,5c-11.2,9.5-13.7,22.5-14.8,35.1L479,335.9z
						 M478.2,321.7c0,1.8,0.2,3.7,0.5,5.5l0,0c0.2-2.4,0.5-4.9,0.8-7.3c-0.1,0.6-0.2,1.2-0.3,1.9L478.2,321.7z M489.4,294.1l0.7,0.8
						c-4.2,4.6-7.1,10-9,16.9c2.1-7.5,5.8-14.6,12.6-20.5l0,0l0,0C492.3,292.1,490.8,293,489.4,294.1z"/>
				</g>
			</g>
		</g>
		<g display="none">
			<g display="inline">
				<g>
					<path d="M189.2,102.3c16.5-16.1,32.4-33.5,53.4-43.9c1.9-0.9,0.2-3.8-1.7-2.8c-21.2,10.6-37.3,28.1-54,44.4
						C185.4,101.5,187.7,103.8,189.2,102.3L189.2,102.3z"/>
					<path d="M188.1,103.3L188.1,103.3c-0.9,0-1.8-0.6-2.1-1.5c-0.3-0.8-0.1-1.6,0.5-2.3c2.1-2.1,4.3-4.2,6.4-6.3
						c14.4-14.2,29.2-29,47.8-38.2c1.3-0.6,2.9,0.2,3.2,1.6c0.2,0.9-0.2,1.8-1.1,2.2c-18.1,9.1-32.7,23.5-46.8,37.5
						c-2.1,2.1-4.3,4.2-6.4,6.3C189.2,103.1,188.7,103.3,188.1,103.3z M241.7,55.9c-0.2,0-0.3,0-0.5,0.1
						c-18.4,9.2-33.2,23.9-47.5,38c-2.1,2.1-4.3,4.2-6.4,6.3c-0.4,0.4-0.4,0.8-0.3,1.1c0.3,0.7,1.2,1,1.8,0.5
						c2.1-2.1,4.3-4.2,6.4-6.3c14.2-14,28.8-28.5,47.1-37.7c0.5-0.3,0.6-0.7,0.5-1C242.7,56.4,242.3,55.9,241.7,55.9z"/>
				</g>
			</g>
		</g>
		<g display="none">
			<g display="inline">
				<g>
					<path d="M185.1,106.5c1.2-1.3,2.4-2.6,3.5-3.8c1.4-1.5-0.9-3.9-2.3-2.3c-1.2,1.3-2.4,2.6-3.5,3.8
						C181.3,105.7,183.6,108.1,185.1,106.5L185.1,106.5z"/>
					<path d="M184,107.6C184,107.6,184,107.6,184,107.6c-0.9,0-1.7-0.6-2-1.4c-0.4-0.8-0.2-1.7,0.4-2.3l3.5-3.8
						c0.4-0.5,0.9-0.7,1.5-0.7c0.9,0,1.7,0.6,2,1.4c0.4,0.8,0.2,1.7-0.4,2.3l-3.5,3.8C185.1,107.3,184.5,107.6,184,107.6z
						 M187.4,100.4c-0.2,0-0.5,0.1-0.7,0.3l-3.5,3.8c-0.4,0.5-0.3,0.9-0.2,1.2c0.2,0.4,0.6,0.8,1,0.8c0,0,0,0,0,0
						c0.2,0,0.5-0.1,0.7-0.3l3.5-3.8c0.4-0.5,0.3-0.9,0.2-1.2C188.2,100.7,187.8,100.4,187.4,100.4z"/>
				</g>
			</g>
		</g>
		<g>
			<g>
				<g>
					<path d="M177.3,115.5c3.4-6.1,8.6-10.8,13.4-15.7c5.3-5.5,10.8-10.8,16.4-16c11.4-10.4,23.9-19.7,37.5-27
						c1.9-1,0.2-3.8-1.7-2.8c-13.3,7.1-25.4,16.1-36.7,26.2c-6.2,5.5-12.1,11.4-17.9,17.3c-5,5.1-10.3,10.1-13.9,16.4
						C173.5,115.7,176.3,117.3,177.3,115.5L177.3,115.5z"/>
					<path d="M176,116.8L176,116.8c-0.8,0-1.6-0.5-2-1.2c-0.4-0.7-0.4-1.4,0-2.1c3.1-5.5,7.6-10,11.9-14.4c0.7-0.7,1.4-1.4,2-2.1
						c4.8-4.9,11.2-11.4,17.9-17.4c12.6-11.2,24.6-19.8,36.8-26.2c1.3-0.7,2.9,0.1,3.2,1.5c0.2,0.9-0.2,1.8-1,2.3
						c-12.8,6.8-25.1,15.6-37.4,26.9c-5.6,5.1-11.1,10.4-16.4,16c-0.8,0.8-1.6,1.6-2.4,2.4c-4,4-8.1,8.2-10.9,13.2
						C177.4,116.4,176.8,116.8,176,116.8z M243.8,54.3c-0.2,0-0.4,0-0.5,0.1c-12.1,6.4-24.1,15-36.6,26.1
						c-6.7,6-13.1,12.4-17.9,17.3c-0.7,0.7-1.4,1.4-2.1,2.1c-4.3,4.3-8.7,8.8-11.7,14.2c-0.3,0.4-0.2,0.8,0,1
						c0.2,0.4,0.7,0.6,1.1,0.6h0c0.4,0,0.6-0.2,0.8-0.5c2.9-5.1,7.1-9.4,11.1-13.4c0.8-0.8,1.6-1.6,2.4-2.4
						c5.4-5.5,10.9-10.9,16.5-16c12.4-11.3,24.7-20.2,37.6-27.1c0.6-0.3,0.6-0.8,0.5-1.1C244.8,54.8,244.4,54.3,243.8,54.3z"/>
				</g>
			</g>
		</g>
		<g>
			<g>
				<g>
					<path d="M243,58h1c2,0,2-3,0-3h-1C240,55,240,58,243,58C243,58,240,58,243,58z"/>
					<path d="M244.2,58H243v0.1c-2-0.4-1.7-1.1-1.7-1.9c0-1.1,0.3-2.1,1.7-2.1h1.1c1.4,0,2.2,0.9,2.2,2S245.6,58,244.2,58z
						 M243.1,55c-0.8,0-1.1,0.5-1.1,1s0.3,1,1.1,1h1.1c0.8,0,1.1-0.5,1.1-1s-0.3-1-1.1-1H243.1z"/>
				</g>
			</g>
		</g>
		<g>
			<g>
				<g>
					<path d="M245.2,56.8c0.3-0.3,0.5-0.6,0.9-0.9c0.7-0.5,0.6-1.7,0-2.3c-0.7-0.7-1.6-0.5-2.3,0c-0.3,0.3-0.6,0.5-0.9,0.9
						c-0.6,0.7-0.7,1.6,0,2.3C243.5,57.4,244.7,57.5,245.2,56.8L245.2,56.8z"/>
					<path d="M244.2,57.8L244.2,57.8c-0.6,0-1.2-0.2-1.6-0.6c-0.8-0.8-0.8-2,0-3c0.3-0.4,0.6-0.7,1-1c1-0.8,2.2-0.8,3,0
						c0.4,0.4,0.7,1.1,0.6,1.8c0,0.6-0.3,1.1-0.7,1.4c-0.3,0.2-0.5,0.5-0.8,0.8C245.3,57.6,244.8,57.8,244.2,57.8z M245,53.7
						c-0.3,0-0.6,0.1-0.9,0.4c-0.3,0.2-0.5,0.5-0.8,0.8c-0.2,0.2-0.7,1,0,1.6c0.2,0.2,0.5,0.3,0.8,0.3l0,0c0.2,0,0.5,0,0.7-0.3
						c0.3-0.4,0.6-0.7,1-1c0.2-0.2,0.3-0.4,0.3-0.6c0-0.3-0.1-0.7-0.3-0.9C245.5,53.8,245.3,53.7,245,53.7z"/>
				</g>
			</g>
		</g>
		<g id="right_nostril_-_stroke" display="none">
			<g display="inline">
				<g>
					<line x1="501" y1="322" x2="501" y2="336"/>
					<rect x="501" y="322" width="2" height="14"/>
				</g>
			</g>
			<g display="inline">
				<g>
					<g>
						<path d="M500,323c0,0,0,9,0,14c0,2,4,2,4,0c0-5,0-9,0-14C504,320,500,320,500,323C500,323,500,320,500,323z"/>
						<path d="M502.5,338.4c-1.1,0-2.5-0.7-2.5-2.2V322h0.5c0.9-3,4.5-2.4,4.5,0.1v14.2C505,337.7,503.6,338.4,502.5,338.4z
							 M501,322.1v14.2c0,0.8,1,1.1,1.5,1.1s1.5-0.3,1.5-1.1v-14.2c0-0.8-1-1.1-1.5-1.1S501,321.3,501,322.1z"/>
					</g>
				</g>
			</g>
		</g>
		<g id="left_nostril_-_stroke">
			<g>
				<g>
					<line x1="521" y1="317" x2="521" y2="329"/>
					<rect x="521" y="317" width="1" height="12"/>
				</g>
			</g>
			<g>
				<g>
					<g>
						<path d="M520,318c0,0,0,8,0,12c0,1,3,1,3,0c0-4,0-7,0-12C523,316,520,316,520,318C520,318,520,316,520,318z"/>
						<path d="M522,331.1c-1.3,0-2-0.5-2-1.4V317h0.2c0.9-2,3.8-1.8,3.8,0.7v12C524,330.5,523.3,331.1,522,331.1z M521,317.7v12
							c0,0.1,0.5,0.3,1.1,0.3s1.1-0.2,1.1-0.3l0-12c0-0.8-0.6-1.1-1.1-1.1C521.6,316.6,521,316.9,521,317.7z"/>
					</g>
				</g>
			</g>
		</g>
		<g id="left_nostril_-_stroke_1_">
			<g>
				<g>
					<line x1="503" y1="323" x2="503" y2="335"/>
					<rect x="503" y="323" width="1" height="12"/>
				</g>
			</g>
			<g>
				<g>
					<g>
						<path d="M501,324c0,0,0,7,0,12c0,1,4,1,4,0c0-5,0-8,0-12C505,322,501,322,501,324C501,324,501,322,501,324z"/>
						<path d="M503.5,336.5c-1.3,0-2.5-0.5-2.5-1.4V323h0.6c0.9-3,4.4-2.3,4.4,0.2v12C506,336,504.8,336.5,503.5,336.5z M503,323.2
							v12c0,0.1,0.2,0.3,0.9,0.3s0.9-0.2,1-0.3l-0.1-12c0-0.8-0.4-1.1-0.9-1.1S503,322.3,503,323.2z"/>
					</g>
				</g>
			</g>
		</g>
		<g id="right_eye_-_stroke">
			<g>
				<ellipse cx="434.3" cy="249.2" rx="3.9" ry="13.3"/>
				<path d="M434.3,263c-2.9,0-4.5-7.1-4.5-13.8s1.6-13.8,4.5-13.8c2.9,0,4.5,7.1,4.5,13.8S437.2,263,434.3,263z M434.3,236.5
					c-1.4,0-3.4,4.8-3.4,12.7c0,7.9,2,12.7,3.4,12.7c1.4,0,3.4-4.8,3.4-12.7C437.6,241.3,435.7,236.5,434.3,236.5z"/>
			</g>
			<g>
				<path d="M434.3,263c-2.9,0-4.5-7.1-4.5-13.8s1.6-13.8,4.5-13.8c2.9,0,4.5,7.1,4.5,13.8S437.2,263,434.3,263z M434.3,236.5
					c-1.4,0-3.4,4.8-3.4,12.7c0,7.9,2,12.7,3.4,12.7c1.4,0,3.4-4.8,3.4-12.7C437.6,241.3,435.7,236.5,434.3,236.5z"/>
				<path d="M434.3,263.6c-3.4,0-5-7.5-5-14.4c0-6.9,1.6-14.4,5-14.4c3.4,0,5,7.5,5,14.4C439.3,256.1,437.7,263.6,434.3,263.6z
					 M434.3,237c-0.8,0-2.8,4.3-2.8,12.2s2,12.2,2.8,12.2s2.8-4.3,2.8-12.2S435.1,237,434.3,237z M434.3,235.9c2.2,0,3.9,6,3.9,13.3
					C438.2,241.9,436.4,235.9,434.3,235.9s-3.9,6-3.9,13.3C430.3,241.9,432.1,235.9,434.3,235.9z"/>
			</g>
		</g>
		<g id="left_eye-stroke">
			<g>
				<ellipse cx="486.7" cy="236.1" rx="3.9" ry="13.3"/>
				<path d="M486.7,249.9c-2.9,0-4.5-7.1-4.5-13.8s1.6-13.8,4.5-13.8c2.9,0,4.5,7.1,4.5,13.8S489.6,249.9,486.7,249.9z M486.7,223.4
					c-1.4,0-3.4,4.8-3.4,12.7s2,12.7,3.4,12.7c1.4,0,3.4-4.8,3.4-12.7S488.1,223.4,486.7,223.4z"/>
			</g>
			<g>
				<path d="M486.7,249.9c-2.9,0-4.5-7.1-4.5-13.8s1.6-13.8,4.5-13.8c2.9,0,4.5,7.1,4.5,13.8S489.6,249.9,486.7,249.9z M486.7,223.4
					c-1.4,0-3.4,4.8-3.4,12.7s2,12.7,3.4,12.7c1.4,0,3.4-4.8,3.4-12.7S488.1,223.4,486.7,223.4z"/>
				<path d="M486.7,250.5c-3.4,0-5-7.5-5-14.4c0-6.9,1.6-14.4,5-14.4c3.4,0,5,7.5,5,14.4C491.7,243,490.1,250.5,486.7,250.5z
					 M486.7,223.9c-0.8,0-2.8,4.3-2.8,12.2s2,12.2,2.8,12.2s2.8-4.3,2.8-12.2S487.5,223.9,486.7,223.9z M486.7,222.8
					c2.2,0,3.9,6,3.9,13.3C490.6,228.8,488.9,222.8,486.7,222.8s-3.9,6-3.9,13.3C482.8,228.8,484.5,222.8,486.7,222.8z"/>
			</g>
		</g>
		<g>
			<g>
				<path d="M246.6,52.2c-0.1,0.1-0.3,0.1-0.4,0.2c-0.2,0-0.3,0.1-0.4,0.2c0,0,0,0,0,0c-0.4,0-0.8,0.1-1,0.4c-0.3,0-0.6,0.2-0.8,0.4
					C245,53.2,245.9,53.1,246.6,52.2z"/>
				<path d="M242.2,54l1.3-1.1c0.3-0.2,0.6-0.4,0.9-0.5c0.3-0.2,0.7-0.4,1.1-0.4c0.1-0.1,0.3-0.1,0.4-0.2c0,0,0.1,0,0.2-0.1l0.2-0.1
					l2-0.8l-1.3,1.7c-0.8,1-1.9,1.1-3,1.2L242.2,54z"/>
			</g>
		</g>
		<g>
			<g>
				<path d="M255.8,48.4c-1,0.2-1.9,0.6-2.8,1c-0.1,0.1-0.2,0.2-0.3,0.3c-1.5,0.7-3,1.5-4.6,2c-0.5,0.2-1,0.4-1.4,0.6
					c-0.7,0.8-1.6,0.9-2.6,1c0,0-0.1,0.1-0.1,0.1c-0.1,0-0.2,0-0.2,0.1c-0.2,0.2-0.5,0.4-0.8,0.5c-0.1,0.1-0.1,0.2-0.2,0.3
					c-0.3,0.3-0.4,0.7-0.4,1.1c-0.4,0.1-0.9,0.2-1.4,0.2c-0.4,0.6-0.2,1.5,0.2,2c0.7,0.7,1.6,0.6,2.3,0c0.2-0.1,0.4-0.3,0.6-0.4
					c0.1,0,0.2,0,0.3,0c0,0,0,0,0,0c0.1,0,0.3,0,0.4,0c0.1,0,0.1,0,0.2,0c0,0,0,0,0,0c0.5-0.3,1-0.5,1.5-0.7c0,0,0,0,0,0
					c1.4-0.8,2.7-1.5,4.2-2.1c0.3-0.1,0.5-0.3,0.7-0.5c0.9-0.4,1.8-0.8,2.7-1.3c0.3-0.1,0.6-0.2,1-0.3c0,0,0.1,0,0.1,0
					c0,0,0.1,0,0.1,0c0.7-0.2,1.4-0.5,1.9-1c0.4-0.3,0.6-0.8,0.6-1.2C257.8,49.1,257,48.1,255.8,48.4z"/>
				<path d="M242.3,58.6c-0.6,0-1.1-0.2-1.5-0.6c-0.7-0.7-0.8-1.9-0.3-2.7l0.2-0.2l0.3,0c0.3,0,0.5,0,0.9-0.1
					c0.1-0.3,0.2-0.7,0.4-0.9c0.1-0.1,0.1-0.2,0.2-0.3l0.2-0.2c0.2-0.1,0.5-0.3,0.7-0.4l0.2-0.1c0.1,0,0.1,0,0.1,0l0.1-0.1l0.2,0
					c1.1-0.1,1.8-0.2,2.3-0.8l0.1-0.1l0.1-0.1c0.5-0.2,1-0.4,1.5-0.6c1.6-0.5,3.1-1.3,4.5-2c0.1-0.1,0.3-0.2,0.4-0.3
					c1-0.5,2-0.8,2.9-1.1c0.8-0.2,1.5,0,2.1,0.6c0.4,0.4,0.7,1,0.7,1.7c0.1,0.6-0.2,1.1-0.8,1.6c-0.7,0.6-1.5,0.9-2.1,1.1
					c-0.1,0-0.1,0.1-0.2,0.1c-0.3,0.1-0.6,0.2-1,0.3c-0.8,0.4-1.6,0.8-2.5,1.2c-0.3,0.2-0.5,0.4-0.9,0.5c-1.3,0.5-2.7,1.2-4.1,2
					l-0.2,0.1c-0.5,0.2-0.9,0.4-1.4,0.6l-0.2,0.1c-0.1,0-0.2,0-0.2,0c-0.1,0-0.3,0-0.5,0l0,0c0,0-0.1,0-0.1,0
					c-0.1,0.1-0.2,0.2-0.4,0.3C243.4,58.4,242.8,58.6,242.3,58.6z M241.3,56.1c-0.1,0.4,0,0.8,0.3,1.1c0.4,0.4,1.1,0.4,1.6,0
					c0.2-0.2,0.4-0.3,0.6-0.4l0.2-0.1l0.2,0c0.1,0,0.1,0,0.2,0l0.1,0c0.1,0,0.1,0,0.2,0l0,0l0.1,0c0,0,0,0,0,0v0v0
					c0.5-0.2,0.9-0.4,1.4-0.6l0.1,0l0,0c1.5-0.9,2.9-1.6,4.3-2.1c0.2-0.1,0.4-0.2,0.5-0.4l0.2-0.1c0.9-0.4,1.7-0.8,2.7-1.3
					c0.4-0.1,0.7-0.2,1-0.3l0.1,0c0.8-0.3,1.4-0.5,1.8-0.9c0.3-0.2,0.4-0.4,0.4-0.7c0-0.4-0.1-0.7-0.3-0.9c-0.2-0.2-0.6-0.4-1-0.3
					c-0.9,0.2-1.8,0.5-2.7,1c-0.1,0-0.1,0.1-0.2,0.1l-0.1,0.1c-1.5,0.7-3,1.5-4.7,2c-0.4,0.2-0.9,0.3-1.3,0.5
					c-0.8,0.9-1.8,1-2.8,1.1l-0.1,0.1l-0.2,0l0,0c-0.2,0.2-0.4,0.3-0.6,0.4c0,0,0,0.1-0.1,0.1l-0.1,0.1c-0.2,0.2-0.3,0.4-0.3,0.7
					l0,0.4l-0.4,0.1C242.1,55.9,241.7,56,241.3,56.1z"/>
			</g>
		</g>
	</g>
</g>
<g id="Layer_2">
	<text transform="matrix(1 0 0 1 20.0004 655.3333)" font-family="'Anton'" font-size="160">TOY PIG CO.</text>
	<line fill="none" x1="352" y1="-7941" x2="352" y2="8442"/>
	<line fill="none" x1="168" y1="-7941" x2="168" y2="8442"/>
</g>
</svg>
